<svg xmlns="http://www.w3.org/2000/svg" width="100" preserveAspectRatio="none" viewBox="0 121 100 270" enable-background="new 0 121 100 270"><path fill="#1D1D1B" d="M93.61 266.63l-.2.1c.1.21.3 0 .2-.1zm-.1.51c.1-.1 0-.1 0 0zm.1-2.16c-.1.1 0 .21 0 .31.2-.11.1-.21 0-.31zm0 2.58c-.1-.11-.1.1 0 0zm0-4.96h.1-.1zm.1 2.17c-.1 0 0 .1 0 0zm.1-.93c-.2.1 0 .1 0 0zm1.49-4.96c-.1.1-.2.1-.1.21.1 0 .2-.1.1-.21zm-1.29 2.48c-.1-.1 0 .1 0 0zm.1 7.95c.1 0 0-.1 0-.21 0 0-.1.11 0 .21zm-.2-4.85v.1s.1 0 0-.1zm.2-1.75c-.1.1 0 .1.1.1 0 0-.1 0-.1-.1zm-.3 2.27c-.2-.11-.1.1 0 0zm-.3 4.95c.1-.1-.1-.21-.1-.41-.1.2.1.41.1.41zm-.1-3.1h-.1.1zm0-.41zm.1 2.06h.1c0-.1-.1-.1-.1 0zm.2-.41c-.1-.21-.3.1-.2.21.2-.11.1-.21.2-.21zm-.6-.72c.17.18.05.13 0 0zm.7-2.89c-.1 0-.1.1 0 .21v-.21zm-.5 6.6c.03-.25.18-.26 0-.52v.52zm.2 1.35v-.31c-.1.1-.1.2 0 .31zm-.1-6.92c0-.2-.17-.28 0 0zm-.1 3.3c-.1 0 0 .11 0 0zm-.1-1.13zm0 4.23c.1 0 0-.1 0 0zm0 .62c0-.1.2-.1.1-.31-.1.1-.2.21-.1.31zm.02-.92zm.18 3.91c-.1-.1 0-.1 0 0zm.8-16.41l-.1-.1s0 .21.1.1zm-.3 3.31c-.1 0 0 .1 0 0zm-.6 2.78c.1-.1 0-.21 0-.21v.21zm.5-.82l.1-.31c-.2 0-.2.2-.1.31zm0 2.37c0-.1.1 0 0 0zm.1-3.92v-.11.11zm-.6 1.86c.01 0 .3.56 0 0zm.2.1v-.21c-.1 0-.1.21 0 .21zm.2 1.75c.1 0 0-.1 0-.21-.2.01-.1.11 0 .21zm-.2-2.99v-.1.1zm.2-1.03v-.21c-.2 0-.1.21 0 .21zm.6-4.75c.13-.13-.01-.21.2-.21-.23-.33-.3-.26-.2.21.09-.1 0-.1 0 0zm1.29-7.12c.1-.21 0-.1 0 0zm.2 2.37c0 .1-.1.21 0 .31v-.31zm-.7-18.47c-.1 0 0 .1 0 0zm0 3.92l-.2.31c.1 0 .3-.21.2-.31zm.4 13.93v.1c.1.01.1-.1 0-.1zm-.1-25.8v-.1.1zm.2 18.99c0-.11-.28 0 0 0zm-.2-7.53c-.1 0 0 .2 0 0zm-.2-11.04c0 .1.2 0 .1-.1 0-.01-.1-.01-.1.1zm.1.51c0-.1-.1-.1-.1-.1-.1 0 0 .2.1.1zm-.2 1.96c-.1 0-.1.1-.2.21.1 0 .3-.1.2-.21zm.5 14.97c0 .1.1.21.2.1-.17 0-.19-.07-.2-.1 0 .1.1.2 0 0zm.2-.62c-.1.1-.1.21 0 .31-.1-.11 0-.21 0-.31zm-.3-18.06c-.26.26.05.58 0 0zm-.5 9.59c.1-.1.1-.1.1-.21-.1.01-.1.11-.1.21zm.4-8.67v-.1c-.1 0 0 .1 0 .1zm-.8 35.41c-.1.1.1.1.1.21.1-.21 0-.21-.1-.21zm-.1 1.65l.1.1c.1 0 0-.21-.1-.1zm0-8.88c-.1-.1 0 .1 0 0zm-.19 2.99c-.1 0 0 .11 0 0zm0 8.98c-.1-.1 0 .11 0 0zm0-1.24c.09 0 0-.1 0 0zm.09-.41v-.1s-.09.1 0 .1zm-.09-9.39v-.41c0 .1-.1.31 0 .41zm-1.1 17.13v-.1c-.1.1 0 .21 0 .1zm1.69-24.77c0 .1.1.1 0 0 .1.1 0-.1 0 0zm.2 1.65c-.3.09-.39.4 0 0zm.3 3.51v.1c.1.01.1.01 0-.1zm-.4-3.92zm-.69 6.61c-.02 0 .14.58 0 0zm1.09-7.44c-.1.1-.1.21 0 .41 0-.1.1-.41 0-.41zm-.3 12.18c-.1-.21-.2 0-.3 0h.3zm-.5-4.95c0-.29-.12-.1 0 0zm-.2.72zm.9-2.16c-.03.25-.35.36 0 .72.15-.22.15-.46 0-.72zm-.8 1.75c-.1.1-.1 0 0 0zm.1-34.68c-.32-.41.27-.16.1-.52-.24.56-.1 1.22-.1.52zm-4.67 62.03c.1 0 0-.1 0-.1-.09 0-.09.1 0 .1zm5.96-28.49c-.1.1 0 .21 0 .31.1-.1.1-.2 0-.31zm-1.68-31.58c-.14.04-.37.38 0 0zm-3.08 51.4c0 .1-.1 0 0 0zm4.76-23.43v.21-.21zm-.09-2.37c.1-.1.1-.1 0-.21v.21zm0-.62c0 .1-.1.1 0 .21.09-.11.09-.21 0-.21zm.09 3.71l-.1-.21c-.09.11.1.11.1.21zm-2.68 21.26v-.1c-.1 0-.1 0 0 .1zm2.59-21.26c-.1.1 0 .21 0 .31 0-.1.09-.2 0-.31zm.09.93c0 .11-.09-.1 0 0zm0-.51c-.09-.11 0 .1 0 0zm-.69 9.18c0-.1.1 0 0 0zm.69-6.19c-.1-.1-.1.21-.1.21.1-.11.1-.21.1-.21zm-1.49-33.54c-.1.1-.1.21 0 .41.1-.1.1-.31 0-.41zm-.59 16.51c-.1 0-.1.1 0 0-.1.21 0 .1 0 0zm4.57 31.27l.1.1-.1-.1zm-4.07 36.23l.1.21c.09.1-.01-.21-.1-.21zm-2.19-9.6c.1-.1 0-.1 0 0zm-.7 12.18zm2.59-85.56h-.1.1zm-.3.93c0-.63-.03-.14 0 0zm-.1-1.65c0 .1-.1.1 0 .21 0-.11.1-.11 0-.21zm-.2-.21c-.1.1.1.1.1.21 0 0-.1-.11-.1-.21zm.5 1.03c-.1 0 0 .11 0 0zm1.79 30.35c-.09.36-.54 2.75-.3 2.99 0-.77.57-2.15.3-2.99-.1.41.1.3 0 0zm-2.49 22.7c-.1 0 0 .1 0 .21.1 0 .1-.11 0-.21zm.3 6.3c0-.31-.15-.19 0 0zm-.2-1.86c0-.1.1.1 0 0 .1.1.1 0 0 0zm0-6.81c-.1 0 0 .1 0 .21 0-.01.1-.11 0-.21zm0 8.77c.1 0 .1.1 0 0zm.3-12.07c-.16-.16-.02-.51-.3-.31-.07.29.07.31.3.31-.1-.11-.1 0 0 0zm-.2 4.33c0 .1-.1.21 0 .21s.1-.11 0-.21zm-.3 2.17c-.11-.23-.14-.47-.1-.72-.21.14-.22.72.1.72zm.1 3.4v.1c.1.01.1-.1 0-.1zm-.1-5.36c-.08.1-.08.17 0 .21v-.21zm.4-4.24c0 .11.1 0 0 0zm-.4 3.2c.1-.21.1-.31 0-.52 0 .11-.1.32 0 .52zm-.1 2.17v-.21c-.1.01-.1.21 0 .21zm.2.31zm-.1-.72c0 .1.1.1 0 0zm-.1 1.24c-.2.21-.1.52 0 .72.2-.1.2-.62 0-.72zm0 .93c0 .25-.34.22 0 .52v-.52c0 .1.1.1 0 0zm0 .61c-.23.28 0 .33 0 0zm2.49-18.36c-.1-.11 0 .1 0 0zm-.2 2.88h-.1c0 .11.1 0 .1 0zm-1.09 6.82c0 .19.09.39 0 0zm.99-5.47c-.45 0 .1-.41.1-.62-.39-.61-.66 1.05-.6 1.24.47-.25.5-.93.5-.62zm.2-6.3c0 .09-.25.49 0 .62.03-.06.1-.73 0-.62 0-.1-.1.1 0 0zm.1 1.65c0-.1.1 0 0 0zm0 .11c-.1 0 0 .2 0 0zm-.1-2.58c-.1.1-.1.1 0 .31.1-.11.1-.21 0-.31zm-.1.72c.2 0 0-.11 0 0zm-1.39 17.54c.15-.25.29-.28.4-.1.09-.12.12-.26.1-.41-.48-.18.08.5-.59-.21.02.24.05.48.09.72zm0 0c-.01-.01-.41-.64-.18-.09.03.37.09.4.18.09zm-.4-6.91c.02.43.19.19 0 0zm.4 4.44c-.13.08-.07.14 0 .21v-.21zm0 .72v-.1c-.1-.11-.1.1 0 .1zm-.1.51c-.1.1 0 .31 0 .31.1-.1.1-.31 0-.31zm.2-1.54c.06 0-.09-.56 0 0zm.2 1.96c-.1 0-.1.1-.1.21.1-.11.1-.11.1-.21zm-3.68 25.8c-.02 0 .32.15.3.1.3 0-.6-.71-.3-.1zm-1.59 16c-.1 0 0 .1 0 .2.1-.1 0-.2 0-.2zm-.1 4.64v-.72c-.09.05-.19.72 0 .72zm-.2-2.48l.1.1c-.07 0 .04-.32.06-.4.1-.3-.14.25-.16.3zm.3-1.65c.1 0 .1-.1 0-.21 0 .11-.1.21 0 .21zm.3-1.75c.1 0 0-.21-.1-.1l.1.1zm0-1.03c0 .1.1.1.1.1 0-.1-.1-.1-.1-.1zm-.1.41v-.21.21zm.1 2.99c0 .31-.14.37.1.62 0-.11-.03-.54-.1-.62 0 .1.1.1 0 0zm-.2-1.34c-.35-.44 0 .03 0 0zm.1-2.99c.05 0-.03.58-.1.72.45-.16.46-.34.1-.72-.1 0 .1.1 0 0zm.19 1.75zm.21 2.89c0 .1-.2.21 0 .31-.1-.21 0-.21 0-.31zm.1-6.71c.1-.2-.3-.47-.3.1 0-.54.3.15.3-.1zm-.4 1.96c.1-.1.1-.21.1-.21s-.1.11-.1.21zm.2 6.3c.1 0 0-.1 0-.21v.21zm-.6.31c-.1 0-.1.1-.1.21.1-.11.2-.21.1-.21zm.1-.72c-.14.45.21.44 0 0zm.5-.52v-.21c-.1.11 0 .21 0 .21zm-.4-2.58s.4-.52-.1-.52l.1.52zm1.79-10.53v.1-.1zm0-.31c-.1.1-.1.21-.1.31.1-.1.2-.2.1-.31zm-1.29 6.3c-.13.41-.26.83-.4 1.24.08-.01.15.03.2.1.06-.27.39-1.13.2-1.34-.1.52.19.21 0 0zm1.68-9.39zm.3-6.71c0-.35-.05-.06 0 0zm-.1 1.86l-.4-.1c.01.57.43.1.4.1zm-.49 3.82s-.3-.45-.3.52c.07-.01.3-1.06.3-.52zm-1.59 18.88c-.1 0-.1.11 0 0zm.2.11c-.21-.5-.28-1.01-.2-1.55l-.3.1c0 .56.23-.04.3 0-.13.26-.34 1.45.2 1.45-.3-.52-.1 0 0 0zm-.6-2.28v-.62c-.06-.06-.2.32-.2.21-.07.24 0 .37.2.41-.1-.2-.3.11 0 0zm.6-2.27c0-.1-.1-.1-.1-.1s.1.21.1.1zm.19 1.45c0-.19-.19-.3-.3-.41-.12.39-.13.45-.1.82l.4-.41zm-.29-.93c.1-.11.4-.42.2-.62-.02.38-.12.41-.3.1-.03.19 0 .36.1.52.1-.1 0-.21 0 0zm-.2 1.44c.2.17.13.07.3.41 0-.25-.3-.92-.3-.41zm.79-18.37c.1.64-.38 1.38-.1 1.96.34-.69.28-1.74.1-1.96zm.1-.82c.1-.31.2-.62.1-.93l-.1.93zm.1 4.75l.2-.31c-.1 0-.3.2-.2.31zm.3-7.02v-.1c-.1-.01-.1-.01 0 .1zm-.2.82c0 .11-.1 0 0 0zm-.2 1.86c.1 0 0-.21 0-.21-.1.01 0 .11 0 .21zm0 6.4v.1-.1zm.3-9.5h.1-.1zm0 .42c-.1.21-.1.52-.1.82.1-.2.1-.51.1-.82zm.1-.21c-.1-.1-.1.1 0 0zm-.8 13.11l-.1-.1c-.09 0 .01.2.1.1zm.11.51c0-.1-.1 0-.1 0-.01.11.1.11.1 0zm-.11-1.44zm.11.62c0-.3-.25.25 0 0 0-.1-.11.1 0 0zm.29-.41c-.07-.09-.09-.47-.2-.62-.27.35-.23.66.1.93-.28-.5.02-.22.1-.31zm0-3.31c-.1.1 0 .1 0 .1.1.01.1.01 0-.1zm-.1.93c.1.28-.15.29-.1.52.58-.6.1-.29.1-.52zm.3 3.72c.1 0 .1-.1 0-.1 0-.01-.1-.01 0 .1zm.4-7.95zm-.1-12.59l-.1.52c.23 0 .19-.42.1-.52zm.1-.21c-.1-.1-.1.1 0 .21 0-.1-.1-.21 0-.21zm0 4.65v.21c.1-.11.1-.11 0-.21zm0 .31c.1-.11 0-.11 0 0zm-1.09 9.49c.1-.55.18-1.17.1-1.65-.09.5-.2 1.16-.1 1.65zm.2-1.85c-.1 0-.1.1 0 .21 0-.01.09-.11 0-.21zm-.2 1.85c-.1.21-.1.52-.1.83.19-.21.1-.52.1-.83zm-.2 2.07c.1-.21.1-.41.1-.72-.1.1-.2.41-.1.72zm.1-.93c-.01 0 0-.64 0 0zm1.68-33.75c.1 0 .1-.1 0-.21v.21zm-.39 29.52c.1-.21 0-.21 0-.31v.31zm.1 0zm-.4 2.68c.2 0 0-.1 0 0zm.3-.62c-.13-.27-.22-.44-.4-.62.07-.13 0 .99 0 1.03.14-.28.24-.28.3 0-.22-.34-.19-.48.1-.41-.1-.21-.1.1 0 0zm0-1.86v-.1c0-.1-.1.1 0 .1zm.1-1.44v.21c.2-.11.1-.21 0-.21zm-1.49 5.47c-.1 0 0 .1 0 .21.1-.01.1-.11 0-.21zm.99-3.72c.1 0 .1-.1 0-.21v.21zm.6-1.44c-.1-.11-.1.1 0 0zm6.26-59.45v.1-.1zm0 .41c-.1-.1-.1 0 0 0zm0-3.92c0 .21-.1.41 0 .62.09-.1.09-.31 0-.62zm0 6.3c-.05.37-.21.61-.1.93.13-.3.16-.61.1-.93zm.39-7.74c-.1-.11-.1 0 0 0zm.1-.32c0-.57-.12-.29 0 0zm-.2.73l-.1.21c.1.1.1-.11.1-.21zm-.1.41c0 .21-.2.31-.1.52.2 0 .2-.31.1-.52zm-.79 9.91v-.21c-.1.11-.1.21 0 .21zm.2-6.3v.52c.1-.1-.1-.31 0-.52zm-.3 4.85c-.1 0 0 .1 0 .1v-.1zm0-.1l.1-.31c-.1.1-.2.1-.1.31zm.3-5.26c-.1 0-.1.21 0 .21v-.21zm-.3 10.32c.21-.29.17-.46-.1-.52-.25.41-.21.59.1.52zm.7-5.27c-.02.04-.39.44-.3.93.13-.3.23-.61.3-.93zm-.3.93c-.07.07-.4 1.71-.4 1.86.25-.26.6-1.65.4-1.86-.1.11.1.11 0 0zm-.6 5.68zm0 .21c0 .1-.1-.11 0 0zm.5-3.2c.07-.34-.03-.55-.3-.62-.04.59-.06 1.11 0 1.65.39-.13.49-.48.3-1.03-.1-.21-.1.2 0 0zm1.39-6.2c-.18.18-.44 1.65 0 1.65 0-.39.32-1.31 0-1.65-.1.11.1.11 0 0zm-.4-7.53c-.1 0 0 .1 0 0zm.4 6.81c0 .36.2.38 0 0zm-.1-2.89c-.1 0-.1.21-.1.31.2 0 .1-.21.1-.31zm.89-.31c-.08.22-.3.45-.3.83.25-.22.35-.5.3-.83zm-.49 2.99zm.39-1.96c-.17.08-.31 0 0 0zm-.79-.1c0-.64-.12.12 0 0 0-.1-.1.1 0 0zm.6 1.45c-.12-.35.17-.67 0-1.03-.16.32-.21.8-.3 1.14.43.43-.08-.11.3-.11zm-.5-2.69c-.1.1-.1.21 0 .31 0-.1.1-.21 0-.31zm-.6 3.2c-.1.1-.1.41 0 .52.1-.11.1-.31 0-.52zm0 .72s0 .1-.1.1c0 .11.1.01.1-.1zm-.3 1.55zm.1-.31c0-.1-.1-.21-.1-.1 0 .1 0 .21.1.1zm.3-1.96c.25-.26.44-1.5.3-1.96-.13.25-.64 1.6-.3 1.96.1-.1-.2-.2 0 0zm-.2.93c.4 0-.46.48 0 0-.1 0-.1.1 0 0zm-3.77 30.96c-.13.14.33.71 0 0-.1.11.1.21 0 0zm-.2 1.24c.1 0 0-.1 0 0zm.1-.41c-.1 0 0 .1 0 .21v-.21zm-1.29 11.56c-.45.16-.52.57-.2 1.24.29-.27.41-.81.2-1.24zm.2-.72c-.1 0 0 .1 0 .1.1 0 0-.1 0-.1zm2.48-15.38c.02 0-.17-.32 0 0zm0-3.41c0 .67-.82 1.95-.82 2.79 0 .58-.03 2-.27 1.75.02 0 .53.51.7.52-.11.19-.18.4-.2.62.85-.87-.93 0-.5-.1-.08 0-.04-.38-.1-.52-.08.2-.11.41-.1.62-.08-.09.51.42.5.41 0-.16-.2.81-.2.72-.07.07-.52-.52-.2-.52.1.24.23.27.4.1 0-.65-.5 0-.5-.41 0 .54-.24.46-.1 1.03.03.05.33-.2.1-.21.36.19.36.38.8.62.64-1.95 1.16-6.02.49-7.42zm-.5 4.23l.1.21c-.1.1-.2-.21-.1-.21zm0 .62zm.3-1.86c0 .75-.2-.77-.2-.82l.2.82zm-.3 4.75c-.41.28-.33.86-.6 1.13.08.01.15-.03.2-.1v.31c-.13-.14-.26-.14-.4 0 .48.5.39.39.6.83.49 0 .05-2.96.2-2.17zm-.29 1.34c-.09-.27-.05-.59.1-.72.01.25-.02.49-.1.72-.1-.31 0-.2 0 0zm-1.69 7.33c-.17.88-.5 1.73-.5 2.58.16-.33.92-2.28.5-2.58-.11.52.29.21 0 0zm-1.1 18.68c-.1-.1-.1 0 0 0zm.2-2.16c0 .1-.1.21 0 .31 0-.11.1-.21 0-.31zm0-5.58c.07-.27.27-.64.2-1.03-.6.31.13.89-.2 1.24v-.1c-.05.1-.5 1-.5.83 0 .05-.07.93.3.93.08-.17.69-1.62.2-1.87zm.3-3.3c.03-.03-.67.05-.39.35.17.18-.06-.21.29-.16.07.01.24 1.28-.4.63-.09.2.26.59.3.62.26-.28.23-.96.2-1.44zm0-1.24c.1-.1-.23 1.37-.4 1.03.33-.35.32.22.4.31.15-.29.39-1.14 0-1.34zm.5 2.38v-.1.1zm-.4 4.33v-.21c-.1 0 0 .11 0 .21zm-.4 2.89h.1c0-.1-.1 0-.1 0zm4.47-44.48c-.1 0 0 .1 0 0zm.2-10.22zm.1 2.27c-.1.1-.2.1-.1.21.1 0 .2-.11.1-.21zm-.2 14.76c-.14-.3-.28 0 0 0zm0-13.01c0-.1-.1 0 0 0zm.2-5.36c-.1.1 0 .1.1.21.1-.01 0-.21-.1-.21zm-2.18 25.49l.2-.21c-.11-.2-.2 0-.2.21zm2.28-26.32c-.1.1-.1.21 0 .31 0-.21.1-.21 0-.31zm-.99 17.75c0 .11.1.11 0 0zm0-.31zm-.3 4.34c.1 0 0-.21 0-.31-.2 0 0 .21 0 .31zm-1.29 7.64c-.43.43.46 0 0 0-.1.1.1 0 0 0zm2.08-22.81c-.1 0 0 .1 0 .21.1-.11.1-.21 0-.21zm0 5.88zm.7-13.31c-.1.21-.1.31-.1.41.2 0 .2-.21.1-.41zm-.9 15.17c.1-.1.1-.21.1-.41-.1.2-.1.3-.1.41zm.2-6.71c-.1 0 0 .1 0 0zm-1.59 5.06c0 .1-.1.1 0 .21.1-.11 0-.21 0-.21zm-.1.92l.1.62c.03-.1.34-1.71-.2-1.14.18.17.21.34.1.52 0 .21.2.11 0 0zm-.39 3.93c0-.11.1.1 0 0zm.59-5.16c-.1 0 0 .1 0 .1v-.1zm-1.39 13.21zm.2 1.24c-.1-.1-.1-.21-.3-.1.1-.01.1.1.3.1zm.2-6.2c.17-.18.33-.2.5-.41-.26.01-.42.15-.5.41.1-.1.1-.2 0 0zm1.29-21.46c-.1 0 0 .1 0 0zm-.2 12.79c0-.1.1-.21 0-.41-.1.1-.1.31 0 .41zm.2-21.77c.1 0 .1-.1.1-.21-.2.1-.2.21-.1.21zm.1 10.01c-.1 0-.1.1 0 .21v-.21zm.1-11.25c.36-.38 0-.37 0 0zm0-1.14c0-.1-.1-.1 0 0-.1 0 0 .11 0 0zm0 2.69zm-.3 28.69c.1-.1 0-.1 0-.1v.1zm-1.69 9.18c.05-.32.2-.55.2-.93-.21.19-.45.67-.2.93zm1.79-27.97c-.1 0 0 .1 0 .21.1.1.1-.1 0-.21zm-2.18 39.95c0-.11-.1 0 0 0zm-.1.41c.08-.47-.16-.16 0 0zm.1 1.96c.1 0 0-.1 0-.1-.1 0 0 .1 0 .1zm0-2.58c0-.31.4-.62.1-.93-.1.31-.3.62-.1.93zm.19-.21c-.09-.1-.19 0 0 0zm0-1.54c-.06.35-.22.53-.1.83.18-.27.21-.55.1-.83zm.1-4.24c.13-.15.16-.33.1-.52h-.3l.2.52zm-.1 10.32c-.1 0 0 .1 0 .21.1 0 .1-.21 0-.21zm.1-12.28zm-.19 13.42c-.2.1.19.1 0 0zm0-.62v.1c.09.11.09 0 0-.1zm0 1.24c-.1 0-.1.1 0 .21v-.21zm-.1.52v.21c0-.11.1-.21 0-.21zm2.48-38.4l-.1-.21s0 .31.1.21zm0-.62c.1 0 0-.21-.1-.21 0 .01.1.11.1.21zm0-.62v.21c0-.1.1-.1 0-.21zm-2.68 31.89c-.1 0-.1.1 0 .21-.1-.1 0-.21 0-.21zm2.68-42.1c-.1 0 0 .1 0 .21.1-.01.1-.11 0-.21zm.1 9.9c.1-.1.1-.1 0-.21 0 .01-.1.11 0 .21zm-.1-9.18zm.1-9.5c.1-.1 0-.21-.1-.41 0 .21-.1.31.1.41zm-.3 30.76zm.1-2.06zm.1 2.16c-.1 0-.1.1-.1.1.1.11.2.01.1-.1zm-.1-2.27l.1-.52c-.08.08-.21.41-.1.52.1-.2-.2-.2 0 0zm.2-7.43c0-.1-.2-.1-.2 0h.2zm-.1-.93c-.1.1-.2.31-.1.52.1-.1.1-.31.1-.52zm-.2 1.76c.1.1.2 0 .1-.1 0 .1-.1.1-.1.1zm.1-10.43l.1-.93c-.32 0-.1.78-.1.93zm0 15.48c0 .49.26-.01.3-.1-.17-.5-.12.04-.3.1zm0 4.03c-.03 0 .08.73.1.93.34-.55-.1-.66-.1-.93-.1 0 0 .1 0 0zm.2-2.99c0 .1.1 0 0 0zm-.2 5.78c-.1.1.1 0 0 0zm-.2.92v-.62c-.18.37 0 .6 0 .62zm.5-6.08c.19-.13.16-.31-.1-.52l.1.52zm0 .3v.21-.21zm.1 1.55v.21c.1 0 .1-.1 0-.21zm0-.62v-.21c-.1.01 0 .11 0 .21zm-.5 3.51v.21c.1 0 0-.1 0-.21zm.4-17.44c-.1-.21-.1 0 0 0zm-.1-13.62zm-.1 32.09c0 .1-.1.1 0 .21v-.21zm.2-18.68zm-.2-14.55c-.1-.1-.1 0-.1 0h.1zm-.1 31.07c-.15.21-.15.41 0 .62.09-.22.07-.39 0-.62-.1.2.1.31 0 0zm-.1 2.47zm.4-9.7c0-.1-.1-.21-.1-.21l.1.21zm-.2-23.53l-.1.1c0 .11.2 0 .1-.1zm-1.19 27.87v-.1c-.2-.01-.1.1 0 .1zm-3.58 50.67c.1 0 0-.1 0-.21-.1.11 0 .21 0 .21zm.6-4.75h-.1.1zm-.1.52c.07-.44 0-.52 0 0zm.2-6.09c-.13-.25-.56 0 0 0zm-.2-.31c.01-.11.46-.62 0-.62-.2.21 0 .62 0 .62zm.1 2.79c0-.11.1 0 0 0zm-.3 2.47c-.57.22-.62 1.67-.3 2.38.14-.73.02-1.79.3-2.38zm0 3.31v-.1c-.1 0 0 .1 0 .1zm.1-.73c-.1 0 0 .11 0 0zm0-13.31c.1.21.1.1 0 0zm.1-.72zm.2 3.71zm.09.93v-.21c-.09.11 0 .11 0 .21zm0-.72zm0 7.02c-.09-.1-.09 0 0 0zm-.19-6.19c0-.1.1-.1 0-.21-.1.1-.1.21 0 .21zm-.1.2v-.1.1zm.1 1.34v-.1.1zm.19-1.34v-.1c-.09 0 0 .1 0 .1zm-1.58 13.94v.21-.21zm.59-4.44c-.06.29-.25.36-.1.62.16-.23.08-.5.1-.62zm-.39-5.16c0 .1.1.1.1.1l-.1-.1zm.29 9.39l-.1-.21c0 .11 0 .31.1.21zm.1-3.3c-.37-.39-.37.04-.2.3.11.17-.02-.3.2-.3-.1-.11-.1 0 0 0zm-.1 2.16s.1.1.1.21c.1-.1 0-.1-.1-.21zm-.49.62c-.18.07-.25.2-.2.41.1-.06.16-.02.2.1.05-.16.05-.33 0-.51-.11 0-.1.11 0 0zm.49 1.66c-.46.14 0 .21 0 0zm.1-.42c-.47 0 .09-.09 0 0-.1 0-.1.11 0 0zm-.3-.93zm.4-.51l-.1.1c-.1.21.2.1.1-.1zm-.6-.21c0 .1-.1.21 0 .41.11-.2.11-.41 0-.41zm.7.31l-.1-.21c-.1.11.1.11.1.21zm-.59.52c-.11 0-.11.1 0 0zm1.68-22.5c0 .1-.1.21-.1.41.1-.21.2-.21.1-.41zm-.1 3.4v.1c.1.01.1.01 0-.1zm.1-.51c.1-.11 0-.11 0 0zm0 .1l-.1-.2c0 .1 0 .3.1.2zm-.1-2.06c0-.1.1-.1 0-.21v.21zm.3-.73c.3-.21.2-.52.1-.93l-.1.93zm-.1-.51c.1 0 .1-.1 0-.21-.1.1-.1.21 0 .21zm0-.11v-.21.21zm.8-4.02c-.1 0 0 .1 0 0zm0 .41c-.1.1-.1.1 0 .21 0-.1.1-.1 0-.21zm.1-.62c0 .21.1.11 0 0zm-.1 8.16c-.1 0-.1.1 0 .1v-.1zm-.4 4.43c0-.1-.1.1-.1.1 0-.1 0-.1.1-.1zm0 1.86c-.1 0 0 .11 0 0zm0-2.47c-.1 0 0 .1 0 .21v-.21zm-.5-4.03c0 .1-.1 0 0 0zm.1 7.43c-.1-.1 0 .1 0 0zm.4-19.3c-.27.04.21 1.24.14-.12l-.04-.92c-.11.12-.24.9-.1 1.04zm-.5 8.36c-.1 0 0 .1 0 .21.1 0 .1-.11 0-.21zm1.1-4.54l-.1-.1c-.1 0 .1.2.1.1zm-.5 1.34s.15-.46.1-.62c-.18.76-.3 1.29-.3 2.06.18-.46.25-.94.2-1.44zm-.79 4.96l.1-.21c-.1-.1-.1.1-.1.21zm.29 9.49c-.1 0 0 .21 0 0zm-.2 3.92c0-.1-.09 0 0 0zm.2-15.79c.07 0 .25-.31.4-.31.05.24.05.48 0 .72.28 0 .26-1.13.1-1.13.13.8-.33-.45-.3-.41-.06.38-.13.75-.2 1.13.1 0 .1-.31 0 0zm-.1 12.49c0 .1-.1.21 0 .21s0-.11 0-.21zm.6-23.74c0 .1.1.1.1.1 0-.1 0-.1-.1-.1zm.1 6.09h.1-.1zm0-4.75c0 .1-.1.21 0 .31v-.31zm-.3 2.79c-.1.1-.1.31 0 .41 0-.1.1-.2 0-.41zm.4 6.4c.1-.21 0-.51-.1-.62-.1.1.1.52.1.62zm0-5.47c-.1.1 0 .31.1.21 0-.11-.1-.21-.1-.21zm-.2-4.13c0-.1-.1-.1-.1-.1s.1.2.1.1zm.1.72c-.1.1 0 .31.1.31 0-.1-.1-.31-.1-.31zm-3.18 42.63h-.1c0 .1.1.1.1 0zm5.56-17.65c.1 0 0-.1 0 0zm.1.62c0 .1-.1.21 0 .31 0-.11.1-.21 0-.31zm-.2-1.55c0 .21 0 .21.1.1 0-.1 0-.1-.1-.1zm.2-.31zm.8-4.85c-.06.14-.18 1.24-.3 1.75.14-.57.24-1.16.3-1.75zm-.3 2.27c0 .92-.2.11-.2-.1-.25.26-.08.72-.1.62.23.12-.05 1.65-.1 1.96.27-.83.26-1.6.4-2.48zm-.3 3.1c-.01.16-.31.71-.1.93.26-.14.1-.74.1-.93zm.3-3.2c.1-.1.1-.21.1-.41-.1.1-.2.2-.1.41zm-.5-1.76zm.1-1.03c.52-.28 0-.38 0 0zm.2-.93c0 .54.11.12 0 0zm-.2 4.85v-.1c-.1 0 0 .1 0 .1zm-.1 3.31v-.1.1zm1-9.5l-.2 1.45c.24 0 .12-1.68.2-1.45 0 .31.1.31 0 0zm-.8 7.95c-.1.1-.1.1 0 .1v-.1zm.2-3.41v-.1c-.1 0-.1.1 0 .1zm-.5-.2c.2-.31.2-.62 0-.93-.14.14-.07.76 0 .93.1-.31-.1-.21 0 0zm0-1.76c0 .1-.1.21 0 .31.01 0 .05.04.3 0v-.41c-.27-.29-.36.44-.1.21-.2.1-.1-.11-.2-.11 0 .1.1 0 0 0zm.4 1.34c-.1.1-.1.21 0 .31.1 0 .1-.2 0-.31zm1.69-15.07c-.1 0-.1.21 0 .31.1 0 0-.1 0-.31zm2.09-29.31c.22-.12 0-.08 0 0zm.19-1.34v-.1.1zm-.19-.41c0-.1.1-.1 0-.21 0 0-.1.1 0 .21zm0 2.06c0 .1-.1.31 0 .41.1-.1.1-.3 0-.41zm-.1 1.45l-.1-.1.1.1zm0 .72c-.1.1-.1.21-.1.31.1-.1.1-.21.1-.31zm-.2.62v.21c.1-.11.1-.21 0-.21zm.3-1.86v.1-.1zm0-.41c-.1.1-.1.21 0 .31.1-.11.1-.31 0-.31zm.29-3.1v.21c.1-.11 0-.21 0-.21zm-1.59 23.74c-.26 0 0 .81 0 0zm-.29-2.06v1.75c.13-.14.47-2.24 0-1.75zm-.1 3.81l.1-.31c-.1-.1-.1.21-.1.31zm-.5 6.51c0 .21-.1.31 0 .41.2-.1 0-.31 0-.41zm-1.89 16.92c0 .1 0 .21.1.21s0-.1-.1-.21zm3.18-36.12c-.08.69-.11 1.37-.1 2.06.19-.19.22-2.06.1-2.06zm1.19-12.49c-.1 0-.1-.1 0 0-.1 0 0 .1 0 0zm-1.49 16.62v1.24c.15-.42.15-.83 0-1.24zm.9-10.94v-.1.1zm-2.29 28.17c0 .34.05.17 0 0zm0 .62zm0-.41c-.1 0-.1.1 0 .21.1 0 0-.11 0-.21zm-.69 7.74c.1-.1 0-.21 0-.21v.21zm0-4.75l.1.62c.06-.23.02-.43-.1-.62zm.1 3.72v.21c.1 0 0-.21 0-.21zm1.09-19.92zm-.2 1.34zm.3-1.86c.1-.1 0-.21 0-.41-.1.1-.1.31 0 .41zm0 .42c.03-.04-.14-.56 0 0zm-.99 17.85c-.1 0 0 .1 0 .1v-.1zm-.1 1.45v.52c.16-.12.02-.27 0-.52zm0-4.54c.1 0 0-.11 0 0zm.1 3.51c-.2.21-.2.62 0 .83-.1-.22.09-.42 0-.83zm0-.83c0 .1 0 .1.1.21.09 0-.01-.11-.1-.21zm.99-12.39c.1-.1 0-.1 0-.21-.1.11 0 .21 0 .21zm-.99 8.98c-.26-.07-.33.07-.2.41.22-.04.29-.18.2-.41-.1 0 .09.21 0 0zm-.3 2.17c-.1 0 0 .1 0 0zm.2-2.58v-.1.1zm.19 3.82c.1-.1 0-.21 0-.31-.09 0 0 .21 0 .31zm-.69 4.13c0-.1-.1-.21-.2-.31 0 .1.2.31.2.31zm.1-3.82c0-.1-.1-.1-.1-.1-.1-.11 0 .2.1.1zm.59-1.03c-.1.11 0 .21 0 .41.1-.1 0-.31 0-.41zm-.29-4.44c.1-.1 0-.1 0-.21v.21zm.1-.72c-.1-.11 0 .1 0 0zm-.2.82l.3.52c.32-.4.32-.71 0-.93.04.33-.14.24-.3.41 0 .21.1-.1 0 0zm-.5 8.46zm.1.93l-.1-.1s0 .21.1.1zm.1.42c-.1 0 0 .1 0 0zm-.2-1.86v.21c.1 0 0-.11 0-.21zm1.79-12.9l.1.1c.1 0 0-.21-.1-.1zm.1-4.65v-.21.21zm-.7 6.2l.1-.52c-.14.17-.1.29-.1.52zm.7-.93c-.1.1 0 .1 0 .21v-.21zm-.2-1.45zm.1-.51zm.1 1.65s.1-.1 0-.21c-.1 0-.1.1 0 .21zm-.1-9.19c.1-.11.17-.58.1-.72-.18.2-.1.61-.1.72.1-.1 0-.1 0 0zm-1.69 18.68v.1-.1zm-7.15 44.59v.21c.1-.01.1-.11 0-.21zm-.1 3.2c-.43-.38-.07 0 0 0zm.2-10.22c.1-.1 0-.21-.1-.31l.1.31zm0 2.99c-.28 0 .02.73.1.83.05-.69.05-1.38 0-2.06-.24.24-.26.91-.1 1.23zm0 5.47c.1-.1 0-.1 0-.21v.21zm0-7.43l.1-.93c-.14.22-.23.66-.1.93.09-.31-.1-.2 0 0zm.39 6.81l-.1-.1c0 .1 0 .21.1.1zm-.2-5.78c-.1 0 .2.11 0 0zm0 4.13c-.05.16 0 1.45.1 1.55.19-.2-.21-1.78-.1-1.55-.1.31.2.41 0 0zm-.1 2.69c0-.2.01-.37-.2-.21.18.39.25.46.2.21 0-.11.2.41 0 0zm.3-.62c.1 0 0-.1-.1-.21 0 .1 0 .21.1.21zm-.39-8.57c.05 0 .02-1.02-.1-1.14 0 .4-.04.72.1 1.14zm0-1.24c.1-.1.1-.21.1-.41-.2.21-.1.31-.1.41zm.19 11.46c.1-.1 0-.31 0-.41-.18.09 0 .45 0 .41.1-.1 0-.1 0 0zm-.29.1c.1 0 0-.21 0-.21-.1.11 0 .21 0 .21zm0-10.52c-.1-.11-.1 0 0 0zm.19-2.59c-.09-.1-.09.11 0 0zm.14 9.24zm-.14-9.65c.1-.1 0-.21 0-.31-.09 0 0 .21 0 .31zm-.09.21c.1-.1.1-.1 0-.21.09.1 0 .1 0 .21zm.09 4.95v-.62c-.08.08-.44.62 0 .62zm-.99-6.6c0 .2.1.1 0 0zm0-3.31s0 .1-.1.1c.1.11.3-.1.1-.1zm-.2-.82c0-.04-.06.21.1.21 0-.11 0-.21-.1-.21 0 .1.1 0 0 0zm.3.31s-.1-.1-.1 0h.1zm-.1 4.13c-.02.11 0 .41 0 0zm-.1-2.69c.29.18.53.11.3-.62-.08 0-.06.54-.3.62zm.8 18.58zm.79 4.64c0-.1 0-.31-.1-.31 0 .11 0 .21.1.31zm-1.19-25.38c-.1.1-.1.21 0 .31v-.31zm-.3 5.26c.1 0 0-.1 0-.21-.1.11-.1.21 0 .21zm.1-2.99c-.23.24-.31 2.17 0 2.17.12-.13.19-2.08 0-2.17zm.3 13.82c-.2-.1-.1.11 0 0zm.1 1.97c-.4-.41-.04.03 0 0zm-.7-17.24c-.1.1 0 .21 0 .31.1-.1.1-.21 0-.31zm1.1 6.5v-.93c-.11.4 0 .61 0 .93.09-.2 0-.1 0 0zm-.2 11.56c-.34-.06-.24.25 0 0zm-.5-2.06c-.04.37.03.71.2 1.03.1-.45-.13-.77-.2-1.03zm.3-2.38c-.1-.1-.1 0 0 0zm.49-.2c.08.41.13.83.2 1.24 0-.32.14-2.02-.1-2.27-.12.33-.15.68-.1 1.03zm-.89-13.94c-.1 0 0 .21.1.1l-.1-.1zm.1.62c-.1 0-.2.21-.2.31.2 0 .3-.2.2-.31zm.1-1.23v.1c.1 0 0-.1 0-.1zm-.1 16.2c-.1 0 0 .1 0 0zm3.68-20.13c.1-.1 0-.21-.1-.1l.1.1zm0-.92c0-.1-.1 0-.1 0 .1.1.1.1.1 0zm.1-1.66c-.1 0 0 .21 0 0zm0 .62zm.2-.31c-.11 0 0 .11 0 0zm1.09-6.29c-.1 0-.1.21 0 .21.1-.01.1-.11 0-.21zm-1 4.33c.1 0 .1-.1 0-.21v.21zm-.39 4.23c-.43 0 0 .59 0 0-.1 0 0 .11 0 0zm-.3 1.04c.1 0 .1-.21 0-.21v.21zm.2-1.66c-.1 0 0 .21.1.1l-.1-.1zm8.04-53.97c0-.12-.27 0 0 0 0-.11-.09 0 0 0zm-.39-8.78v.1-.1zm-.1.11c0-.21.1-.31 0-.52.1.21-.1.41 0 .52zm-9.94 82.36s0 .1-.1.1c.1.1.2-.1.1-.1zm10.04-78.44c0-.1-.1-.1-.1-.1s0 .2.1.1zm-.1 3.82c-.13-.46-.06 0 0 0zm0-.52v.1-.1zm-4.57 33.03s0-.1-.1-.21c.1.11.1.21.1.21zm-4.57 36.23c.1-.21 0-.1 0-.21-.1 0-.1.1 0 .21zm-.6 7.43v-.21.21zm0 .92v.1-.1zm.7-8.56v-.1c-.2-.01-.1-.01 0 .1zm9.04-72.66c0-.1.1.1 0 0zm-9.94 79.68v-.1.1zm-.1-1.14zm4.47-36.53c-.09.1 0 .1 0 0zm-2.38 13.1v-.1c-.1 0-.1.1 0 .1zm1.69-6.19v-.21c-.1 0 0 .11 0 .21zm.6-4.64c-.1 0 0 .1 0 .21.19-.11.09-.21 0-.21zm-3.38 28.79c-.2-.1-.1.1 0 0zm.29-8.05v.1-.1zm-.29 8.57c-.24-.34-.06.05 0 0zm0 .72c0-.1-.1-.21-.1-.21 0 .11 0 .31.1.21zm-.1-.62c-.1.1-.1.31 0 .21.1 0 0-.11 0-.21zm5.86-34.16c.15-.22-.07-.07 0 0zm1.79-24.26v-.1s-.1.1 0 .1zm0 8.78c-.1.21-.2.41-.1.62 0-.21.2-.31.1-.62zm.2-12.39c.1-.1.1-.21 0-.31-.1.11-.1.21 0 .31zm-.2 11.97c-.1.1 0 .21 0 .31 0-.1.1-.2 0-.31zm.1-1.34c-.1.1-.1.1 0 .21.1 0 .1 0 0-.21zm-.1-11.35c0 .1-.1-.1 0 0zm0-2.48c.1 0 .1-.1 0 0zm.1 3.72c.2-.1 0-.31 0-.52v.52zm0-2.27c-.1 0 0 .1 0 0zm-.1.51v-.1.1zm.2 11.56c0 .1-.1.1 0 .21v-.21zm.69-25.18c.1 0 .1-.1 0 0zm-.1 15.69c-.1.1 0 .31 0 .41 0-.1.1-.31 0-.41zm.5-12.59s-.2.1-.2.21c.1.1.2-.11.2-.21zm-.2-3c.1 0 0-.1 0 0zm-.3 16c-.2.31-.09 1.08 0 1.34v-1.34zm-.3 4.64c-.09 0-.09.11 0 0zm-.09.73v.31c.09 0 0-.11 0-.31zm.19-2.48c0 .1-.1.31 0 .41-.1 0 .1-.31 0-.41zm0 .72c-.04.28-.16.68-.1 1.03.04-.34.07-.68.1-1.03zm-.39 4.75c0 .1-.1.31 0 .41.1 0 .1-.31 0-.41zm0-3.51c-.1.1 0 .1 0 0zm0-6.6l.1.1c.1 0 0-.1-.1-.1zm-.2 9.28c-.1-.1 0 .11 0 0zm-.9 14.56l-.1-.21c-.1.1 0 .31.1.21zm1-11.77c-.1 0 0 .11 0 0zm.2-12.38c.08-.09-.11-.36 0 0zm-.3 8.25c-.08.29-.04.57.1.83 0-.21.24-.83-.1-.83zm.59-13c0 .1-.1-.1 0 0zm-.39-1.45l.2-.1c-.2-.1-.2.1-.2.1zm.2 3.51c0 .1.1-.1.1-.1-.1 0-.1.1-.1.1zm0-3.71c0 .1.19.1 0 0zm-.2 11.97s.1.21.1.1c0-.1 0-.1-.1-.1zm0-6.4l.2.31c.09-.21-.1-.31-.2-.31zm.1 6.19c.1-.1.1-.21 0-.31-.1.11-.1.31 0 .31zm0-6.4c.1-.1-.1 0 0 0zm0 6.82c-.1.21-.2.41 0 .52.1-.21 0-.32 0-.52zm.89-20.13c-.1 0 0 .1 0 .21.1-.11.1-.21 0-.21zm-1.09 16.62c0 .63.02.17 0 0zm0 5.78c.09-.58-.16-.32 0 0zm.99-13.63s-.1.1 0 .1v-.1zm.1 2.79c-.1-.1-.1.1 0 0zm-3.78 41.9c.1-.1.1-.21.1-.31-.19.11-.1.21-.1.31zm3.68-54.18c.1 0 .1-.11 0 0zm-1.39 15.89v.21c.1 0 0-.1 0-.21zm1.39-3.82c.1.1.1 0 .2-.1-.2-.1-.2 0-.2.1zm.1-.72c-.1 0 0 .1 0 0zm.1 2.99c-.1-.1 0 .11 0 0zm.1-4.54zm.69-2.16c.1-.1.1-.21 0-.41-.1.09-.1.2 0 .41zm-1.49 16.71zm1.49-23.01c0-.1.1-.21 0-.21v.21zm.21 4.03c.1-.1.1-.21 0-.31 0 .1-.11.2 0 .31zm.19-13.42c0-.1-.1-.1-.1-.1 0 .1.1.2.1.1zm-5.66 61.51zm.2.31v.21c.1-.11 0-.21 0-.21zm0 .62c-.32 0-.16.64-.1.83.34-.25.1-.35.1-.83-.1 0 0 .21 0 0zm.1 2.79c.1-.1 0-.21 0-.31-.1-.01 0 .2 0 .31zm0-.42c0-.34-.04-.42 0 0zm3.77-51.6c0-.1.1-.21 0-.31-.1.1 0 .2 0 .31zm.4-4.65c-.1.1 0 .1 0 .1.1.01.1-.1 0-.1zm0-.2c0-.1-.1-.1-.1-.1s.1.2.1.1zm-.2 4.74c0 .21-.2.31-.1.52.1-.2.2-.31.1-.52zm.2-3.09v.21c.1-.11.1-.11 0-.21zm-.7 14.35zm.8-7.02v-.1c-.1-.01-.1-.01 0 .1zm-.2 1.65c0-.1.1-.1 0-.21v.21zm-.1 1.86c0 .1.1 0 0 0zm.2-5.48c.1-.1-.1-.21 0-.21-.1-.09-.1.11 0 .21zm0-.41c0-.1.1-.21 0-.31 0 .11-.1.21 0 .31zm0 3.51c0-.1-.1-.21 0-.21-.1.01-.1.42 0 .21zm-.4.93c.1 0 0-.1 0-.21v.21zm.1 2.17c0 .31-.1.52 0 .83 0-.21.1-.52 0-.83zm0-.31c-.1 0 0 .1 0 .21.2 0 0-.21 0-.21zm0-.1c.1 0 .1-.1.1-.1 0-.11-.1-.01-.1.1zm0-10.53c0 .1-.1.21 0 .21 0-.11.1-.11 0-.21zm.2 6.29zm-.1-7.12zm-.1 1.45zm-.69 11.35c-.1.1-.1.1-.1.21.1 0 .2-.11.1-.21zm-.8 6.4c.26 0-.23.25 0 0 .1 0 .2-.21 0 0zm.2 2.17c-.1-.11-.1 0 0 0zm0 .72c-.1-.1-.1 0 0 0zm-.5.62c0 .1.1 0 .2 0-.1-.11-.2-.11-.2 0zm.1 1.65c.39.4.1.12 0 0zm.3-1.34c0 .1-.1.1 0 .21.1-.01.1-.11 0-.21zm0-.21v.1c.1 0 0-.1 0-.1zm.1 8.46v.21-.21zm-.5-5.26v.1c.1 0 .1-.1 0-.1zm-.39 5.78l.1-.1c-.01-.21-.2-.11-.1.1zm.09 1.03v-.1.1zm0-3.51c.1.1.1-.1.1-.1-.1-.1-.1.1-.1.1zm-.39 7.64zm0 .21zm.59-8.16c-.2 0-.1.11 0 0zm-.69 10.94c0-.21.1-.41 0-.62-.2.11-.1.42 0 .62zm.79-11.66c.1 0 0-.1 0-.21v.21zm-.2 2.48c.73-.75-.34 0 0 0 .1-.11-.1 0 0 0zm.3-1.65c.13-.02-.29 0 0 0zm.3-5.78c-.1 0-.1.1 0 .1v-.1zm-.4 4.75zm-.1 7.12c0 .1.1 0 0 0zm0 2.68v.21c.1-.11.1-.21 0-.21zm0-2.27c-.1 0 0 .21 0 0zm.2-1.76v-.1c-.1 0-.1.1 0 .1zm-.1-.3c0-.1.1-.1 0-.21 0 .1-.1.1 0 .21zm.1-.52v.21c.1-.11 0-.21 0-.21zm-.2-1.34c.1 0 .1-.1 0-.21-.1.1-.1.1 0 .21zm-.1 4.85v.31c.1-.11 0-.21 0-.31zm0-.52l.1.1c0 .01-.1-.2-.1-.1zm.1-4.85c.1-.1-.1-.21-.1-.21-.1.01.1.01.1.21zm.3-5.26c.2.1.1-.11 0 0zm.2 3.82c-.1 0 0 .1 0 0zm-.3 2.89zm.2-1.97c0 .21-.1.31 0 .52.1-.2 0-.41 0-.52zm0-5.57c0-.1 0-.21-.1-.31 0 .11 0 .31.1.31zm0 1.14c.1 0 0-.1 0-.21 0 .1-.1.1 0 .21zm.1 4.02c0-.28-.21-.43 0 0 0-.1-.1-.2 0 0zm-.3 1.96c0 .1-.1.1 0 .21.1 0 .1-.1 0-.21zm0-.41c0 .1 0 .31.1.31s0-.21-.1-.31zm.2-.21zm-.1-.41c0 .63.03.14 0 0zm1.29-27.25v-.21c-.1.01 0 .11 0 .21zm-1.29 30.66c.1-.21.1-.52.1-.72-.1.1-.2.51-.1.72zm0 .31c-.1.1-.1.21 0 .31.1 0 0-.21 0-.31zm.1-1.45c.1-.21.1-.41.1-.62-.2-.1-.1.52-.1.62zm.2-2.58c-.1.21-.1.21-.1.31.2.1.2-.2.1-.31zm.1-.1c0-.84-.06-.19 0 0zm-.5 5.06zm.1-.62c-.1 0 0 .1 0 .21.1-.01 0-.11 0-.21zm-.1 1.34v.21-.21zm.6-7.12c-.21.16-.24.41-.1.72.22-.23.26-.47.1-.72zm-.6 6.81c-.1.1-.1.1 0 .21.1 0 .1-.11 0-.21zm.7-12.08c-.1-.1-.2 0-.1.1l.1-.1zm.5-7.74c.1-.31.1-.62 0-.93-.12.13 0 .76 0 .93.09-.31 0-.2 0 0zm.19-3.2l-.1-.21c0 .11.1.32.1.21zm-.1 1.35c.02 0-.11-.76 0 0zm-.69 9.9v.21-.21zm.89-17.85c0-.1-.1-.21-.1-.1l.1.1zm-.89 21.47c.1 0 0-.21 0-.31 0 .1-.1.2 0 .31zm.1.2v.21-.21zm-.8 8.77c-.1 0 0 .1 0 .21.1 0 .1-.21 0-.21zm0 1.14c-.12.68-.18 1.37-.2 2.07.37-.39.25-1.55.2-2.07zm-.69 5.26c-.23-.53-.09 0 0 0zm-.4-1.34c.1 0 0-.1 0 0zm.2 0c-.1-.1-.1 0 0 0zm.1 2.58c-.34-.35-.13 0 0 0zm0-.93c-.16.38-.13.55.1.52l-.1-.52c-.1.11 0 .11 0 0zm-.2 1.03c0-.1 0-.1-.1-.2 0 .1.1.2.1.2zm.2-4.74c0 .1-.1.1-.2.21.1.3.2-.11.2-.21zm.79-2.27v.21c.1-.11 0-.21 0-.21zm-1.09 3.61zm-6.26 49.44c-.2-.11-.1 0 0 0zm6.36-50.16c.1 0 .1-.1 0-.1v.1zm.6.62c-.1.1 0 .21.1.1l-.1-.1zm.19-.93c0 .31-.2.52 0 .72v-.72zm-.59-2.07v-.1.1zm.49 3.31c.01.23 0 .56 0 0zm-.39 1.34zm0-.73c0 .21-.2.52 0 .72 0-.3.1-.51 0-.72zm.3-.1c-.1 0 0 .1 0 0zm0 .21c-.1 0-.1.1 0 .21.09-.11 0-.21 0-.21zm-2.09-50.88l.1-.21c-.1-.1-.1.1-.1.21zm-.99 81.22v-.31c-.1.1 0 .21 0 .31zm0-.52c-.1.1 0 .21 0 .21.1-.1 0-.21 0-.21zm-.2 8.88c0 .1-.1.1 0 .21v-.21zm.3-9.29c-.14.48.1.21 0 0zm-.1 1.55c0-.44-.02-.23 0 0zm-.3 2.37c-.1 0 0 .21.1.1l-.1-.1zm.3-2.06v.21c.1 0 0-.11 0-.21zm0 .52c.1-.1 0-.21 0-.31-.1.1 0 .2 0 .31zm-.2 15.48c-.1.1 0 .21 0 .21.1-.01 0-.11 0-.21zm-.1-.62zm-.1-10.12c.1 0 0-.21 0-.21-.1.01-.1.21 0 .21zm.4 5.16c0-.41 0-.72-.1-1.13 0 .41 0 .72.1 1.13zm-.2 5.37v.11-.11zm.2-.21l-.2-1.44c-.6 0 .2 1.39.2 1.44zm-.3-9.59c-.1-.11-.1.1 0 0zm0 1.03v.31c.1-.11 0-.21 0-.31zm-.1-1.45c.1 0 0-.1 0-.21-.1.11 0 .11 0 .21zm.1.11c-.1-.1-.1 0-.1 0 0 .1 0 .1.1 0zm.69-13.94c0 .21-.1.41 0 .62.1-.1.1-.41 0-.62zm-2.58-46.96c0 .21 0 .1.1.1l-.1-.1zm1.69 68.95c0 .1-.1 0 0 0zm0 .31v.21c.1-.01.1-.11 0-.21zm.3-18.17c0 .1.1.1.1.1 0-.1 0-.2-.1-.1zm.79-6.09c-.1.31-.2.83-.1 1.14.1-.41.3-.73.1-1.14zm-1.49-48.3c0 .1-.1.1 0 .21v-.21zm1.49 76.99zm1.49-113.42c.1 0 0-.1 0-.21-.1.1 0 .21 0 .21zm-1.89 88.76c.08.86-.1-1.07-.1-.72v.52c.59-.23.1.05.1.2zm-.09-1.24c-.17.12-.17.29 0 .52v-.52zm0 3.61c0 .32-.14.48 0 .83.12-.32-.01-.56 0-.83zm0 15.59c.09 0 0-.11 0 0zm.09.41c.1-.1 0-.21 0-.31-.09 0-.09.1 0 .31zm1.79-105.58l.1-.21s-.1.1-.1.21zm-1.98 110.33v.1-.1zm.29-24.46c-.09.09 0 .5 0 0-.1.1 0 .1 0 0zm.1.72c.1-.1 0-.1-.1-.31-.1.1.1.2.1.31zm.2 24.97c-.2-.1-.1.11 0 0zm-2.68-74.31c.25.39-.11-.15 0 0zm3.28 43.35v.52c.25-.13 0-.43 0-.52-.1.11 0 .11 0 0zm-3.28-42.93v.1-.1zm.5-5.27c.1-.1.1-.1 0-.21-.1.01 0 .11 0 .21zm0-.31c.08-.08-.11-.35 0 0zm7.05 10.53c.1-.1 0-.1 0-.21-.1 0-.1.11 0 .21zm-4.27 37.36v.52c.1-.16.16-.13.2.1.29-.57-.06-.34-.2-.62zm4.97-51.81c0-.3-.1-.23-.1-.41-.25 2.56-.74 5.84-.9 7.53.22.23-.03 3.01-.3 3.2.01-.09.2 2.59.2 1.24.25 1.02-.43 1.82-.2 2.79.42-.44.12.58.12 1.34 0 .81-.96 3.21-.62 3.92.29-.22.07-.08.4-.21-.26.65.22 3.18-.1 3.51-.38.4-.4 2.96-.4 3.97 0 1.49-.28 4.43-.5 6.35-.07.67-.85 4.27-.89 4.23.18-.3.29-.13.3-.62.45.24-.33 4.85-.45 5.21-.32 1-.25 1.62-.25 2.48 0 .22-.42.22-.4.16-.49.51 0 2.21 0 .83.05.48.05.96 0 1.44.11-.26.18-.54.2-.83.21.22.09 2.69-.2 2.99l.1-1.76c-.32 0-.3 1.05-.3 1.24-.46 0 .36-1.03-.4-1.03-.2-.41.37-1.49.1-2.06-.1.17-.17.13-.2-.1.08 0-.37.21-.6.21.07-.15.3-1.07.3-1.24-.33-.09-.07.09-.4-.1.4-.42.42-1.15.9-1.65.06-.27-.04-.3-.3-.1 0-.76 1.42-.97.3-1.55 0-.71.21-1.45.1-2.17-.2-.21-.29-1.08-.1-1.86 0 .01.79-1.54.79-1.75.03.05-.61.09-.7.1.18-.28.7-1.21.6-1.55-.2-.07-.26 0-.2.21-.39 0-.2-1.05-.2-1.13l.1.31c.4-.42.35-1.24.1-1.65.65-.82-.87-3.01.4-4.33-.45-.46 1.06-6.3.6-6.3.1-3.84.51-8.03.6-12.8.32-.33.29-6.09.7-6.09.3-2.36.7-5.14.99-7.33.25-1.91.59-5.82.59-7.95-.66-2.75 1.96-5.52 1.19-8.67-1.02.71-.73 4.44-.99 5.37 0-.07-.79 1.28-.69 1.2-.71.56.04 2.08.1 2.21 0 .51-1.3 1.32-.8 2.37 0 1.05-.27 1.11-.27 2.1 0 1.91-1.65 5.05-.72 6.98.17-.02.27-.12.3-.31-.07.34-.79 1.87-.4 2.27.16-.5.13-1 .4-1.55.38 0-.59 3.31-.59 3.2.3 0-.12 3.1-.5 3.1.24.19.38.12.4-.21-.02 0-.3 1.16-.3 1.34 0-.24.18-.51.3-.72-.19 1.12-.83 2.83-.3 3.92-.85 2.1-.7 6.09-.7 8.57-.24 2.43-.5 4.89-.5 7.22-.55.56-.7 3.78-.7 4.89 0 3.04-.5 5.3-.79 8.53-.29 3.26-1.09 6.67-1.09 9.6-.8.84.43 3.23-.69 3.82.41.43-.55 3.39-.82 2.78-.63-1.42.61-3.81.62-5.56.08.15.18.15.3 0-.17-.05-.16-.08-.4-.1l.1-.31c-.03.27.1-.73 0-1.03l.2.21v-.31c0 .01.13-5.06.4-5.06.24-1.78.97-4.88.5-6.81.83 0 1.11-7.67 1.18-8.3.1-.91.02-8.59.91-9.05-.27-.28-.1-.59-.1-.62 0-.67.14-.95-.1-1.45 0 1.69-.88 4.18-.79 6.4.22.24.19-.56.2-.62.28.85-.45 2.04-.6 2.89v3.82c-.26.39-.39 1.42-.4 1.45.09.09-.4.91-.3 1.24-.01-.19.1-.25.2-.31 0 .61-.67 1.99-.29 2.38v-.31c.75.77-2.36 15.89-2.18 15.89v-.52c.71.59-.6 5.08-.4 6.19-.65.34-.08-1.47-.2-1.65-.59.62-.57 2.68-.4 3.2 0-1.07.15-.8.2-1.45.19 0-.56 10.48-.5 11.87-.09-.38-.02-.72.2-1.03 0 .39.26 3.3-.3 3.3-.6-1.24 0-4.28 0-5.68v-1.34l-.1-.52c.06.17.03.24-.1.2 0-.05-.08-.54-.06-.54-.4 0-.47 2.26-.54 2.5.02-.32-.01-.63-.1-.93-.55.57.03 3.85-.1 4.64-.02 1.69.17 3.39.2 5.16 0 .79.36 8.05-.1 8.05-.05-.59-.08-1.5-.3-2.06-.2.45-.16.65.1.62.03.8.05 2.47.5 2.89-.06-.06-.09.95-.1 1.03-.06-.19.01-.29.2-.31l.3 1.44c-2.77 2.16-2.34-8.62-2.39-8.67-.08-.2-.11-.41-.1-.62l-.2.21c.39-1.94-.22-4.2-.11-6.77.1-2.33.1-6.78-.68-8.71v.21c.13 0 .4-1.84.4-2.07-.14 0 .42.42.3.31.21-2.01.79-5.76.79-8.46-.4.41.1-1.55.1-1.45-.18-.09.15-.77.2-.82-.42-.44.48-3.04.2-4.34.49-1.39.52-2.45.75-4.08.14-1.04-.01-2.34.05-2.84.46-.16.79-3.63.79-4.34-.35-.05.11.53-.4 0 0-.33.25-.12.1-.52.09.05.19.08.3.1-.15-.23-.2-1.24 0-1.45.48.51.31-.01.52-1.04.17-.83.02-1.89.25-2.71.27-.97.63-3.1.42-3.99l-.2.21c-.23-.73-.13-2.34.1-3.1.03.18.02.56.1.72-.05-.41.2-.82-.2-.82 0-1.25.7-3.33.99-3.61.15-.81.7-4.33.4-4.65-.3 0-.78 4.38-.8 4.65-1.13-1.78 1.65-5.65.5-7.43.72-1.51.6-4.72.6-6.5.31-.61 1.32-1 1.87-1.35 1.06-.69.78-2.34.92-3.6.22-2.04 1.33-6.93.64-9.03-.27-.83 1.2-5.13.45-5.52-.89.92.17.21-.4.21 0 .62-.04.37.1.62 0 1.41-.48 3.06-.6 4.03 0 1.18-.22 2.87-.6 3.72.17.17.11 4.13-.49 4.13.12.37.62-.57.3.52-.02.08-.57 1.85-.6 1.75.12.03.19-.04.2-.21.47.32-.17 1.39-.3 1.65.18.31.27.27.3-.1.04 0-.86 2.69-.1 2.69.25.78-.5.3-.5.83l.3-.1c.05.28-.31 1.88-.5 2.17-.37-1-.07-3.81.6-4.95-.21-.03-.35.07-.4.31-.31-.11.75-3.71.6-4.34-.04 0-.62.13-.5 0 .56.59-.24 1.23-.1 1.65.29-.36-.27.48-.4.62.02.02.7-.6.7-.21-.64 1.31-.13 1.88-.99 2.79 0-.65.09-.57.4-1.03-.66-.35-.37-1.58.2-2.17-.8-1.66-.3-3.11-.2-4.95.01-.27.62-5.26.4-5.26 0-1.85 1.71-6.44 1.18-7.53-.16-.34.76-3.54.91-3.61.17-.78-.17-2.62.7-3.51-.24-.25-1.03-2.66-.1-3.61-1.17-.81 1.45-4.89.4-5.99 0 .35-.99 2.03-1.09 2.48 0 .63-.08 1.27-.3 1.96-.29-.56.4-1.56.1-2.17-2.36.82-1.02-2.22-1.49-3.2-.2.4-.38 1.9-.89 2.17-.5-.26.4-3.07.4-3.72-.52.96-1.59 2.96-1.59 3.92-.07-4.53-.41-9.13-.1-13.65.29-4.24-.47-8.06-.06-11.98.17-1.6-.08-3.46-.13-5.12-.33 0 .13-4.41-.2-4.75-.09-3.99-.2-7.59-.2-11.73 0-7.42-.52-14.47-.89-21.92-.33 0-.24-9.56-.2-10.7.03-1 .04-3-.19-4.06-.69 0-1.22-2.65-1.27-3.16-.06-.73-.28-1.78-.92-2.31-.66 1.29-.54 1.39-1.69.56-1.08-.78-1.26-2.18-1.79-2.83-1.23-1.02-3.29-3.47-4.76-3.87-1.04-.29-2.18-.47-3.19-.88-1.74-.7-4.12-1.81-6.56-2.37.14 0-.67.25-.75.41-.3.63-1.66-.14-2.24-.31v.31c-1.56-.46-2.08-.27-2.88-.21-1.21-.42-2.11.67-3.33.8-1.25.13-4.62 1.19-4.62 1.73 0 1.03-4.55 1.34-4.97 2.63-1.11.49-2.47.69-3.67 1.65l-.6-.21-.89.72-.6-.21c-.33.46-1.14.98-1.49 1.24-1.04-.36-2.99.89-3.28 1.34-.48.12-1.73.44-1.99.41-.88.19-1.04.38-2.24.05-2.16-.58-2.44.77-3.63 2.43-5.08-4.75-12.27-4.47-16.4 1.55l.2-.62c-6.41 9.78-5.87 24.25-2.98 35.5l-.2-.72c.13.43.19.9.3 1.34-1.47-2.18-6.56-11.31-10.08-9.61-3.98 1.92-1.45 10.86-.67 13.89 3.17 12.26 7.95 24.28 14.03 35.25l.3-.21c-.01-.02-1.5-2.68-1.29-2.68-5.3-7.81-8.78-19.49-11.57-28.97-.87-2.97-5.19-15.29-.49-16.91 2.82-.98 6.1 4.47 7.59 6.45-.39-.07-.46.21-.2.83.39.14.56 0 .5-.41 2.54 3.77 3.34 7.83 4.88 12.17.69 1.94 1.13 2.73.67 4.42-.37 1.38.5 1.55.81 2.19-.04.04-.58.75-.14.75.36 0 .2-.47.23-.65 0 .82.4.21.8.21-.15 1.06.09 2.5-.3 3.51v-.31c-.27 6.08.63 12.54 2.19 18.37-2.27 0-4.79-7.98-5.99-10.21-.5-.93-2.85-6.73-4.03-5.67-1.13 1.02 6.99 14.18 8.13 16.08l-.6.31c.98-.4 1.27.85 1.79 1.65-1.44-.25-2.17 1.15-2.68-1.14-.4.63.06.98.46 1.7.77 1.43-2.04.08-2.04.36.51.28 1.04.52 1.59.72-3.55 5.53-.56 15.5 1.66 21.11 1.51 3.81 3.38 7.79 5.71 11.13.7 1 1.44 2.63.88 3.78 0-.64-.42.22-.4.21.34.36.93 1.06.88 1.94-.16 2.72.35 3.12-2.37 3.53.74.01 1.47-.1 2.19-.31-.88 8 .51 16.27.05 24.2-.31 5.34-.76 10.7-1.3 16.02-.99 9.81-1.07 19.79-2.15 29.27-1.03 9.05-.96 18.46-1.56 27.68-.21 3.24.14 7.5.78 10.79-.34 0 2.08 8.15 2.08 9.13 0 .68.89 2.7.89 3.97 1.44-.46 1.88 1.29 2.09 2.37.92-.96 1.1-3.06 1.29-4.33.58-.13 1.11-.91 1.39-1.45.2.8.36 2.33.99 2.79-.03-.58.24-1.18.2-1.76.74.61 1.13 1.07.89 2.06l.4.1c-.03-.77.22-.83.3-1.24.68.28.74.27 1.29.42-.05.92-.11 1.02.5 1.65 2.55-5.28.61 3.7 1.69 4.85.67-1.63.93-5.35 3.08-5.27.19.75.2 1.65.59 2.07.43-.6-1.2.14.7-.52-.06.36.13.77.1 1.14.67.03 1.27-.18 1.79-.62.36 1.17-1.2 2.77.1 3.3v-.31c.38 0-.55 6.9-.6 7.22l.4.1c.11-.56 1.34-5.45 1.63-5.44.27 0 1.42-.08 1.55-.13.44 0-.25 2.62.1 2.99.55-1.73.96-2.86 2.39-4.33 0 1.22-.01 1.75 1.19 1.75.16-.82.4-1.55.6-1.96l.6.21c.29-1.17 1.15-1.99 1.19-2.79.94-.39.88 3.13 1.69 2.89.19-1.13 1.15-2.1 1.39-2.79.18 0 .41 1.12.69 1.34-.07-.67.13-1.7.9-1.13.29.21.09 2.22.08 2.5-.06 1.5-1.33 5.2.12 6.17.65-1.36.99-1.12 1.14-2.74.11-1.21-.04-2.28.35-3.36-.03 0 1.49-3.54 1.99-4.13.41 0-.76 2.41-.3 2.89.5-1.3 1.36-4.36 2.48-4.75-.24.06.23.45.2.41.15-.32.32-.63.5-.93.1.94-.17 1.87-.3 2.79.7-.46 4.04-6.24 4.57-5.67-.33 1-.66 2-.99 2.99.73-.11 1.49-.38 1.79-.93.81.33-.97 1.11.79.52-.18.54-.01 1.22-.2 1.75 1.26-.15 2.2-1.86 2.49-2.99 2.37.98 3.85 2.88 3.58 6.3 2.42-1.69.86-4.04 4.37-2.48v-.31c1.11 0 .17 2.96.69 3.51l.3-2.79c2.92 1.24 3.52 6.06 3.38 8.88 1.6-.72 1.27-4.1 1.89-5.16l.59.21c1.86-7.85 1.7-15.18 2.29-23.12-.21 0 .85-16.96.9-19.3.13.62 2.02 7.98 2.68 6.61.56 0 1.36.82 2.19.82 1.72-.7.28-1.42.5-2.99.15 0 .9 1.7 1.19 1.86.11 0-1.64-4.36-1.69-4.64.44-.9-.5-3.62-.5-4.75.41.58.5.55.5 1.34.55-1.17-1.12-6.6-.1-7.12-.35-.18.5-5.13.5-5.06-.02-.18-.12-.28-.3-.31.22-.44.67-4.09.5-4.44-.04.23-.17.3-.4.21.28.29-.07-1.11 0-.82-.06-.3.04-.4.3-.31-.32-.33-.2-.39-.2-1.03.99 2.07.2-1.08.2-1.44l-.4.31c0-.5.17-1.91.4-2.38.08.2.11.41.1.62.23-.24.6-1.13.4-1.45l-.1.31c-.12-.12-.2-1.15-.2-1.34l.2.21c.17-.28.14-.52-.1-.72.33 0 .3.24.3.51.43-.67.1-1.17.1-1.65-.01-.01-.58-1.55-.35-1.61-.26.07-.42 1.43-.55 1.82-.24-.13.39-2.23.31-2.19.05-.02.36.33.58.33.1-.11.11-.61 0-.72-.22.13-.2.24-.5.21.06 0 .41-.24.69-.21-.22-.46-.59.43-.59-.31 0-.27.3-1.39.3-1.86.34.43.27-.07.5.52.2-.43.35-.41.5-.62-.01.48-.32 1.92-.1 2.27l.2-1.03c.39.61-.21 1.33.2 1.75 1.51-4.6 1.17-10.41 1.49-15.27 0-5.25 1.59-10.72 1.59-15.84 0-1.88.35-2.8.4-4.7.03-1.24-.71-3.38-.15-4.54 1.16-2.42 1.14-9.76 1-13.07zm-3.88 31.79c.46.49-.58 0 0 0zm-.79 7.33c.1.1 0 .41-.1.21.1-.11.1-.11.1-.21zm-.2 1.55zm-.1.82c-.04.2.13.36 0 .62-.58 0-.18-.43 0-.62zm-.5 2.27c.1 0 0 .11 0 0zm-.59-9.8c.68 0-.59.6 0 0zm-2.89 20.54v-.1c.1-.01 0 .1 0 .1zm-1.19 9.39c.1.1 0 .1 0 0zm.1 0c-.1-.1 0-.21 0-.31 0 .1.1.2 0 .31zm.3 13.52v-.1.1zm4.57-86.8c0-.1.1-.1.1 0h-.1zm.1 5.37c0 .1-.1-.11 0 0zm-.8 5.16v.1-.1zm-.79-.72c0 .2-.1 0 0 0zm-.7-3.62v.1-.1zm-2.08 30.35c.13-.07.05-.81.14.04-.02.37-.06.36-.14-.04.2-.11.1.1 0 0zm.1-.62c.1 0 .1.1.1.21l-.1-.21zm.1-.21c-.1-.21-.1-.41 0-.52.2.31.09.42 0 .52zm-.5 2.99s.1.1 0 .1c.1-.1 0-.1 0-.1zm-1.69 26.22zm-.5-7.64zm-.3 9.91l.1-.52c.2.14.16.31-.1.52zm-.19-5.89c.1-.1.1 0 .2 0h-.2zm.49 6.1c-.1 0 0-.11 0 0zm-.1-1.76c.07.39.04.77-.1 1.14.02-.89 0-1.12 0-2.07.28.42.12.74.1.93zm0-6.81c.12.28.19.89.2.82-.03.98.32 3.59-.3 4.44-.22-1.19-.11-3.01.3-4.13.05-.05-.41.21-.4.21-.05-.76.3-1.6.3-1.96-.03-.03-.74.08 0-.31.3.59-.07.84-.1.93zm.2-.83v-.1c.1 0 .1.1 0 .1zm-.1-3.82zm.5.42c-.1.1-.1 0-.2-.21.1 0 .1.1.2.21zm-.2.41l.1-.1c.1.1-.1.2-.1.1zm.1 10.63l.1.1c-.1.11-.2 0-.1-.1zm0-.1c.02-.44.19-.2 0 0zm.2-15.59zm.89-5.88c.63 0-.1-.2 0 0 .2 0 .1.21 0 0zm.6-4.33c.1.1.1.21.1.31-.2.2-.3-.21-.1-.31zm.1-.31zm.59-1.66c.05.21.05.41 0 .62-.73.77-.2-1.5-.2-1.34-.03-.01.3.55.3.1.31.32.1.36-.1.62zm.6 3.1c.08.09-.1.35 0 0zm.2-10.11c0-.1-.1-.1 0-.21.1.21.1.21 0 .21zm.2 6.91v-.21c0 .11.1.21 0 .21zm.1-8.98c.06-.06-.92 3.61-.6 3.61.01-.02-.21 2.59-.6 2.79-.07-1.99-.11-5.98.89-8.05.33.17-.25 1.6-.2 1.65.11-.1.51-.08.51 0zm0-7.74c-.02.04-.16.48 0 .72.25-.13-.68-.72 0-.72zm-.3 1.34c.38-.11 0 .03 0 0zm.1.31s-.1 0-.1-.1c.1 0 .2.1.1.1zm.7 1.34c0-.02-.32 2.27-.2 2.27.1-.24-.19.63-.4.52.24-.75.04-1.75.5-1.75-.48-.5-.06-.88-.4-1.24.18-.37.13-.16.4-.21-.09-.18.03-.9.2-.72-.01.4-.24.71-.1 1.13zm.29 8.26c0 .21-.2.41-.1.62-.19-.1-.1-.52.1-.62zm.6-6.91zm0-.21c-.2-.1-.2-.41 0-.52.2.11.1.42 0 .52zm.1-1.34c.08.2.11.41.1.62-.41 0-.31-.4-.1-.62zm-.5-9.6c.13-.27.03-.48.3-.62-.05.29-.02.57.1.83-.16-.03-.23.07-.2.31.17.17-.2-.87-.2-.52.1-.21 0 .1 0 0zm.4.83c-1.65 1.76.66 5.64-1.19 7.53 0-1.01 0-2.68.4-3.51-.21-.63.65-4.17.79-4.02zm-1-2.38c0-.51.42-.14.2.31l-.2-.31c0-.1-.09.11 0 0zm.2-.41c0-.74.14-.05 0 0zm0-.62c0 .06-.41-1.55.2-.93-.02.32-.2.58-.2.93zm0-2.06c-.34.33-.31 0 0 0zm-.2.51c.22.19.35.16.4-.1.35.72-.8.53-.4.1.11.11-.09.11 0 0zm-.29 5.06s0 .1-.1.1c-.1-.2 0-.2.1-.1zm-.1.31c0 .02.69-3.08.69-2.38-.03.04-.59 1.86-.39 1.86 0 .01.3-.68.3-.31-.3.61-.59 1.89-.59 2.27.57.88-.51 2.69-.1 3.92-.41 0-.63-2.13-.3-2.48.51-.23-.6-1.86.39-2.88zm-.2-42.11v-.21c-.1.11-.1.21 0 .21zm-68.66-12.08c-.66-2.4.02-5.07.5-7.43.8 2.68-.57 6.26.3 8.88-.39-.41-.65-.89-.8-1.45-.6-2.16.1.62 0 0zm-2.19-17.33c.18-.07.28-.21.3-.41-.55-.01-.17.16-.3.41-1.02-2.12-1.39-2.36-.5-4.23.18-.75.21-1.5.6-2.06 0 .85-.88 1.88-.1 2.79.63.73.76.74 1.69.1.61.49.67 1.77.89 2.48.25 1.86.18 4.54-.2 6.4-.92-1.78-1.43-3.77-2.38-5.48.2 0 .4.72 0 0zm2.19-19.82c.01-.01-.59.38-.7.52 0-.52.1-.4.1-.83l-.3.1c.4-.6.67-1.31.3-1.96 1.45-.21 1.23 1.59.99 2.58.03-.5-.1-.63-.39-.41zm.4 54.49c-.18-.13.91.56.99.93-.15-.1-.89-.71-.99-.93zm.99-4.75c.07.4.39.32 0 .72-.21-.57-.38-1.16-.5-1.75l.5 1.03zm-.1-1.85l-.5-.93c.37.24.54.55.5.93zm-.5 1.96c.16.67.23.62.1.93-.4-.69-.68-.87-.6-1.75.17.27.34.54.5.82.2.82-.09-.21 0 0zm.2 2.27c.58.01.67.98.5 1.86-.2-.53-.44-1.43-.5-1.86zm0-9.5c0 1.51.06 2.76.29 4.23-1.11-1.09-.7-2.91-.29-4.23zm-.99 2.27c-.08-.66-.86-.03.1-1.03l-.1 1.03zm.4 6.2c.03.25.18.26 0 .52v-.52zm.39 1.55c.11.58.31 1.14.6 1.65-.87-.35-.81-.76-.6-1.65.1.51-.09.41 0 0zm-.19-35.71c.08-.36 0-.22 0 0zm.39 24.97zm-.69.62c-.12.85-.06.29-.79 1.44-.55-.7-.14-1.44.79-1.44zm-.9 3.51c.31 1.27.62 1.87.4 3.2-.98-1.52-1.55-1.84-.7-3.61l.3.41zm-2.28-33.54c.31-.39.55-.08.7.93-.43.3-.67 0-.7-.93zm3.28 28.79c-2.21 1.53-1.76-.09-2.38-2.48 1.76.21 2.84.55 2.38 2.48-.3.21.1-.41 0 0zm-2.39 2.17c-.39.43-.75.87-1.09 1.34l-1.19-1.96c.79.12 1.85-.27 2.28.62-.39.41-.1-.21 0 0zm.4.72c.7 1.12.1 1.44-.1 2.68-.82-1.14-.92-1.61.1-2.68zm-.3 3.2c-.19 1.29-.21 2.63 0 3.92-1.49-1.77-1.8-3.25-.99-5.47.36.5.69 1.01.99 1.55-.2 1.34-.3-.51 0 0zm.3.52c1.24 1.99 1.29 2.76 1.29 5.16-1.21-1.21-1.51-3.46-1.29-5.16zm1.99 7.22c1.24.59.66 1.21.2 2.17-.07-.72-.14-1.45-.2-2.17zm1.19 1.45c.56 2.35.35 5.81.2 8.67-.54-2.8-1.87-6.07-.2-8.67zm.4 9.18v.1-.1zm-11.13-65.33c-1.95 0-2.59-17.54-2.51-19.81.23-5.87 1.45-13.49 6.37-17.07 3.22-2.34 13.61-2.91 12.88 2.47-.07.54-.81 1.73-1.14 2.53-.46 0-.99 3-.99 3.82-.9 0-2.04-1.5-3.22-1.25-.07.01-5.14 2.17-4.53 2.8 0 1.17-1.09 2.87-1.09 4.23-.49-.1.51 3.91.7 3.72 0-.42-.96 1.06.1.52 0 1.13 1.53.58 1.09 1.96.53.73.54-.12 1.09 1.03.56-.02.86 1.07 1.79.62-.38 2.72-.8 5.78-.8 8.46-.15-.12-1.28-.63-1.49-.52.58-.6.02-1.19-.2-1.75-1.36 0 .63 2.4-.79 3.51-.9-.89-.71.1-1.49-.31.01.33-.07 1.21-.4 1.55-.84-.88-2.77-.21-3.48-.21-.57 1.76-1.88 4.07-.3 5.68.87 1.33 3.19 2.32 4.27 1.75-.06.32-.1.92-.1 1.24.75 0 .38-.93 1.09-.93.48.99.31 1.63 1.14 2.5.85.88 1.5.09 1.84 1.11.46 1.38-1.18 4.26-.69 5.26.84.29.63 1.82.1 2.37 0-1.07-.05-2.68-1.49-2.68-.94.5-.62-.38-.8-.93-.2-.07-.26 0-.2.21-.65-1.73-.75-2.58 0-4.13.37-1.57-.25-3.55-1.99-1.75.05-.23-.01-.4-.2-.52-.16.11-.15 1.55-.5 1.55-.08-.03.42-.11.4-.1.02.31 0 .84 0 1.14-1.24-2.75-3.73-5.06-4.46-8.07zm7.85-2.78c.18.11.23-.38.23-.08-.01.27-.23.92-.23.08zm0 .61c-.21.21-.3.2-.3.52-.37 0 .12-.7.3-.52zm-1.09-1.54c-.2.2-.05-.05 0 0zm-.4 6.29c-.2.27-.37.3-.5.1.19-.45.36-.48.5-.1-.2 0 .1-.51 0 0zm-2.19 5.58c0 .16.23.83.4.83-1.4-.48.2 1.71.2.52.52 1.31-.37 1.5-.9 2.58.01-.42-.5-2.22-.5-1.34-1.06-2.8-1.96-5.68-2.78-8.57 1.26 1.94 2.42 3.96 3.58 5.98zm.7 15.79v-3.06c0-1.27-.09-.15.51-.83.55-.62-.13-1.73-.41-.86 0-.83.13-1.66.2-2.48.05.63.12.72.1 1.24.22.04.32-.07.3-.31 1.01 2.27 4.87 7.48 3.78 9.91-.5-1.03-.91.73-.1.31-.28 1.2-.9 2.97-.71 4.24.31 1.99-.93 4.52 1 6.29.29.22.3-.27.3.62-1.22-.7-2.52-.33-2.9-1.77-.2-.75-.4-1.5-.57-2.26-.84-3.57-1.21-7.35-1.5-11.04zm1.69 14.55c.22 1.04.52 2.07.79 3.1-.59-1-1.08-2.05-1.59-3.1h.8c.2.93-.3-.11 0 0zm-8.05-12.59c1.21 2.32 2.44 4.55 3.58 6.92-1.29-2.26-2.49-4.56-3.58-6.92zm7.45 14.65c.07.12.51.68.2.52.21.25.38.62.5.93-.94 0-2.02.34-2.38-.83.52-.31 1.08-.52 1.68-.62zm-1.99.93c.31.38.3.5-.05.36-.56-.11 0-.09.05-.36zm7.16 33.23c.18-.07.28-.01.2-.31-2.53-.83-5.5-9.27-6.58-12.16-1.46-3.95-2.48-7.94-2.58-12.18-.07-2.97.62-11.78 3.69-5.38-1.55 1.62-.73 4.63.42 6.18 2.06 2.77 2.88 3.5 2.26 7.34v-.41c-.07.76-.27 1.49-.6 2.17.66.45 1.49.54 1.49-.52.43 2.91 2.2 7.03 1.94 9.7-.17 1.72.46 4.51-.05 6.09l-.19-.52zm63.19 87.22v.1-.1zm.2 2.27v.21-.21zm.1 1.24zm1.89-7.85c-.16-1.04-.17-2.21-.5-2.89 0 0 .33-.51.3-.51.27.42.32.66.37 1.33.04.42.09 2.89-.17 2.07zm.59.1c0-.31-.2-.83.1-1.14.1.52.2.94-.1 1.14zm.4-15.07v-.2c.1.1.1.1 0 .2zm2.29 5.17c-.1 0-.2.1-.2 0h.2zm-.1 2.58c-.14.46-.06 0 0 0zm.2-4.75v.1-.1zm.59-6.61c.09.1-.11.63 0 0zm-.99 1.34c.1 0 .1.21 0 .21-.1-.1-.1-.21 0-.21zm-.4 16.52v.1-.1zm0-11.77c0 .11-.1.11 0 0zm0-6.19s.1.1 0 .1v-.1zm.1 5.47zm0-1.03c.34-.11.08.08 0 0zm.1-.62c-.12 0-.04-.38 0 0zm0-.93c-.1-.31-.1-.62.1-.83.4.31-.1.52-.1.83zm.2-.83c-.11-.68.13-.13 0 0zm.89-8.36v.52c-.04-.33.08-.93 0-.52zm.4-.72c-.75.39-.19-.62 0-.62.1.18.15.46 0 .62zm.6 2.69c-.1-.21 0-.21 0-.41.1.2 0 .3 0 .41zm.59-4.34c-.15.15-.2.43-.2.62-.08-.24-.48-1.24 0-1.24.18.13-.12.54.3.1-.12.17-.15.34-.1.52zm3.28-38.08c-.01-.29.11 0 0 0zm-6.86-2.58zm-.09.31c0-.58-.02-.02 0 0zm-.4 2.68v-.1c-.1.1 0 .1 0 .1zm.1.31c.1-.1-.1-.1-.1-.21-.1.11.1.11.1.21zm-1.99 75.03v.41c.1-.2.1-.31 0-.41zm2.09-75.96c-.01 0-.1-.3-.1-.41-.04.26.1.25.1.41.1 0 0-.21 0 0zm.1-1.65c-.1-.1-.1 0 0 0zm-.2 2.79c.1 0 .1-.1.1-.21-.1 0-.1.1-.1.21zm-.1 0v-.1c0-.01-.1-.01 0 .1zm.1.1zm.1-1.96v.21c.2-.01.1-.31 0-.21zm2.88 46.75c0 .1.1.1.2 0-.1-.1-.1 0-.2 0zm-.1-1.24c-.19.27-.19.47 0 .62.29-.34 0-.67 0-.62zm0 2.48c-.1.1-.1.21 0 .31.1 0 0-.21 0-.31zm0-.41c-.1.1 0 .1 0 0zm-.1-1.34v.52c.16-.21.03-.28 0-.52zm.6-1.45c-.2.1-.4.52-.1.72.1-.2.1-.51.1-.72zm-.7 1.96c-.1.1-.1.21 0 .31.1 0 .1-.21 0-.31zm-.4 30.03c-.15-.71-.25-1.44-.3-2.17-.22.71.1 1.53.3 2.17-.1-.72-.1-.3 0 0zm-.39-.1c-.1-.1 0-.1 0-.21-.2.11-.1.31 0 .21zm.39-33.23c.1-.1.2-.31.1-.41-.2 0-.2.2-.1.41zm.2 2.99c.19-.21.22-.46.1-.72.03.25-.01.49-.1.72.1-.2-.1-.2 0 0zm.6-1.75c-.54-.56-.01.53-.2.72.18-.2.25-.44.2-.72zm-.4-.42c0 .1.1.21.2.1-.1-.1 0-.1-.2-.1zm.3-1.96c-.04.05 0 .52 0 0zm-.1 1.96c.2-.21.2-.93.2-1.13-.27.34-.33.72-.2 1.13.1-.1-.1-.41 0 0zm.1-1.23c.14-.39 0-.53 0 0zm-.4-.42c-.2.32-.17.56.1.72.19-.4-.07-.53-.1-.72zm0 2.89c0 .18.2-.47.2-.62-.28.15-.2.32-.2.62zm-.1-1.75v.21c.1-.01.1-.21 0-.21zm0-.1c.56 0-.62-.65 0 0zm-.59 32.51zm1.39-96.81c-.33-.55-.04.04 0 0zm-1.89 8.05zm1.69-11.77v.21c.1-.11 0-.11 0-.21zm-1.69 13.83v.41c.05 0 0-.41 0-.41zm0 .41c-.1 0 0 .11 0 0zm1.69-17.34c-.1-.1 0 .11 0 0zm-.6 13.01zm.2-2.69c-.12.4.03 0 0 0zm.1-1.13c0 .1.1.1 0 0zm-.2 2.89zm1.39-14.14v.1c.1 0 0-.1 0-.1zm-1.09 6.5v.21s.1-.1 0-.21zm.2 4.34l-.1-.21c-.1.1 0 .31.1.21zm-2.49 23.43c-.2-.11-.09 0 0 0zm2.39-28.49zm-.9 27.35c-.09 0 0 .1 0 0zm-1.39-10.42c.1 0 .1-.11 0 0zm-2.88 76.78l-.2-.52c.02.57-.04 1.47.2 1.96.05-.2-.12-1.44 0-1.44zm.2 6.61v-.31c-.1.1 0 .21 0 .31zm-.6-4.34c.12-.36.09-.71-.1-1.03-.02.02 0 .6 0 .62 0-.78-.01 1.08 0 1.34.23.24.33 3.08.4 3.51 0-1.61-.49-3.28-.5-5.06.51 0 .5 3.33.69 3.92.01-.41-.01-3.3-.49-3.3zm2.98-79.88zm.6-2.99c.1.1.1 0 0 0zm.1.82c-.1 0 0 .11 0 0zm0-.93c0 .1.1.1.1 0h-.1zm-.1.62c0-.1-.1 0 0 0zm0 1.97c-.1-.11-.2 0 0 0zm-.4-.11c.1 0 0-.1 0-.21-.09.11-.09.11 0 .21zm.2.41c.1-.35-.08-.08 0 0zm0 .11v-.21c-.1.1 0 .21 0 .21zm1.89-6.2c-.1 0-.1.1-.1.21.1 0 .2-.1.1-.21zm-.79 4.96c-.1 0 0 .1 0 0zm.19-6.3c-.49.51.07.15 0 0-.1.11.1.21 0 0zm-.29 1.24c.07-.23.09-.77.2-.83-.11-.11-.3 2.46-.3 2.68-.03 0-.2-.55-.2-.41-.1.42.5.74.5 1.03.26-.26-.15-2.35-.2-2.47zm.2 4.23c-.1 0 0 .1 0 .21.09 0 .09-.1 0-.21zm0-2.68v.1-.1zm0 1.65v.1c.09.11.09 0 0-.1zm.09-2.06c-.19-.11-.09.1 0 0zm-.39 1.65zm.1 3.1c.1.1.2-.1.2-.1.09-.11-.2-.01-.2.1zm1.88-22.82v.1c.1.01 0-.1 0-.1zm.2 3.1v-.1.1zm-1.39 15.38s-.1.1-.1.21c.1-.11.2-.11.1-.21zm-.2-1.03c.12.22.09 0 0 0zm.6-4.03c-.29.35-.07 0 0 0zm-.5 3.61zm1.1-12.69c-.1.1 0 .1 0 0zm-1.4 14.35c.04-.02.29.18.2-.31-.15.08-.15.28-.2.31zm.3-6.51s0 .1-.1.1c.1.11.1.01.1-.1zm-.1.73zm0 5.16c-.01 0 .14.58 0 0zm-.1-2.27c0-.31.25-1.18 0-1.44-.62.63-.39 1.02 0 1.44 0-.11-.1-.11 0 0zm0 3.4c-.1 0 0 .1 0 0zm.1 0c.3-.31-.36-.19 0 0 .1-.1-.2-.1 0 0zm.1-7.33c.04 0 0 .24 0 0-.1 0 0 .11 0 0zm-.2 1.04c-.1 0 0 .1 0 .21v-.21zm-.1 1.23c.1-.21.1-.52.3-.62-.3-.2-.39.42-.3.62zm.5.83c.2-.1.1-.31 0 0zm0-4.44c-.1 0 0 .11 0 0zm0 1.96c-.1.11-.1 0 0 0zm0 3zm-77.3 16.92c.15.32-.29-1.84.2-.1-.6-4.52 1.9-8.06 6.06-9.08-4.17.44-7.08 4.93-6.26 9.18.3.62-.9-4.64 0 0zm7.25-37.67c-.2-.1-.4-.31-.6-.52l.6.52zm-7.75-15.69c-.92.25-1.4.7-.99 1.55.16-.28 1.27-1.25.99-1.55zm1.29-.62c-.81 0-1.07.21-.79.62.26-.2.53-.41.79-.62-.3.11-.3.21 0 0zm.2-18.99v-.62.62zm-5.07-43.55c-.1.21-.1.52-.1.62.9.62.9-1.24.1-.62zm-.2 18.27c.1-.1 0-.21 0-.21v.21zm-3.27 22.09c0-.21-.1-.21-.2-.21 0 .1.1.21.2.21zm0-8.16c.09-.39 0-.19 0 0zm-.3-7.63c-.2.52.7.72.6 0-.11-.11-.5-.32-.6 0zm2.28 26.72c-.19.27-.13.44.2.52.18-.21.12-.38-.2-.52 0 .11.1.11 0 0zm3.68 6.71c.27 0 0-.31 0 0 .1 0 0-.1 0 0zm-.8-14.45c-.3 0-.36.16-.3.41.33.1.43-.04.3-.41-.19 0 .2.31 0 0zm-4.47-14.13c-.11.11.26.48 0 0zm7.16-30.45c-.46 0-.71-.14-.4.62.22-.14.36-.35.4-.62-.1 0 0 .31 0 0zm.2 1.86c.09-.25.03-.42-.2-.52-.66.69.03.29.2.52zm-.8.2c.49-1.02-.73 0 0 0zm0 3.31l.3.93c.49-.85.72-1.06.7-.62.51-.96-.75-.49-1-.31-.1.41.3-.21 0 0zm1.19 5.26c.6.52.5-1.03 0-.31-.1.1 0 .1 0 .31zm-3.87-10.94c-.71-2.05-.56.87 0 0zm.59 3.61c-.39-.41 0 .72 0 0-.09-.1 0 .11 0 0zm-.09-5.57c.1-.1 0-.21-.1-.21 0 .11.1.21.1.21zm.39 15.69c-.1.31.3.52.3.1 0-.1-.1-.21-.3-.1zm1.79-13.94c-.25-1.01-.75-1.08-1.39-.41-.21 1.1 1.02 1.77 1.39.41-.1-.41-.2.73 0 0zm-1.59 8.05c-.1-.41-.5-.41-.6-.21-.09.52.5.63.6.21zm-3.28 31.17c.1.1.4-.21.1-.21 0 .01-.1.11-.1.21zm.9-6.19h-.2c0 .21.3.1.2 0zm-.4 12.8c0-.83-.14 0 0 0 0-.11-.1 0 0 0zm-.5-20.44c0-.23-.58.61 0 0 0-.1-.1.1 0 0zm-2.18 19.82c-.39.25-.41.46-.06.61-.07.03.37-.61.06-.61-.1.1.2 0 0 0zm4.57-15.59c-.35-.31 0 .05 0 0zm-.2 14.97c.2.1.3-.21.1-.31 0 0-.1.1-.1.31zm3.08-29.93c-.11-.15.27-.74-.4-.46-.3.12-.71 1.18-.79 1.6 2.19 1.19 1.82-1.27 1.19-1.14zm-6.36 14.34c-.17.32.02 0 0 0zm2.28 18.17c0-.1-.1 0-.1.1.01 0 .1 0 .1-.1zm.2-7.85c1.41 1.22 0-3.14 0 0 .6.52 0-.1 0 0zm-1.29-10.21c0-3.42-1.95 2.04 0 0 0-.31-.2.2 0 0zm-3.97.62c.3.31.8.21.7-.41-.21-.42-.9-.32-.7.41zm-.3 5.26c.4.35.66.25.79-.31-.01.01-.96-.75-.79.31.2.31-.1-.62 0 0zm-.1 3.72c-.5.21.2.93.2.21 0-.11-.1-.11-.2-.21zm1.49-2.17c.27 0 0-.12 0 0zm.4-8.26zm-2.09-5.47c0 .1.1.1.1.1.1-.2-.1-.2-.1-.1zm.3 1.03c0-.1-.1-.21-.1-.1s0 .21.1.1zm.1 1.24c-.01 0-.5-1.16-.5 0 .17.21.33.21.5 0zm.3-2.37c-.2-.52-.3.1-.2.1 0 .1.1 0 .2-.1zm0 5.57c0 .21 0 .41.1.52.59.1.29-1.03-.1-.52zm12.12-19.3c0-.1-.1-.21-.2-.1l.2.1zm-1.39 21.26c.1-.1 0-.21-.1-.21 0 .11 0 .21.1.21zm2.48-11.25c-.1-.48-.12 0 0 0zm-2.08 11.05c0 .1 0 .21.1.21.09-.11.09-.32-.1-.21zm-.8 1.65c.1-.21 0-.41-.2-.41-.1.2 0 .41.2.41zm2.29-1.76c.1-.1 0-.21-.1-.21 0 .21 0 .21.1.21zm.79 3.62c0-.1-.1-.1-.2-.21-.4.21.1.72.2.21zm.7-17.65c-.32-.22-.42-.12-.3.31.21.03.31-.07.3-.31-.1-.11 0 .2 0 0zm-.6-3.41c-.04-.25.21-.31-.1-.52-.3.25-.26.42.1.52zm-3.48 17.65c-.14.18 0 .31 0 0zm5.27-15.38c1.29 0 1.18-2.5-.04-2.04-.79.3-1.17 2.04.04 2.04zm-1 .41c.27-.28.55-.97-.1-1.13-.41.44-.38.82.1 1.13.11-.1-.49-.1 0 0zm-3.87 13.94zm4.87 15.79c-.27 0 0 .11 0 0zm-.5-2.38c-.1-.21-.3-.41-.5-.21 0 .52.4.63.5.21zm-.3.42c-.2.72.6.52.4 0-.2-.11-.3 0-.4 0zm-1.29 1.34c.45 0 .71-.71.4-1.03-.5-.21-.82.81-.4 1.03.1 0-.4-.21 0 0zm-6.36.1c-.28.5-.21.72.21.66.14-.11-.25-1.55-.31-1.59-.49.1-.65.41-.5.93h.6c0 .21-.1 0 0 0zm8.25-8.56c.13.25.01-.02 0 0zm-.3-11.25c0 .1.1.31.1.21.1-.11 0-.21-.1-.21zm-.59 11.76c-.83 2.58 2.2-1.15 0 0-.1.31.19-.1 0 0zm.19-2.89c.16-.18.23-.39.2-.62-1.06-.73-1 1.47-.2.62 0-.2-.1.11 0 0zm-.19.93c-.1 0-.1-.1-.3-.1-.5.62.59.82.3.1zm4.47-39.32c1.28 1.03.94-1.19.4-1.03-.14.34-.27.68-.4 1.03zm.59-.62l-.2.62c-.49-.21-.17-1.11.2-.62zm-7.65 4.44c.64 0 0-.26 0 0 .1 0 0-.21 0 0zm-.2 19.19c1.26 0 .85-2.83-.35-1.74-.54.5-.86 1.43.35 1.74.1 0-.39-.1 0 0zm-.2-16.71c0-2.5-.91 1.58 0 0 0-.31-.29.51 0 0zm0-9.91c-.5-.21-.8.62-.4.93.5.31.8-.62.4-.93zm.4-1.86c-.01-.02.1-.94-.4-.41-.07.38.06.52.4.41zm-3.38 29.31c.1.1.3 0 .2-.1-.1 0-.2-.11-.2.1zm-4.17-4.64c.3.1.4-.21.4-.62-.4-.52-.7.2-.4.62zm3.58-.42c.27-.42-.08-.08 0 0zm-.2-7.94c.3.21.8.1.7-.41 0-.63-1-.32-.7.41zm-.1 9.8c0 .07-.71.64-.07.94.59.27.5-.94.07-.94 0 .21.2 0 0 0zm0-12.69c-.2.21-.1.83.1.83.6.2.7-1.04-.1-.83zm-3.08 13c.24.45.16 0 0 0zm8.45 2.27c0-1.42-1.51.84-.24.47.07-.16.15-.31.24-.47 0-.21.09.83 0 0zm-1.69-16.2zm1.49 14.34c0-.15-.38-.27 0 0zm6.45-24.15l-.6-.41c-1.61 2.24 1.44 2.37.6.41zm-3.77-.2c-.28.5-.18.74.3.72.25-.21.15-.96-.3-.72-.1.31.2-.11 0 0zm.1-4.24c-.02-.33-.18-.5-.5-.52-.33.39-.26.69.19.9l.31-.38zm-4.47 18.38c-.34.41-.31.69.1.83.64.16.57-1.36-.1-.83-.1.2.39-.31 0 0zm.49 2.37c.12-.13-.96.45-.11.45.24-.12.28-.27.11-.45zm-.89-4.03c-.1.42.03.69.4.83.13-.27.41-1.66-.4-.83-.1.52.3-.31 0 0zm.89 5.06c.05 0 .13-.52 0 0zm-10.13 3.92c.13.38.09 0 0 0zm-7.25-6.91c-.4.48.09.1 0 0zm2.98 35.09c.5-.13 0-.04 0 0zm-2.09-45.51h-.1c-.1.1.1.1.1 0zm.2 15.89c-.2 0-.3 0-.3.21.1.2.4.1.3-.21zm.99 26.42c0-.1-.2-.1-.2 0-.1.1.2.21.2 0zm.3 35.61v.41c.3.2.3-.41 0-.41zm-1.09-26.84c1.46 1.51.07-.47 0 0-.1-.1.1-.62 0 0zm3.77-40.56c-.1.1-.1.31-.1.52.6.82.9-.83.1-.52zm.3 3.1c-.1.52.69.52.5-.1-.2-.21-.5-.11-.5.1zm-4.27-16c0-.32-.73-2.28-1.09-1.14-.22.56.52 1.44 1.09 1.14 0-.21-.2.1 0 0zm4.87 4.34c-.19-.67.01-.02 0 0zm-3.88 14.24c1.35-.7-2.29-2.39 0 0zm.7-14.97c-.2 0-.4.21-.3.52.5.72.89-.41.3-.52zm3.77 83.5c.13-.01-.5-.75-.5 0 .01.44 1.09 0 .5 0zm.8-25.8c-.3-.1-.2.62.1.41 0-.1.1-.41-.1-.41zm-.4 27.96c.1-.1.1-.1 0-.1v.1zm.6-20.64c0 .08.59-.17 0 0zm.39 7.74c.25.07.35-.07.3-.41l-.3-.1v.51zm-4.17-9.49c-.66.67-.03.08 0 0zm4.47-7.74c.07.1-.15.48.19.34.27-.12-.02-.52-.19-.34zm-2.48-41.39c-2.33 0 2.01 2.12 0 0-.7 0 .1.11 0 0zm-.2 41.39l-.2-.1c-.2.1.2.51.2.1zm-1.69 17.96c-.1.83.89.52.6-.31-.2-.21-.5 0-.6.31zm1.79-14.45c-.76-.57-2.14-.67-1.94.74.24 1.64 1.94.2 1.94-.74zm-.4-9.29c-.1.31.3.21.2 0h-.2zm-1.49 5.88c-.1.31-.2.31-.2.72.4.11.8-.72.2-.72zm24.74-71.11c-.35-.23-.45-.1-.3.41.26.01.36-.13.3-.41-.2 0 0 .21 0 0zm6.76-2.89c.3-.21.4-.83-.1-.93-.2.21-.3.93.1.93zm3.18-.21c0-.21-.4-.31-.4 0 .1.42.4.32.4 0zm22.65-6.6c-.1 0-.1 0-.2.1.1.11.1 0 .2-.1zm-26.73 10.73c.1-.1.2-.21.2-.41-.3-.31-.49.31-.2.41zm-25.73 102.08c0-.1.1-.1.1-.1-.1-.11-.2-.01-.1.1zm9.44-20.75v-.21c-.1 0-.1.21 0 .21zm-2.68 10.42c-.4.41.3.93.4.31-.1-.2-.2-.31-.4-.31zm.69 22.92c-.53-.55-.8 1.04-.15.85.32-.22.37-.5.15-.85-.1-.11.4.51 0 0zm1.19 5.47c0 .54.15.37 0 0zm4.38-13.21c.07.43.07 0 0 0zm-6.16-5.99zm4.07-4.64c.11-.25.04-.39-.2-.41-.24.38.06.19.2.41zm8.74-93.61c0-.1.1-.1.1-.31-.2 0-.2.2-.1.31zm-17.98 6.19c-.54-.57 0 .81 0 0-.1-.1 0 .31 0 0zm-1.59 10.94zm-.89-4.95l.1-.52-.4-.1c-.24.37-.15.58.3.62zm-1.2 20.12c0-.62-.5-.31-.3.1.2 0 .2-.1.3-.1zm3.78-23.53c.13-.45-.04-.59-.5-.41-.12.49.35 1.01.5.41 0-.1-.1.41 0 0zm-2.98 23.43zm-1.09-20.44c0 .1 0 .21.1.21-.01 0-.01-.21-.1-.21zm4.66-11.04c0-.1.1-.21.2-.41-.2-.31-.39.31-.2.41zm10.54-5.99c-.2-.31-.6-.31-.6.1-.1.52.5.52.6-.1zm5.36 1.65c0-.1 0-.21-.1-.31-.39.11-.3.62.1.31zm-3.08 1.14c-.1-.1-.2-.1-.3-.1-.1.31.3.51.3.1zm-4.47-.72c.15-.17.15-.34 0-.52-.27.15-.27.32 0 .52.2-.11-.2-.11 0 0zm-6.76 4.95c1.06 1.68 3.1-.49 1.79-1.86-1.03-1.13-1.79.45-1.79 1.86zm-1.68 26.73c2.5 2.56 0-2.93 0 0 .1.11 0-.82 0 0zm-1.2 26.22zm-.79-9.91c.55.56 0-1.17 0 0 .1.1 0-.21 0 0zm2.78 14.04c-.04-.05-.22.47 0 0zm.5 6.29c.1 0 .2 0 .2-.1-.1-.11-.1 0-.2.1zm-.3-1.75c0-.07-.5 1.23-.01 1.03.48-.2.01-1.05.01-1.03zm3.87 8.56c-.11.64.03 0 0 0zm.6-13.31c-.13-.14-.55.42 0 0zm-3.78-6.71c-.33.11 0 .31 0 0zm-.39-27.56c.1.21.4.21.5-.1-.11-.41-.4-.41-.5.1zm.99 8.16c.79-.21-.3-1.34-.3-.21 0 .1.1.31.3.21zm-1.49 4.85c-.12-.23-.08 0 0 0zm.2-1.65c0 .1 0 .1.1.1.1-.1 0-.1-.1-.1zm1.39 26.83c.27-.19.4-.47.4-.83-.28-.03-.93.46-.4.83.2-.21-.3-.21 0 0zm-.89-7.12c1.37 1.41.68-1.76 0 0 .1.1.19-.52 0 0zm1.88 1.24c-.4-.31-.89.21-.8.72.21.62 1.1 0 .8-.72zm-1.59 0c.5.62 1.09-.41.6-.83-.4 0-.7.31-.6.83zm1.79-1.34c-.2-.21-.4 0-.4.21-.1.41.4.41.4-.21zm-1.49-8.78l-.2-.21c-.1.42.1.83.2.21zm1.39 12.18l-.3.52c.52.18.3-.37.3-.52-.19 0 0 .11 0 0zm-.79 1.45c-.3-.31-.5.21-.4.52.3-.01.4-.21.4-.52zm.1-17.34c.23.45.16 0 0 0zm1.39 20.64c.09-.5-.15-.16 0 0zm.1 5.47c.12.23.08 0 0 0zm-.2-4.03c-.1 0-.1.21 0 .21s.2-.1 0-.21zm.5-7.01c-.3-.21-.5 0-.5.52.2.41.7-.11.5-.52zm-.7.51c-.1 0-.1.1-.2.21.1.1.3-.1.2-.21zm-.4-13.41zm-2.18 39.32c.17.42.37.42.6 0-.05-.45-.24-.45-.6 0 .1.41.1-.21 0 0zm-.1-10.01c-.09 0 0 .55 0 0zm0 17.13c.02.64.09 0 0 0zm1.49-3.3zm.39 10.11c-.22.36-.19.49.09.39.18-.15.15-.28-.09-.39-.09.1.21 0 0 0zm3.58-32.3c-.9.93.74 0 0 0-.1.1.1 0 0 0zm-7.45 17.54c0 .27-.34.3 0 .62.22-.24.22-.45 0-.62 0 .11.2 0 0 0zm7.55-22.39c0-.88-.11 0 0 0 0-.11-.2 0 0 0zm-8.34 26.62c.15 0 .09.33.4.1-.01-.35-.4-.48-.4-.1zm1.19-9.29c-.1 0-.1.21 0 .21 0 0 .1-.21 0-.21zm.3 10.94c-.2.72.5.62.5.21.09-.31-.31-.41-.5-.21zm.99 14.56zm3.68-60.28c0-.1-.2-.1-.3-.1-.1.31.3.31.3.1zm-4.57 57.59c.1-.1.1-.21 0-.21v.21zm3.67-53.35c-.1.1.2.1.1 0h-.1zm1.49 1.85c-.62.02 0 .1 0 0zm-7.25 39.84c-.1 0-.1.1-.1.31.1.21.3-.21.1-.31zm5.37-44.69c.19 0 .26-.18 0 0zm.99.11c0 .1 0 .21.1.1 0-.1 0-.1-.1-.1zm.59 5.88c.12.23.09 0 0 0zm4.08 15.27c-.1-.1-.1.21 0 .21-.1 0 0-.1 0-.21zm-.6 0c-.19-.57-.06.07 0 0zm-.3.31c-.1 0-.3-.1-.3 0-.09.72.6.42.3 0zm-3.87-18.88c-.47.82 0 .46 0 1.03.06-.11.39-1.03 0-1.03zm4.57 15.17c-.43-.45-.4.1-.4.41.3.05.43-.08.4-.41-.1-.11 0 .31 0 0zm-1.19 6.09c-.54.56.53.27 0 0-.1.1.2.1 0 0z"/></svg>