<svg xmlns="http://www.w3.org/2000/svg" width="100" preserveAspectRatio="none" viewBox="0 121 100 270" enable-background="new 0 121 100 270"><path fill="#1D1D1B" d="M49.3 368.98zm-1.3 18.59zm.5-10.69c-.07-.4-.16-.09 0 0zm.3-6.44c-1.53.42-1.34 2.59-1.5 3.32-.28 1.26-1.23 1.96-1.5 3.12.78 0 2.7-2.62 2.7-3.63.61-1.28.3-1.21.3-2.81zm.3-.11zm2.8 2.5zm-1.9 2.7c-.08-.02-.03.37.2-.1-.32-.2-.38-.16-.2.1zm-3-2.29c-.18-.94-1.76-2.53-2.7-1.56 0 1.65 1.06 1.87 2.7 1.56-.1-.52-1.1.21 0 0zm-2.1 3.84c.06.06-.24-.45-.4-.52-.03.79.39.51.4.52zm-.1-6.95c-.38.17-.06.12 0 0zm-38.8-36.14c.41-1.71-2.29-.15.3.31.11-.46 0-.31-.3-.31zm41.5 48.81l.1.52c.65-.34-.01-.43-.1-.52zm-1.2 2.9c-.26.13-.06.46.1.52 0-.75-.1-.2-.1-.52-.2.11 0 .11 0 0zm-1.2-7.06c-.26.79.6 2.7 1.6 1.66.66-.68-.89-3.13-1.6-1.66zm16.5 12.05c-.08-.24-.19-.09 0 .31.32-.02.23-.19 0-.31zm-31.5-26.9c-.03.26.11.19.4-.21-.2-.11-.33-.04-.4.21zm-13.6 4.78zm-11.7-37.9c-.43 0-.06.57 0 .62.63 0 0-.6 0-.62zm-4.8-6.96c0 .36.17.52.5.52 0-.79-.14-.19-.5-.52zm1.4.62zm16 47.77c-.36.01-.43.19-.2.52.36-.01.43-.19.2-.52-.1 0 0 .21 0 0zm-11.9-55.04c1.88-.97-1.33-1.39 0 0zm60.6 60.44c.49.87.9.52 0 0zm-7.3-10.38c.39.41.08-.09 0 0zm-.3 7.06l.2.52c.56 0 .26-.52-.2-.52zm-2.6 6.85c-.28.14-.36.27-.1.52.48-.25.13-.46.1-.52-.2.1.1.21 0 0zm4.3-3.53c.28.89.95.74.5-.21-.2.01-.36.08-.5.21.1.31.1-.1 0 0zm.7 5.92c.27-.14.21-.31 0 0zm-17.6 1.25c0 .32-.11.22-.3.62.05.02.9-.21 1.1-.21-.07-.36-.4-.5-.8-.41 0 .1.5-.11 0 0zm-13-19.74c-.21.11-.21.2-.1.31.29-.25.25-.61.1-.31zm-8.9-1.03c.07-.31 0-.45-.2-.42-.07.31 0 .45.2.42zm0 8.93c-.03-.08-.09.37.4.62-.02-.29-.15-.49-.4-.62zm-.8-11.63c.05.18.12.35.2.52.53-.18.33-.26.3-.73-.19.01-.36.07-.5.21.1.31.2-.11 0 0zm1.2 14.43c.08-.16 0-.34 0 0zm1-.31zm-.2 3.63c.47-.24 0-.82 0 0 .2-.1 0-.1 0 0zm.3-14.53c-.12.54-.67.23.1.62.04-.16-.12-.56-.1-.62zm-2.2 2.7c-2.48-.39.27 2.51 0 0zm-1.9-9.45c-.2.21-.2.1-.1.42.2.09.1-.32.1-.42zm.5.72zm-.3 1.87c-.56.32-1.03.27-.8.93.75-.1.8-.35.8-.93zm.5 5.92c-1.84 0 .8 1.68 0 0-.1 0 .1.21 0 0zm-.8-2.18c0-.59-.22-.41-.4-.21 0 1.05.19.08.4.21zm-.1 11.63zm5.4 1.25c-.61 0-.17.54 0 .62v-.62zm5.1-8.83c.37.14.62.3.9 0l-.5.1c.02-.4.05-.42.2-.73-.43-.15-.39.06-.7-.31.02.07-.11-.64-.6-.73.05.53.36 1.49.7 1.67zm0-1.56zm-1.6 2.91zm1.8-3.11c-.08-.24-.01-.41-.2-.52-.01.19.18.47.2.52zm-2 10.07c-.06.34.04.48.3.41.06-.34-.04-.48-.3-.41zm15.3 8.41c0-.55-.1-.78-.8-.73-.24.76.4 1.85.8 2.28-.32-1.33-.09-.85-.2-1.56.42-.29.24.58.7.1.07-.31-.1-.34-.5-.09zm-18.5-16.41c-.07-.24-.2-.11 0 .31.41.04.05-.12 0-.31zm-.6 12.05zm.9 1.76c.14.21-.16.56.4.62.29-.65-.24-.39-.4-.62zm1.7-7.27c-.06.34.04.48.3.42.06-.34-.04-.48-.3-.42zm16.8-1.24c-.08.32-.5.16.2.52l-.2-.52zm-18 3.94c-.03.27-.46.22-.2.73.64 0 .17-.45.2-.73zm.9 1.87c-.48 0-.41.43-.2.73.44 0 .49-.43.2-.73-.1 0 .1.11 0 0zm26.5 2.18l.1.52.5-.1c-.19-.8-.43-.28-.6-.42zm-27.5-20.77c-.36.01-.43.19-.2.52.36-.01.43-.18.2-.52-.1 0 0 .11 0 0zm-15.6 26.17c.27-.14.21-.3 0 0zm-3.7-37.59c-.04.43.09.53.4.31.02-.31-.11-.41-.4-.31 0 .11.4 0 0 0zm25.1 15.58c-.37.17-.06.13 0 0zm10.6 15.16zm-11.2-14.43c.27.28.17.5.5.62.03-.35-.05-1.09-.5-.62.2.2.2-.21 0 0zm-18.3-3.02c0-.01-.48-.07-.2.52.62 0 .21-.57.2-.52zm-3.1-2.9zm2.8-2.7zm-.5 22.22c.08-.17 0-.31 0 0zm.5-18.8c-.28.3 0 .26 0 0zm.1-8.93c-.07-.31-.44-.65-.6-.83-.04.46.09.83.2 1.14.2-.02.33-.12.4-.31-.1-.41-.1.21 0 0zm-2.9-5.29c-.16-.23-.05 0 0 0zm.6-3.33c-.06.34.04.48.3.42.06-.34-.04-.48-.3-.42zm.6-3.84c-.2.21-.2.1 0 .42.2 0 0-.32 0-.42zm0 3.32c-.01.31.12.45.4.42-.01-.67-.15-.8-.4-.42.1.42.1-.1 0 0zm.1-6.95zm2.6 10.17c-1.51-.79-.42.88 0 0zm-2 33.75c.27-.14.21-.3 0 0zm-1.2-41.33c.27-.14.21-.3 0 0zm8 38.32c.05-.36 0-.71 0 0zm-6.5-25.65c.08-.21 0-.65 0 0zm.4-6.64c.66-.24 1.15-.12.9-.93-.93.38-1.09.01-.9.93zm-1.8 9.34c-.3.31-.17.64 0 0zm1.5-.83c-.19.1-.22.53 0 0zm-.1-2.6c-.16-.22-.05 0 0 0zm.3-2.7zm4.3 1.98zm-.2 9.55zm-1 20.56zm1.8-26.89c-.06.34.04.48.3.42.06-.35-.04-.49-.3-.42zm-1.1 3.11zm-.3 27.21zm1.4-24.92c.07-.17 0-.31 0 0zm-9.6-9.66c-.08-.24-.19-.09 0 .31.32-.02.23-.19 0-.31zm1.1 10.28c.07-.16 0-.34 0 0zm-3.4-5.5c0 .08-.29.82.2.31.02-.43-.05-.53-.2-.31 0 .31.1 0 0 0zm3.8-31.78c-.04.42.09.53.4.31.04-.43-.09-.53-.4-.31 0 .1.1 0 0 0zm8.5 54.93c.08-.16 0-.33 0 0zm-2.1-23.98c0 .51-.15.28 0 .62.89 0-.17-1.02 0-.62zm-1.4 14.22c-.35.07-.64-.43-.6.83.9 0 .61-.28.6-.83zm-.1-9.03c-.14-.02.04.43.3-.1-.29-.2-.33.1-.3.1zm-.4.41zm2 15.68c-.57.2-.59.97.3.52l-.3-.52zm-2.1-17.55c.07.08.07.28.1.42.19-.37.2-.67.2-1.04-.28.02-.45.14-.6.21.08.09.27.23.3.41zm1.2-9.96c-.29-.06-.32.07-.1.41.29.06.32-.07.1-.41zm-1.1 10.59c.1-.18 0-.3 0 0zm-.2-3.64zm2.5 1.87c.63 0 .15-.54 0-.62-.18.2 0 .1 0 .62zm-.5-7.16c-.29.08-.5-.2-.5.21.18 0 .47-.21.5-.21zm-.7.1c.1-.18 0-.3 0 0zm.8 18.69c.05-.21.05-.42 0-.62-.88.3-.3.31 0 .62 0-.2-.1-.1 0 0zm6.8-244.97c0-.1 0-.21-.1-.21 0 .11 0 .21.1.21zm.2.73c0 .1 0 .21.1.31.1-.21.1-.31-.1-.31zm-.3-1.04l-.1-.21c0 .1 0 .21.1.21zm.7 5.81c-.1.21.2.52.4.73 0-.31-.3-.42-.4-.73zm.5.73c.48.5.36.52.4.52.25.44.4.86.8 1.14 0 .03-1.38-1.85-1.2-1.66zm1.2 1.97c0-.1 0-.21-.1-.21-.1.11 0 .11.1.21zm-1.8-6.64c0 .1.1.31.2.31-.1-.21-.1-.21-.2-.31zm37.7 8.51c-.1 0-.2 0-.3.1.1.11.3.01.3-.1zm29 30.01c-.2-.21-.5.1-.3.31.2.11.3-.1.3-.31zm-7.6-17.23c1.04.43 1.41-1.68-.2-1.04-.14.3-.8 1.25-.8 1.56.23.7 1.26.19 1-.52.5.2.3.83 0 0zm-.3 12.25c-.14-.23.21-.3-.2-.42-.14.22-.16.42.2.42zm.4-16.3zm-1.4 11.94c0-.31-.1-.42-.2-.42-.1.11-.3.73.2.42zm1.9 5.4c.2.21.6.1.5-.21-.1-.42-.6-.31-.5.21zm-.3-6.23c.04.09-.32.5.1.43.37-.07.21-.43-.1-.43zm.7-10.08c-.54-.56 0 .85 0 0-.1-.1 0 .11 0 0zm-70.1 17.14c.45-.11.59-.38.4-.83-.8-.83-.42.73-.4.83zm61.6-14.44c.6-.21.26-.93-.3-.93-.26.44-.16.75.3.93zm1.4-.41c-.22-.34-.19 0 0 0zm5.8 14.64c-.1.1 0 .42.2.42.1-.21 0-.42-.2-.42zm-3.4-4.15c.2-.21.3-.42.1-.73-.6-.31-.7.73-.1.73zm.3-28.56c.23-.18.26-.39.1-.62-.39-.28-.98.62-.1.62.2-.21-.1 0 0 0zm12.5 38.94c1.61-1.68-2.27.78 0 0 .3-.31-.3.11 0 0zm2.3-17.86c-.14-.59-.14 0 0 0zm-3.5 13.92c.2-.31-.3-.62-.3-.21 0 .1.1.1.3.21zm3.9-7.17c.3-.21.1-.93-.5-.83-.4.41.1 1.14.5.83zm-5.3-13.71c0-.62-1-.52-.6.31.3 0 .6-.1.6-.31zm4.8 14.96c-.16.34 1.23-.65.35-.53-.14.01-.53.34-.35.53.1-.21-.1-.11 0 0zm-8.6-4.05c-.2-.31-.7 0-.5.31.2.1.5 0 .5-.31zm-1.1-5.92c0-.42-.5-.21-.3 0 0 0 .2.1.3 0zm.8 4.46c.1-.1 0-.21-.2-.21 0 .21.1.32.2.21zm3.1-5.29c-.2-.62-1 .1-.5.42.3-.01.5-.11.5-.42zm-1.1 5.81c.13-.43.02-.54-.34-.32-.25.61.21.18.34.32zm-1 4.26c-.62.19.04.08 0 0zm-8.1-2.08c.97-2.03-2.05 0 0 0 .1-.21-.4 0 0 0zm-21-26.58c0-.48-.16-.89-.8-.73-.52.54.27 1.28.8.73 0-.21-.3.31 0 0zm1.4 1.45c-.1-.21-.4-.21-.4.21.2.1.5 0 .4-.21zm-9.4 8.83c.71-.18 1.07-1.57-.1-1.3-.75.17-.37 1.13.1 1.3.4-.11-.3-.11 0 0zm1.9-5.71c.5.1.4-.93-.1-.73-.4.1 0 .62.1.73zm15.1 2.59c0-.42-.8-.31-.5.31.3.11.5 0 .5-.31zm-3.3-4.67c.1-.93-.9-.42-.5.1.2.11.4 0 .5-.1zm-2.4-3.43c-.1 0-.1.1-.3.1 0 .21.3.01.3-.1zm-13 6.96h.1c.1-.1-.2-.1-.1 0zm-30.5 20.15c0-.1-.1-.1-.2-.1 0-.01.1.1.2.1zm19.3-12.36c0-.1-.1-.21-.2-.1 0 .1.1.1.2.1zm5.5 1.76c.12-.39-.01-.53-.4-.42-.03.18.11.72.4.42.2-.31-.1.11 0 0zm33.3 4.05c0 1.32 1.84.72 1.15-.47-.55-.95-2.36.47-1.15.47 0 .32-.1 0 0 0zm-31.7-11zm31.1 11.32v-.21c-.2-.11-.2.31 0 .21zm-.5 3.22c.21.2-.21.77.5.52.27-.83-.33-.36-.5-.52zm2.4 3.53c-.23.1-.4-.48-.4.21.2.18.33.11.4-.21zm-7.4-18.18c-.27-.57.78-.12 0-.93-.96 0-.34.76 0 .93-.1-.2-.2-.1 0 0zm5.1 13.71c0-.02.55-.52-.1-.52l.1.52zm2 2.6c-.11-.12-.48.24 0 0zm-4.2-16.41c0 .59-.39-.41 0 0 0 .21.1.1 0 0zm.9-5.61c.85 0 .67-1.22-.11-1.05-.81.18-.28.92.11 1.05.2 0-.3-.1 0 0zm.6 15.99c.3.31.4 0 .4-.42l-.3-.1c-.02.18-.06.35-.1.52.1.11 0-.2 0 0zm.1-.93c.2 0 .35-.51.09-.45-.18.03-.53.45-.09.45zm0 6.54c0 .17.55.19 0 0zm5.9-1.56c0 1.02.93-.96 0 0zm8.1 21.5c-.1 0-.1.21 0 .31.3 0 .2-.41 0-.31zm-.7 20.56c2.64 1.37-.82-2.55 0 0zm-34.3-56.91c0 .1 0 .31.1.21s.1-.31-.1-.21zm35.5 42.37c.3.1.5-.21.5-.42-.2-.93-1.1.32-.5.42zm-2.7 5.92c.33.23.5.16.5-.21-.27-.18-.44-.11-.5.21.1 0-.1-.31 0 0zm3.2-10.49c.3 0 .4 0 .4-.31-.1-.31-.5-.1-.4.31zm-35.9-38.73c.4.48.16-.08 0 0zm35.3 63.66zm-26.7-53.17c-.57-.15 0 .01 0 0zm-1.2 5.4l.4.1c.6-.62-.9-.83-.4-.1zm-1.8-.21c.35.08-.43.93.64.43.62-.3-.44-1.27-.64-.43zm2.1-.93c.4-.43-.08-.17 0 0zm-4.2-3.74c.2 0 .3-.1.2-.31-.1-.11-.3.1-.2.31zm4.9 4.67c.24-.25.12-.42-.3-.42-.09.27.01.4.3.42.1-.1-.3 0 0 0zm.3-1.45c0-.31-.2-.42-.5-.31-.3.41.4.72.5.31zm18.3 13.08c0-.73-.56 0 0 0 0-.1-.2 0 0 0zm6.4 1.97l.4.42c.19-.18.22-.39.1-.62-.22-.06-.39.01-.5.2zm-8-4.15c-.64-.45-.86-.14-1.1-.62 0 .7-.59.63-.13 1.54.56 1.11 1.59-.04 1.23-.92-.3-.21.3.73 0 0zm12.7 34.89l.1-.31c0 .1-.2.21-.1.31zm-10.9-28.45c-.57.44-.54.77.09 1 .59-.04.55-1.22-.09-1-.2.1.3-.11 0 0zm1.5-5.3c-1.48 2.32 2.35 0 0 0zm-4.8 8.41c.1.1.2-.1.2-.21-.2-.1-.3.01-.2.21zm1.6-4.77c.01.04.64-1.2-.27-.64-.23.31-.14.52.27.64zm6.7-1.66c.42.43.48-.26.4-.42-.32-.09-.46.05-.4.42.1.1-.1-.32 0 0zm-10.1-7.48c0 .54.39 0 0 0 0 .1.1 0 0 0zm11.3 22.95c0 .1.1.21.2.21.3-.21-.1-.63-.2-.21zm-8.4-19.32c1.03-.54-.18-1.56-.7-.83-.06.18.24 1.31.7.83.2-.1-.1.11 0 0zm-1.5-1.45c0 .31.2.42.4.31.1-.31-.3-.52-.4-.31zm-1.2 4.36c0 .42.9.52.7-.31-.3-.1-.7-.1-.7.31zm5.5 1.35c0 .07.25-1.45-.35-.62-.22.41-.1.62.35.62 0-.21-.7.31 0 0zm15.1-4.15c0-.1.3 0 .4-.21.1-.94-1-.21-.4.21zm1.3-1.56c.1 0 .2-.1.1-.21-.1 0-.2.11-.1.21zm-1.7 15.37c-.1 0-.1.1-.1.42.8.2.3-.53.1-.42zm.9-5.09c-.23.24.47.49 0 0-.1.1.1.1 0 0zm-1.5 8.31c.16.17.6.31.6-.1-.29-.39-.49-.35-.6.1.1.1 0-.52 0 0zm-24.7-29.39c.4.38.05-.05 0 0zm-12.2 3.84c.3 0 .4-.1.4-.42-.4-.2-.4.11-.4.42zm39.8 14.33c-.07.15-.45 1.63.5 1.04.3-.58.13-.93-.5-1.04-.1.21.7-.1 0 0zm3.7-9.14c-.6.62.77 0 0 0-.1.11.1 0 0 0zm.7 4.16c.23.36.36.26.4-.31-.24-.05-.38.06-.4.31.1.1 0-.21 0 0zm-32.4-11.32c-.24.09-.28-.37-.4.1 0 .2.4.22.4-.1zm31 15.37c0 .21.2.31.4.21 0-.32-.3-.32-.4-.21zm-1.3-5.3c0 .21.2.21.4.21-.1-.21-.4-.31-.4-.21zm.4-7.79c-.11-.01.6.79.6 0-.08-.33-.28-.33-.6 0zm-33.9-1.76c-.52.53 1.48 1.54 0 0-.1.1.1.1 0 0zm6.6-3.33c.25.53.59.56 1 .1.2-1.04-1.1-.7-1-.1 0 .21-.1-.62 0 0zm-.6-.31c.3.1.5-.42.1-.42-.1.01-.1.22-.1.42zm-12.5 7.58c0-.52-.5 0-.2.1l.2-.1zm-1.5 0c.27.21.4.14.4-.21-.2-.07-.34 0-.4.21zm34.7 14.85c-.72.76 1.07 0 0 0-.1.11.2 0 0 0zm-34.4-19.52c0-1.04-1 0-.1.1-.1 0 0-.1.1-.1zm-1 .62c.24.47.16 0 0 0zm12.5 0c.26.38.82 1.62 1.5 1.14.72-.74-1.5-1.29-1.5-1.14zm24.3 10.8c0 .53.8.93.77.3-.1-.44-.36-.54-.77-.3 0 .11.6-.52 0 0zm-.5-1.55c.2.42.6.31.9.1.3-.93-1-1.14-.9-.1zm-22.5-9.97c0-1.16-.62.64 0 0 0-.21-.1.1 0 0zm21.1-13.92c0 .45.73.52.94.12.37-.71-1.13-.91-.94-.12zm2.1 14.33c0-.51-1-.39-1 .21.1.64 1.1.39 1-.21 0-.21.1.63 0 0zm-1.4 25.76c-.79-4.92-3.38-8.89-6.69-12.18-1.92-1.9-3.08-2.79-5.19-4.38-1.44-1.09-3.15-1.96-4.85-2.63-1.93-.76-2.4-.38-2.85-2.52-.32-1.52-.78-3.01-1.32-4.47 1.93 1.34-.3-3.02-.3-.62-.48-1 .02-.34-.9-1.77 1.27-1.21 2.81-2.36 3-4.26-1.7-.33-3.29.71-4.9 1.04-.29 1.22-2.15.17-2.8 0 .41-1.61 1-3.29.7-4.98-.92-.11-1.31.87-1.5 1.56-.74 2.1.09 3.15-2.13 3.87-1.7.55-1.44-.08-2.17-1.51-.85-1.66 1.08-1.86 2.4-2.77-.75-.39-2.38.95-3.1 1.14 2.09-1.09 3.18-2.18 5.1-3.43-1.8.09-3.58 1.28-5.3 1.97-1.74-.36 1.32-1.77 1.9-2.29-.3-.31-2.38.91-2.7 1.04.12-.09.8-.5.8-.73-.3-.22-.64-.18-1 .1l-.2-.42c1.25-.65 3.14-1.97 4.6-1.97l-.4.21c2.5-.87-1.8.32-2.2.42.41-.18.77-.43 1.1-.73-.99 0-2.27.97-3.2 1.45.44-.4 3.83-2.6 4-2.08-.18.05-.31.15-.4.31.71-.29 1.2-.68 1.2-1.35-1.74.45-3.43 1.62-5 2.49l-.1-.31c.42-.22 1.11-.53 1.5-.94-.31-.06-.61-.03-.9.1.3-.11.5-.31.6-.62-.52.11-1.02.28-1.5.52l-.1-.42c.76-.38 1.88-.78 2.4-1.45-.85.28-1.67.82-2.5 1.25-1.02-2.44-1.93-5.4-3.6-7.48-2.71-3.13-2.1 5.12-2 6.23 0 .61.84 4.29.5 4.54l-2.45 1.8c-1.3.96-2.59 1.93-3.95 2.8l.41-2.84c.16-1.14.99-1.3 1.09-1.83 0-1.36-.66-1.85-.53-3.22.13-1.46.67-2.59.43-4.05-1.15.32-1.25-.26-1.1-1.35-1.25 1.66-1 5.04-1.3 7.27-.2 1.47-.73 3.17-.95 4.98-.26 2.18-.07 3.74-2.4 4.24-2.03.44-2.06 1.98-3.75.23-.66-.4.02-.72-.5-.52-1.29-1.23-2.44-2.62-3.61-3.98-1.02-1.19-.2-2.34-.1-3.63.17-2.13-.3-4.45-.3-6.72-.63.09-.63.1-.8.73-.9-.5-.85-2.01-1.5-2.91-.85 3.09-.12 5.26-.5 8.31-.33-.55-4.16-7.68-3.3-7.68.01.87.19 1.73.4 2.6-.21-.5-.68-4.09-.8-4.15-.86.88.37 3.31.6 4.26-.14-.35-.34-.66-.6-.93.08.29.15.76.3 1.14-1.12-1.59-1.53-3.71-2.6-5.19 0 2.21.05-.31-.5-.31.63 1.95 2.3 4.15 2.3 6.02-.36-.59-.66-1.22-.9-1.87-.24.8.24 2.08.6 3.01-.15-.26-.35-.47-.6-.62.37.43.63.92.8 1.45-.94-1.52-2.26-2.76-2.9-4.46.18.04.21.1.1.21.29.31-.42-1.02-.7-1.14.14 1.16.9 4.46 1.7 5.3-2.33 0 3.63 9.7 4.4 10.8-.74.73-.14 2.69-1.6 2.91.04-.21.05-.41.03-.62.24.65-1.17-.8-1.23-.83 0-1.41-1.67-1.04-1-2.8 0-.01-.5.82-.5.83-.03-.59-.06-1.18-.1-1.77 1.03.31 1.1-.18 1.1-1.25-1.12.42-1.59-.68-2.1-1.77-.9 1.4-.99 3.18-1.3 4.88-1.58 0-3.3 7.39-3.5 8.84-.57 4.23-2.35 6.79-2.68 11.28-.46 6.32-.66 13.57-.86 20.91-.52 18.56-1.27 36.69-2.06 54.28-.2 4.45-.13 8.57-.34 13.4-.29 6.63.3 13.45-.18 20.01-.35 4.79-.27 8.57-.09 13.33.17 4.44 1.24 9.03.98 13.46-.28 4.85.23 9.9.54 14.77.35 5.54 0 10.95-.4 16.49-.19 2.64-.89 10.07 1.97 11.56 1.88 3.4 2.27 7.9 3.06 11.84.31 1.57 1.42 3.7 2.64 4.98-.06.2-.29-.01-.4 0 .15.12.66.41.9.52 0-.97.8.46 1.3.83-.41.14-.32.32-.5.52.1-.03.13 0 .1.1.43-.22.9.16.9-.42-.19-.01-.36-.08-.5-.21.41.24 3.7 2.54 3.7 2.44 0 .75 2.41.78 2.9 1.3.02.22.02 1 0 1.35-.1-.03-.14 0-.1.1-.15-.25-.35-.35-.6-.31l.2-.31c-1.04-.38-4.86-.27-4.1 1.35 1.06-.36 1.33-.53 2.4-.42.3.03.77.55 1.1.21 1.18.5.76.33 1.3 1.46.14.03.17-.04.1-.21l.6.52c0-.7.43-.81.6-1.25-.28.75.14.34-.5 1.04.17-.06.34-.06.5 0-.33-.05.67-.13.9-.21-.47-.51-.15-.58-.5-1.14.53 0 .65-.16 1.1-.31-.46.17-.75.04-1.2.11-.06-.49-.1-1.11-.1-1.66.87 0 .08.09.2.42.43-.15.48-.48 1-.21-.08.05-.42.15-.6.21.08.17.15.34.2.52.11 0 .6-.21.9-.31-.14.14-.4.4-.5.52.06 0 .57-.28.6-.31l-.3.42c.66 0 .6-.84.6.31.28 0 .4-.47.5-.62-.04.81.08.34-.6 1.04 0-.83-.6-.25-1.1-.1 0 .35.59 1.92.9 2.08-.16.12-.55.72-.9.94l.5-.11c.03.17-.07.23-.3.21.38.39.11.12.3.42l.5-.1c0 .15.14 1.31.6.83-.31.33-.67.52-1.2.52l.1-.41c.23.17.12.31.4.42 0-1.13-.3-.46-.9-.73-.08.45.24 0 .2.31-1 .33-1.88.96-1.5 2.29.2.72 2.23 2.23 3.4 2.08 0-.54-.11-.3.1-.73.17.72.33.73.4 1.25 1.59-.42.77 0 1.95 0 .67 0 1.38.25 2.35.1.42 1.72 1.14 2.46 1.8 3.95.9 2.03 1.11 4.9 2.3 6.54-.66-2.79-.6-5.2-1.7-7.48 0-2.22 4.02-5.09 2-7.17 2.3.11 2.71.29 3.9-.31 1.22 0 2.44-1.84 3.4-2.39 1.14-.65 3.66.59 4.98-.78 1.39-1.44 3.75.01 4.92-1.09 1.16 1.93 3.6 5.39 5.5 6.65 1.68.58 5.43 3.96 6.9 2.6.38 0 1.52.33 1.7.52.08-.13 3.94-.86 4-.83 1.23-.66 3.56-1.7 4.4-4.21 2.42-7.19 1.23-14.93 2.5-22.27 1.58-9.16 1.02-20.21.5-29.6-.37-6.68-1.11-13.63-.5-21.29.19-2.42.08-3.81.25-6.23.11-1.57.23-3.14.35-4.7.12-1.59 1.15-3.3 1.31-4.75.26-2.35.52-4.7.78-7.06.24-2.17-.87-4.39-.49-6.44.5-2.65.9-6.17.9-8.72 0-1.21-.84-2.91-1.1-4.26-.06-.33-.27-1.43-.3-2.08-.09-1.97-.16-1.39.9-2.49 2.86-2.97-1.07-8.78-1.2-11.32-.2-3.88-1.16-6.69-.92-10.94.14-2.42-.48-5.42-.29-8 .29-3.94.27-8.14.47-12.36.15-3.03-.17-6.58-.17-9.51 0-6 .5-11.99.5-17.97 2.1.79 4.75 1.79 4.96-.82.2-2.1.89-4.17.68-6.26zm-32.6-35.1l-.3.21c.1-.21.1-.21.3-.21zm-9.5 6.54c.98 0 1.73-1.45 2.7-1.45-.64 2.75-.39 2.65-3.4 2.08.2-.25.44-.46.7-.63.2 0-.1.21 0 0zm.8-.73l.6-.52c0 .31-.5.42-.6.52zm8.5 10.28l.8-1.04c.05.54-.09 1.79-.8 1.04.2-.31.1.11 0 0zm2.6-3.74c-.04.12 1.8-4.39.7-1.56 0 .96-.33 3.37-1.4 3.74-.05-.88.22-1.42.7-2.18zm3-.41c-2.43 2.55-2.15-1.58-1.4-3.53 1.38 0 1.13 2.58 1.4 3.53-.1.1-.3-1.04 0 0zm7.4 14.95c-.96-.33-.64-.94.1-1.45l-.1 1.45c-.3-.1.1-.52 0 0zm-9.3-19.83c-.23-.53.13-.14 0 0zm-2.2 7.47c-.06-.17-.63 0 .1-.62l-.1.62zm-8-12.56c-.03-.32.2-.5.7-.52.06.37-.17.54-.7.52zm-.3.21s-.1 0-.1.1c0-.1 0-.1.1-.1zm19.7 12.04c-1.56-.81-1.64-1.95-3.73-2.26-.63-.09-3.18-.22-3.18-.44-.32-.84-.49-1.7-.5-2.6 1.22 0 2.21-.35 3.2-1.04-.15.42-.07.46-.3.94.5.52 1.47-.37.8-1.14 1.66-.86 1.52-.1 2.2 1.47.71 1.62 1.19 3.34 1.51 5.07-.2-.1-.5-2.7 0 0zm-1.7-11.32c.62-.17 1.26-.24 1.9-.21-.45 1.51-1.54 2.54-2.7 3.53-.5-.83-1.19-1.55-2-2.08.68-.69 1.88-1.05 2.8-1.24.7-.2-1 .21 0 0zm-1.2 3.53c-1.15 1-2.68 2.09-4.3 1.97 0-1.24.63-2.3 1.43-3.18 1.29-1.4 1.88.18 2.87 1.21-1.2 1.04-.7-.72 0 0zm-2.5-2.18c-2.06 1.79-1.62 2.09-2.3 4.15-.93.01-.96-5.84 2.3-4.15zm-1.6-5.4c.42.85.27 4.57-1.3 4.57.28-1.54.52-3.18 1.3-4.57zm-.7 4.88c-.27.63-.9 2.61-1.1 3.01 0-1.19-.23-3.01 1.1-3.01zm-1.2.21c-.02.63-.08 1.25-.2 1.87-.39-.27-.76-.24-1.1.1-.32-.49-.66-.98-1-1.45.73-.36 1.49-.53 2.3-.52 0 .63-.6-.1 0 0zm-.4 3.74l-.1 1.14c-.5-1.57-.25-.2.1-1.14-.23-.71-2.89 2.33-.4 2.28l-.4.93c-1.17-.24-.86.65-.9 1.45 0-.41-1.71-.43-2.1-1.25-.87.3.34.33-1.1.83-.15.47.07.73.35.95.07.05 2.36.43 2.45.4-.76 1.26-2.54 2.2-1.7 3.53-1.9 1.71-2.16-4.86-2.6-5.09.17.97.09 1.79-.8 1.97-.27-.56-.9-.73-.9-1.36 0-1.15.6-.57.6-1.34-2.19-2.29 2.08-4.88 4.3-5.92.24-.05.33-.12.75-.31.72-.31 1.89 2.21 2.45 2.93zm-2.5-3.53c-2.22 1.21-4.2 2.8-6 4.57 0-1.33-.47-4.2-.1-4.78.17-.53 1.81-.99 2.14-1.21.78-.52 1.6-1 2.46-1.39.57.9.95 1.9 1.5 2.81zm-4-2.49c.1-.1.2-.21.4-.21 0 .1-.3.21-.4.21zm.8-.31c0-.1.3-.21.4-.31-.1.1-.3.1-.4.31zm.4-.32c0-.1.1-.1.2-.1 0 0-.1.1-.2.1zm.3-.2l.8-.42c-.2.21-.5.31-.8.42zm.3-1.77c-1.36.5-2.82 1.5-4 1.97.86-.44 3.57-2.86 4-1.97-1.4.52-.1-.21 0 0zm-.4-1.14l-.9.42c.63-.71.93-.85.9-.42zm-.3-.73c.46-.19-1.58.85-1.8.62.43-.22.95-.92 1.6-1.14l.2.52zm-.3-.83c-.5.31-1.1.62-1.6.83.5-.31 1.1-.62 1.6-.83zm-.1-.52c-1.66.99-3.26 1.8-4.7 2.91 0-1.09 4.1-3.35 4.7-2.91zm-.5-1.35c-1.42.89-3.01 1.72-4.5 2.49.85-.86 3.77-3.2 4.5-2.49zm-5-3.63c-.42-1.4-.65-3.78.4-4.98 1.68 0 2.88 4.62 3.45 5.98 1.3 3.08-.57 2.9-3.35 4.82-.29-1.93-.6-3.87-.5-5.82-.4-1.35-.1 1.87 0 0zm.3 6.12c-.1 0-.1.11 0 0zm-2.8 3.64c.96-.69 2.03-1.49 3.1-2.18 0 1.73-5.5 4.44-7 5.5 0-1.3 2.92-2.74 3.9-3.32zm-7.6 5.5c-.32.36-1.14.96-1.7 1.25.6-.37 1.17-.78 1.7-1.25zm-12.5-8.62c0-.2-.49.26 0 0 0 .11-.2.11 0 0zm-.3 5.51c0 .55-.04 0 0 0 0 .1-.2 0 0 0zm-7.4 216.83zm68.5-179.76c-.5.17-4.9.31-4.9-.88 0-1.21.72-2.34.5-3.58-.04.3.45-1.54.6-1.14-.26-.2-.46-.16-.6.1 0-2.49.26-4.53-1.14-6.44-.57-.78-.27-5.81-.86-5.3-.81.7-.22 3.01-1.2 3.01h-.3c.4-1.04.2-1.56-.6-1.56.06.99.04 6.72-.7 6.33.11.72.23 1.29.1 2.08-.51-.34-.41-1.44-.5-2.08-1.96.51-1.06-3.11-.9-4.36-.33.2-.73.45-1 .73-.08-.13.17-.46-.2-.31-.09 1.18-.84 5.43-2.5 4.57 0-2.2-.85-2.4-.4-4.52.26-1.21.23-3.05-1-3.38.18-.56 1.01-1.85.8-2.49-.2-.16-.4-.16-.6 0 .56-2.32-.07-3.45-1.2-5.4 4.32 1.21 7.58 3.68 10.9 6.44.92.81 2.56 2.72 3.81 4.01.93.97.5 2.09 1.29 1.91 1.92 3 5.26 9.54.6 12.26z"/></svg>