<svg xmlns="http://www.w3.org/2000/svg" width="100" preserveAspectRatio="none" viewBox="0 121 100 270" enable-background="new 0 121 100 270"><path fill="#1D1D1B" d="M57.67 378.92c.66-.23.18-.3 0 0zm-45.71-36.27zm38.92 26.7c-.59.16-.28.21 0 0zm-36.62-29.19c-.16-.2.09-.71-.4-.21.13.07.32.11.4.21zm0 22.34c-2.69.31 1.78 2.79 0 0zm-1.1 1.45c-.95.94.44 1.36 0 0zm-.6-13.2c.4-.31.4-.1.2-.62-.3-.21-.2.42-.2.62zm.2 4.16c.19-.21.55.19.4-.42-.59-.14-.2.21-.4.42zm.5-6.23c-1.57.3-.17 1.53 0 0zm0 4.78h-.6v.42c.74.2.37-.27.6-.42zm18.76 16.31c.22.23 0 .51.4.62-.07-.2 0-.27.2-.21-.06-.47-.38-.18-.6-.41zm17.56 2.5c1.45.38 2.5-.04 2.3-1.66-1.76-1.35-2.6.04-2.3 1.66zm-12.67-7.07c.01-.03.3-.08.2-.41-.66.17-.14.08-.2.41zm10.78 3.32c.83-.43 1.22.43 1.5-.62-.55-.19-1.12-.26-1.7-.21-.04.49.06.55.2.83zm-32.83-34.91c.38.6.35 1 1.2.83 0-1.07-.03-4.14-1.2-3.33-.26.18-.17 2.12 0 2.5zm15.76 31.17c-.13.41.22.02.2-.42-.67-.12-.11.16-.2.42zm.4-3.53c.2-.21.55.19.4-.42-.59-.14-.19.21-.4.42zm15.17 25.87c-1.53.16-.57 1.18.3.62-.12-.18-.3-.25-.3-.62zm-23.85-10.49c.67-.22.19-.3 0 0zm-1.7-22.55c.01-.03.3-.08.2-.42-.66.18-.13.09-.2.42zm33.83 25.46c-1.17 1.81 1.92.49 0 0zm-34.32-1.04l.6.21v-.42c-.33-.09-.63.21-.6.21zm.49-1.46c-.98 1.74 2.34.22 0 0zm25.15 9.67c.56-.84-.47-.95-1.43-1.18-1.07-.27-.62 2.96 1.43 1.18zm-26.04-16.52c.2.21-.19.56.4.41.14-.6-.21-.21-.4-.41zm29.23 12.78l.6.21v-.42c-.32-.09-.63.21-.6.21zm5.29-1.67c.13-.22.61.11.4-.62h-.4v.62zm-6.38 3.33c-.56 2.3 2.06-.97 0 0zm-1.6-.83c.39-.24.81.22.6-.62-.36.05-.56.26-.6.62zm-26.04-28.26l-.6-.21c.13.96.33 1.16.6.21zm-5.09 21.3l.6.21v-.42c-.32-.09-.63.21-.6.21zm.6-10.39c-.47 1.4 1.56.54 0 0zm13.57 8.1c-2.11-.03.62 2.23 0 0zm-12.98-21.92c.16-2.02-.95.99 0 0zm40.22 26.29c-.19.31.31.02.4-.42-.45-.08-.82-.02-.4.42zm-40.02-1.67v-.62c-.51.26-.47.37 0 .62zm3.7-5.82c-.17-1.88-.88.91 0 0zm-2.8 2.29c.3-.31.18-.64 0 0zm-1.3 4.36c.38-.03.58-.23.6-.62h-.8l.2.62zm.7-30.23c-.08-.69.11-.86-.6-1.04-.14.26-.21.53-.2.83.52-.04.49.12.8.21zm25.75 25.87c1.24.19 1.5-.62 1.3-1.87-1.09.22-1.55.78-1.3 1.87zm29.63 1.66c.38-.26.81.23.6-.63-.45-.04-.66.17-.6.63zm1.3 9.67c.23.41-.23.82.6.62-.05-.36-.25-.57-.6-.62zm-54.78-36.58c-.23.22-.6.04-.6.62.43.1.6-.08.6-.62zm53.28 40.73c.28.14.58.21.9.21-.15-1.06-.47-1.13-.9-.21zm-11.57-13.19c.66-.23.19-.3 0 0zm9.88 8c-.02-.31.56-.62-.4-.63-.13.54.25.31.4.63zm.3-.21zm-.9 5.4c.34-.1.55.22.6-.21-.4-.11-.53.19-.6.21zm.6-2.7c.27-.11.41-.32.4-.62h-.4v.62zm5.58.62c-.04.01.19.66.6-.42h-.4c.06.21-.01.35-.2.42zm2.3-5.19c.13-.22.61.11.4-.63h-.4v.63zm-8.08 0c-.22-.19-.55.17-.4-.42h-.4c.18.93-.11 1.58 1 1.46l-.2-1.04zm8.48-9.87c-.11-.21-.7-.87-.8-1.04 0 2.59-.21 5.53.4 7.9.81-.85 1.09-5.9.4-6.86zm-61.17-16.73c.3-.31.18-.64 0 0zm57.77 25.77zm-.39 6.02c.33-.1.5.51.8-.42l-.6-.21-.2.63zm-.2-5.82c-.44.07-.82.08-.6.83.79-.22.56-.56.6-.83zm-.6-3.84c-.02-.25.14-.36.2-.62-.27-.02-.32-.13-.6-.21-.48.83.11.49.4.83zm-8.48-1.45c-.3.02-.6-.58-.6.42.53.11.29-.26.6-.42zm-1.7 1.45c-.26 3.66 2.51-1.74 0 0zm.4-2.7c-.28 1.28.93.39 0 0zm-.6 2.28c.38-.1.51-.24.6-.62l-.6-.21v.83zm.4 8.63c.23.41-.23.82.6.62-.05-.35-.25-.56-.6-.62zm.8-12.99c.16.2-.09.72.4.21-.13-.07-.32-.11-.4-.21zm0-2.08h-.6v.42c.74.21.36-.27.6-.42zm-1.3 14.86c.01.07-.45.2.2.21-.01-.04-.26-.78-.2-.21zm.7-13.4c.25.14.51.21.8.21-.2-1.09-.39-.47-.8-.21zm16.27 7.69c.01.07-.45.2.2.21-.02-.04-.27-.78-.2-.21zm-13.78-9.56c-.58.15-.27.2 0 0zm1.3 15.48c.2-.21.55.19.4-.42-.59-.14-.19.21-.4.42zm-.8-1.04c.2-.21.55.19.4-.41-.59-.15-.19.2-.4.41zm1-1.45c.28.03.17.09.4.21.12-.65-.1-.19-.4-.21zm-2.29 7.06c-1.69.64.27 1.33 0 0zm.99-.21c-.12.43.22.01.2-.42h-.4c-.05.21.02.35.2.42zm-1.59-.41c.29-.31.17-.64 0 0zm3.79-1.87c-.13.42.22.01.2-.42-.68-.12-.12.15-.2.42zm-49.79-41.78c-.16-.2.09-.71-.4-.21.13.08.32.12.4.21zm16.56 18.81c-.58.15-.27.2 0 0zm24.95 12.26c1.41-.3.1-1.49 0 0zm-52.99-52.78c-.25-.39.24-.82-.6-.62-.05.45.15.66.6.62zm25.25 43.43c.61-.18.29-.3 0 0zm.8-3.11c-.2.21-.55-.19-.4.42.59.13.19-.21.4-.42zm60.37-43.65c.29-.31.17-.64 0 0zm-31.54 52.58l.2-.62h-.6c.07.26.39.58.4.62zm-.2 9.87c-1.66-1.69-2.4-.21 0 0zm-50.39-15.9c.3-.3.18-.63 0 0zm-1.49 6.03c-.02-.21.05.57.2.83.94-.58.65-1.18-.2-.83zm-.6-5.19h.6l-.2.62h.8c-.23-1.17-.88-1.67-1.2-.62zm-1.5-29c.2-.21.55.19.4-.42-.59-.13-.2.21-.4.42zm25.65 30.24c-.22.31-.4.18-.4.83.89-.31 1.4-.73 1.3-1.66-1.01 0-.69.16-.9.83zm-25.45-34.7l-.2.62h.8c-.1-.41-.22-.52-.6-.62zm1.9 26.39c.31-.47 1.22-1.04-.2-1.04-.02.37.05.71.2 1.04zm70.54 22.97zm-70.74-36.79c.4-.31.4-.1.2-.62-.3-.21-.2.52-.2.62zm27.74 24.21c.29-.31.17-.64 0 0zm10.17 7.07c.38-.25.81.22.6-.62-.4-.01-.59.19-.6.62zm42.31-57.36c.13-.22.61.11.4-.63h-.4v.63zm-47.39 50.08c-.25-.42.03-.62-.8-.62 0 .36.07.71.2 1.04l.6-.42zm-3 2.08c.43-.23.76.18.8-.62-.76-.18-.46.24-.8.62zm6.19-1.45c.61-.19.29-.31 0 0zm16.26 14.23c-.05.03.25.25.4-.21-.39-.18-.86-.28-.4.21zm20.76-14.02c.2-.21.55.19.4-.42-.6-.14-.2.2-.4.42zm-79.63-56.85c.67-.22.19-.29 0 0zm49.59 62.25c.27-.11.59.45.4-.42-.19.06-.33.2-.4.42zm3.2-2.5c.2-.21.55.19.4-.42-.6-.13-.2.21-.4.42zm-7.29 4.58c.67-.23.19-.3 0 0zm4.29-3.54c-.38.25-.81-.22-.6.62.42-.01.62-.22.6-.62zm-16.96-4.98c.33-.09.54-.15.6-.42-.31 0-.51.14-.6.42.4-.11.2-.32 0 0zm-29.24-190.16c-.77-.2-.99.17-.4.73l.4-.73c-.4-.11-.2.2 0 0zm2.2 26.7c1.07 1.27 3.75 1.73 4.19-.62.2-1.06-1.49-3.7-2.99-3.12-3.16-1.83-1.59 2.41-1.2 3.74zm-.5-9.97c.47-.49.1-.52-.2-.42.22.14.19.21.2.42zm1.79.72c-.47.27.09-1.02-.5.21.42.43.24-.05.5-.21zm-.69 1.56c-.37 2.39 1.43-.25 0 0zm-7.09 15.28c.06.19-.18.29.2.42.08-.21.01-.35-.2-.42zm12.18-9.77c-.1.42.02.41.3.31.2-.24.1-.35-.3-.31-.1.41.1.1 0 0zm-10.18-30.66l-.5-.31c0 .58.32.28.5.31zm10.28 34.92c.3-.27.3-.45 0-.52v.52zm-10.68-14.76c.1-.42-.02-.41-.3-.31-.2.25-.1.35.3.31.1-.41-.2-.1 0 0zm4.39-17.77c-.1.42 0 .11 0 0zm-.5 1.88c.44.39.8.36 1.1-.1-.59-.77-.96-.73-1.1.1.7.31.1-.21 0 0zm5.89 29.92c.59-.27 1.19-.11.5-1.04-.35.26-.52.6-.5 1.04zm-11.88-15.38c.5-.6.48-.34-.3-1.14-.47.6-.26.76.3 1.14zm0 1.15c-.39.13-.22.42-.3.73 1 0 .65-.1 1-.83l-.7.1zm9.08-17.25c-.1.41 0 .1 0 0zm-10.37 21.09c.04-.34.52-.4-.2-.62l.2.62zm2.79-68.79c.07-.1.5.06 0-.31-.02.05-.24.63 0 .31zm5.99 87.39c.3-.27.3-.45 0-.52-.11.18-.11.36 0 .52.1-.1-.1-.31 0 0zm-7.19-28.06l.4-.42-.5-.31c-.07.33.11.63.1.73zm-2.39 6.97c-1.87 1.05 1.44 1.49 0 0zm7.78 13.4c.06.19-.18.29.2.42.06-.19 0-.33-.2-.42zm-.9-7.27c.86 1.53 1.37-1.44 0 0zm-.1-5.61c.3-.27.3-.45 0-.52-.1.18-.1.35 0 .52.1-.11-.1-.32 0 0zm-.1-3.02c-.27.22-.05.26.4-.21-.27-.22-.54-.22-.4.21zm1.5 13.82c.17.55.33.23 0 0zm.1 12.58c.31-.32.23-.5-.1-.62-.31.29-.28.5.1.62.1-.11-.1-.11 0 0zm5.29-71.08c-.71-.41-1.47-.76-2.1 0 .9.47 1.69 1.28 2.1 0-.9-.52-.1.31 0 0zm.5 25.98c.3-.27.3-.45 0-.52-.11.18-.11.35 0 .52.1-.11-.1-.31 0 0zm-9.68 15.07c.14.11.17 1 .6.1-.24-.06-.41.05-.6-.1zm10.28-13.1c-.47.25.06-1-.5.21.34.39.24.06.5-.21zm-2.9 1.25c.1-.42-.02-.42-.3-.31-.2.24-.1.35.3.31.1-.42-.1-.1 0 0zm-7.88 25.98c.14-.39.33-.76.5-1.14l-.3-.21c-.34.56-.4.83-.2 1.35zm.6-19.85c.3-.27.3-.45 0-.52-.1.18-.1.35 0 .52.1-.1-.1-.31 0 0zm-1.6-.73c.18-.06-.1-.39-.5.1.31.28.64.47.5-.1zm12.47 35.75l.4-.42-.5-.31c-.08.33.14.44.1.73zm-.79-3.43c.19.1.29.19.3.42.51-.54.01-.53-.3-.42zm1.69-2.18c-.09-1.86-1.91.31-.1.52.08-.17.12-.34.1-.52zm-.8 8l-.3.73c.9-.13.31-.44.3-.73zm.7 5.92c.3-.27.3-.45 0-.52-.11.18-.11.36 0 .52.1-.1-.1-.31 0 0zm1.7-18.81c-.48.25.08-1-.5.21.3.34.32.18.5-.21zm-4.99 9.36c.48-.25-.08 1 .5-.21-.35-.39-.25-.06-.5.21zm1 2.91c-.17.17-.58-.07-.3.52.3-.41.08-.29.3-.52zm-1.9 7.48c-.18.19-.21.4-.1.62.03-.24.13-.28.3-.1.04-.1-.1-.57-.2-.52-.3.31.2-.11 0 0zm5.59-16.84l-.6-.52c-.14.88-.17.57.3 1.14l.3-.62zm-4.99 1.15c.3-.27.3-.45 0-.52v.52zm-1.7-2.81c-.48.25.08-1-.5.21.2.22.5.38.5-.21zm1.7 3.33c-.03.03.59.1.15-.21-.32-.22-.21.13-.15.31v-.1zm-8.48-5.41c-.06.04-.39 0-.5 0-.13.27-.1.52.1.73.33-.4.29-.51.4-.73zm-1.1-18.7c.26.18.13.17.3.42.52-.54.02-.53-.3-.42zm-1.4 2.7c-.12.08-.48.5 0 0zm1.3 2.08c.3-.27.3-.45 0-.52-.11.18-.11.36 0 .52.1-.11-.1-.31 0 0zm-1.5 11.95c.3-.27.3-.45 0-.52-.1.18-.1.35 0 .52.1-.11-.09-.31 0 0zm8.69 7.38c.6-.31-.47.82.5-.21-.2-.23-.5-.38-.5.21zm-7.59-14.45c-.61-.3-.08-.18-.8.42.01-.01 1.76.57.8-.42zm1.4 6.34c.45.34.44.95 1.1 0-.55-.73-.91-.73-1.1 0zm2.79-2.18l-.5-.31c-.43.87-.28.35.2.83l.3-.52zm5.29 6.03c-.37-.24-.34-.07.1.52.23-.24.33-.44.5-.73-.21.02-.41.09-.6.21zm-5.79-7.9c.13-.24.79-.28 0-.73-.4.42-.1.39 0 .73zm-.99-18.91c.3-.27.3-.45 0-.52-.11.18-.11.35 0 .52.1-.11-.1-.32 0 0zm0 10.49l-.5-.31c-.17.77-.18.9.3 1.35.23-.48.22-.7.2-1.04zm.4-1.45c.06.19-.18.29.2.42.06-.2-.01-.34-.2-.42zm7.58 154.31c0 .02 1.44.01 1.6.52 1.01-.46.94-1.99 1.2-3.01-.4.31-1 1.03-1 1.66-.01.78-1.32.15-1.8.83zm20.65 36.26c-.49-.13-1.16.83-.2.83-.02.08 1.1-.83.2-.83-.39-.1.2 0 0 0zm-18.76-35.43c-.25.06-.32.23-.2.52.14 0 .25-.43.2-.52-.1 0 .11.21 0 0zm16.47 26.29s.1-.1 0-.1v.1zm-.8-.21c0 .1.1 0 0 0zm.9-1.04c.1.11.1 0 0 0zm.1.11v-.1.1zm-14.57-30.45c.1.1.1 0 0 0zm20.16 32.11c-.1.1 0 .1 0 0zm15.56-3.95c.34-.35.12-.8-.4-.62-.21.42-.07.63.4.62zm-17.36 3.32c.1.11.1 0 0 0zm-1.2-.41c.17.18.51.11 0 0zm-1.19-1.46c0 .21.4.42.4 0-.2-.1-.3-.1-.4 0zm1.49 1.56zm.5.21c.1.1.2.1.3.1-.1-.1-.2-.1-.3-.1zm-15.46-19.43v-.1.1zm0 .62c0 .1 0 .1.1.1.19-.1-.01-.2-.1-.1zm.09-.31s-.1 0-.1-.1c.01.21.1.1.1.1zm8.09 20.99c.1 0 .1-.1 0 0zm1.49.1c0-.1-.1-.1 0 0zm-1.19-.52c-.1 0-.2.1-.2.21.1-.1.2-.1.2-.21zm70.25-144.23v-.1.1zm0-.31c.1.11.1 0 0 0zm-.2-1.76l-.1-.1c-.01.1.1.2.1.1zm-1.5-15.49c.2 0 0-.1 0 0zm1.2 14.45c.32-.05.23-.24 0 0zm.3-.21c0 1.35-.13 2.85.5 4.16.23-.49 0-3.99-.5-4.16zm-1.1-39.38c.1-.11 0-.11 0 0zm.1 1.03c.23-.24.19-.55 0-.83-.19.1 0 .78 0 .83zm-.1-1.34c.1-.1 0-.21-.1-.21 0 .1.1.21.1.21zm-.4 25.66v.21c.1-.11.1-.21 0-.21zm1.6 16.11c0-.11.1 0 0 0zm.1-39.7c-.1.1-.1.1 0 .21 0 0 .1-.1 0-.21zm-.2 37.41v.1c.1-.1.1-.1 0-.1zm-.11-4.67v-.21c0 .1-.09.1 0 .21zm-2.29-13.62c.1 0 0-.1 0 0zm.1.73v.1c.1-.1.1-.1 0-.1zm.1.73c0-.1.1-.1 0-.21 0 .1-.1.21 0 .21zm-1.3-22.45c-.01.18.29-1.42-.1-1.14.08.38.12.76.1 1.14zm1.3 22.24c.1 0 .1-.1 0-.1v.1zm-1.3-22.13s0 .1.1.1c0 0 0-.1-.1-.1zm1.75 25.32zm-.35-2.36c.1-.1.1-.31 0-.42-.1.11-.2.32 0 .42zm0 .83c.03-.03-.14-.55 0 0zm.2 2.5c.1-.1.1-.1 0-.21-.1 0-.1.1 0 .21zm-.1-1.88v-.42.42zm0 .52v.1c.1.01.1-.1 0-.1zm-1.8-1.76c0-.1-.1 0-.1 0h.1zm-.3-1.25v.1c.1.01 0-.1 0-.1zm0-.62c.1-.1 0-.21 0-.31-.09.1-.09.2 0 .31zm.1 1.04zm-.99 45.62c.1 0 0-.21 0 0zm0-.21c.1-.21 0-.42-.1-.62 0 .2-.1.41.1.62zm-.2-.73c.1.1.2-.1.1-.1l-.1.1zm.1 2.7c-.1 0-.1.11 0 0zm.1.73zm.39-63.18c.2 0 .2-.31 0-.42 0 .11-.09.32 0 .42zm5.59 44.37c.8-1.67-.73-7.46-1.1-9.35.46-.96-.85-2.25-.15-3.22.77-1.08-.22-2.34.35-3.53.24-.5-1.21-10.15-1.6-10.29 0 .74-.15 2-.1 2.49-.05-.05.45 2.29.4 2.39.02-.05.15 1.71 0 2.18-.23-.55-1.16-5.48-.7-5.72-.44-1.85-.72-4.52-.9-6.75.42-2.15-1.66-5.38-.7-7.38l-.6-7.07c-.58-.3-.93-6.15-1.2-7.17-.63.33 1.2 8.79 1.2 10.5-.12-.31-.21-.62-.3-.94 0 .38-.03.77 0 1.14-.1-.22.03-.44-.2-.52-.85 1.77.41 4.78.58 6.91.19 2.45-.16 7.46.92 9.72-.89 1.85.78 7.23 1.1 9.14 0 3.03.69 6.61 1.4 9.56.47 2.89.44 6.93 1.7 9.56.02-.54-.01-1.1-.1-1.65zm-5.48-40.32c.1.1.1.1.1.21-.1 0-.21-.1-.1-.21zm.09.52c0-.1-.1-.1 0-.21v.21zm3.2 19.43c.1.1.1.1 0 .21v-.21zm0 1.46c.1.21.1.42.1.62-.2-.1-.2-.41-.1-.62zm.1.73c.1.1.1.21.1.31-.2-.11-.2-.21-.1-.31zm0 .52c.1.1 0 .1 0 0zm.1.1c.1.1.1.31.1.52-.2-.21-.2-.31-.1-.52zm0 .73c.1 0 .1.1 0 0zm.2.62c-.1-.12-.13-.26-.1-.42-.03.16 0 .3.1.42-.1-.1 0-.1 0 0zm-3.6-27.64c0-.1 0-.21-.1-.31.01.1.01.31.1.31zm-.29.1c.12.77.15.08 0 0zm.09-1.14c0-.1.1-.1 0-.21-.09 0-.09.11 0 .21zm.5 14.24c.1-.21.1-.62-.1-.94-.09.31-.09.63.1.94zm3.99 13.92zm-1.39 38.03c-.1.11 0 .11 0 0zm0 0c0-.1 0-.21-.1-.21s0 .11.1.21zm-3.39-3.84c0 .1 0 .1.1.21 0-.11 0-.21-.1-.21zm.1.83c.1 0 .1-.21 0-.31-.1 0-.1.21 0 .31zm4.39.1c-.1 0-.1.1 0 .1v-.1zm-4.49-1.14c0-.1 0-.21-.1-.21 0 .11.1.21.1.21zm.1.21c0-.11-.1-.11 0 0zm-.1 2.7v.1c.1 0 .1 0 0-.1zm0-.21v.1c.1.01 0-.1 0-.1zm4.59-1.35c-.1.1-.1.1 0 .21 0-.1.1-.21 0-.21zm.3 2.18h-.1c-.1 0-.01-.1.1 0 0-.1-.11-.1 0 0zm.1 2.29c0-.1-.1-.1 0 0zm-.1-.73v.1c.1.01.1.01 0-.1zm-.2-1.87c-.1 0-.1.1 0 .1v-.1zm-4.69-55.49c.1-.35-.09-.09 0 0zm5.48 58.09c-.29-2.86-.09-6.71-.8-10.03-.34-1.6-.5-3.05-.7-4.62 0-1.05-.09-7.9-.9-8.31-.46-4.21-.79-8.54-1.3-12.78.71-.73-1.04-9.4-1.3-9.56 0-.52-.05-1.29 0-1.56-.58-1.78.2-5.25-.3-7.59-.1-1.07-.3-3.5-.3-5.09 0 .53.57 4.68.6 4.68.92-1.91-.5-5.93-.67-7.91-.23-2.63-.63-6.17-.63-8.3 0-4.41-.55-7.31-1-11.01-.21-1.7.58-5.59-.6-6.86.72-1.99-.6-5.53-.6-7.59 0-1.94-.9-4.75-.9-6.81 0-4.71-2.1-8.13-2.1-12.33 0-2.08-.94-3.87-1.25-6.41-.38-3.11-1-5.14-1.95-7.19-.43-.92-1.13-1.55-1.55-2.34-.05-.09-2.81-2.03-2.94-2.03-1.34 0-2.08-1.25-3.68-1.25-1.38 0-2.1-.42-1.96-1.64-.02.21-5.81-1.62-6.43-1.89-1.3-.57-1.09-.94-3.09-.94-1.15 0-6.03-.67-5.99.62-1.77-1.06-2.85-.67-5.39-.94-.44-.05-3.09-.32-3.49-.31-1.09.03-2.71.21-3.29-.31h-.3c-.92 1.11-3.65.3-4.69-.31.16.25.1.46-.2.62v-.62c-.06.02-.74.33-.5.31-.72 0-1.81-.12-2.79 0v-.62c-.27.1-.44.31-.5.62v-.62c-.06.04-.38.34-.3.31l-.5-.31c.27-.03-.34.34-.3.31-.14-.43.02-.1-.3-.31-.15.9-.22.34-.8.94l-4.89.94c-.07.72-3.45 3.01-4.29 3.27-1.89.59-3.65 5.25-4.74 5.25-.31 0-3.02 4.46-3.34 5.09-.65 1.26-1.14 2.6-1.2 3.95-1.15-1.51-8.96-11.74-10.88-10.5 1.38 1.02 2.14 2.96 3.08 4.37 1.63 2.42 3.36 4.78 5.09 7.13 1.2 1.63 1.78 2.24 1.7 4.2.01-.19-.47 1.25-.45 1.25-.04 0-.69 10.18-.73 10.96-.06 1.28-.32 3.12-.32 3.91 0 .49.49 1.35.2 1.65.11-.82-1.57 2.36-.93.67-.26.68.35 1.25.13 1.93.34 2.12.71 5.32.8 6.75 0 1.14 1.07 3.5.2 4.16 1.52 1.14-.6.99-.9 1.87-.4-.02-1.69.15-1.64-.02-.14.44-.4.85-.46 1.06l.2-.62c-1.3.27-2.22 4.45-1.3 4.99-1.57-.47-1.26.56-2.19 1.14 0-.44-.08-.17-.4-.52 0 0-.29 1.67-.1 1.97l.4-.21c.02.14-.01.14-.1 0-.04.99-.25 1.26-.6 1.97l.3.21.6-.52c-.12-.45.06-.78-.1-1.25.23.12.6.06 1 .21l-.2.42c.58.15.95.28 1.2 1.04-2.49-.86-.54 2.86-.7 3.53-1.01 0-1.91-2.38-2.59.1 1.12.59 1.54.05 2 1.04-.39-.34-.16.12-.46-.49.1.22-.45.14-.54.08-.13.89-.23 1.2-.6 1.87.7-.37 1.82-.16 2.89.21.12.03 1.7-.34 1.7.43 0 1.81-1.7 2.51 0 4.46-.21-.03-.31.11-.3.42l.3.21.05-.16c.1-.48.42-.33.95.47-.2.24-.4.28-.6.1.2.63.78.1 1.7.1-1.61 2.7.77 3.84 1.7 6.34-.82 1.07-1.59 2.18-2.29 3.33-.14-.23-.31-.35-.8-.52-.57 1.59.5.95-.44 2.65-.61 1.1-1.14 2.23-1.66 3.38.5-.75 1.06-1.73.25-2.23-.86-.54-.69 1.6.35.88-4.4 8.05-6.68 18.82-5.89 27.95l-.1-.52c.36 5.53 1.51 11.33 4.48 16.15 1.32 2.15 3.02 4.06 5.2 5.36.38.76.04 2.65-.1 3.52-.85 5.5.4 10.09.4 15.41 0 4.04.6 8.67.6 12.25 0 1.49-.3 4.29-.3 6.29 0 .64.34 3.9-.3 4.61 0 4.79.3 9.71.3 14.56 0 5.7 1.8 11.4 1.8 17.06 0 1.12.58 2.06.6 2.46 0 1.72-.71 3.48-.95 5.25-.06.43-1.25 6.08-.25 6.08.09-.14.13-.14.1 0-.23 0 .68-7 .9-7.69-.04 0 .26.11.4.1-.24-.39.05-.17-.3-.42.09-.35.25-.94.4-1.25.15 1.3 1.21 2.27 1 3.74-1.02 1.05-1.01 2.58-1.3 3.84-.96 1-.48 8.42-.9 8.42-.82-1.19-2.46-6.55-1.7-6.55-.16-.16.13-3.37.13-3.9 0-1.78-1.45-.05-1.12.99-1.13 1.2.34 7.83.85 9.41.59 1.84.84 2.41-.85 3.27.12 1.4 1.45-.74 2.6.52-1.97 2.06.55 4.59.9 6.03-.89-.1-1.46.3-1.4 1.25 1.53 0 1.57-1.48 3.39-.62.97.45.73.65 1.6 1.56.23.24.86 1.29 1 1.56 0 .71-.7 2.15.7 1.66 1.25 1.5 4.28 4.31 6.14 5.15 5.63 2.52 11.58 5.35 18.01 3.38.16 1.19.9.85.8-.1 2.11-.31 4.46-2.6 6.39-2.6 1.42-.82 3.55-3.3 5.09-3.22l-.4-.31c1.71-1.54 3.44-7.22 5.19-7.59 0 .97-.9 2.96.9 2.18-.45-.77-.7-1.66-.1-2.18l-.3-.94c1.18-.03 1.1.75 1.1 1.87h.3c.28-.97.44-2.31 1.1-2.8-.11.67-.03 1.49.2 1.97-.24.19-.15 0-.2.42l.4-.31c.66 2.49-.49 5.4-.4 8h.3c.37-1.96 1.13-4.75 1.4-5.92.43-1.88.02-4.7 1.3-6.03-.7-.37-.54-.86.2-1.25-.09.93-.79 3.01.2 3.12-.32 1.02 0 1.64 0 2.49-.3.26-.29.49-.6.93.1.26.27.86.3 1.56.53-.4.7-.79.8-1.56h.3c.13 1.54.32 2.99.6 4.16.77-.48.94-.61 1.8-.31.12-.41.22-.83.3-1.25-3.35.88.64-2.76-.7-4.16 0-1.51.65-2.08.7-3.64h.3c.43 1.06-.14 2.02.2 3.12l-.5-.31c-.33.76-.5 3.7.7 2.49h.5c-.18.5-.28 1.02-.3 1.56h.5c.18-1.86.35-3.87 1.1-4.99h.3c0 1.36-.41 1.09.01 2.31.31.9-.47 1.48-.21 2.78 1.27-.15 1.39-3.95 1.52-5.2.17-1.63-.37-2.79 1.68-3.22-.17 1.25-.5 2.06-.5 3.43 1.38-.63 1-2.88 1.1-4.16h.5v.94h.3v-.94h.3c-.08.88-1.08 1.84-.71 2.61.13.28.29-.49.21-.43h.3c.45.85-.26 4.22-.8 4.68 0 1.77.48 2.7.3 4.67-.1 1.07-1.66 4.82 0 5.71.1-3.14 1.73-4.73 2.1-7.79h.3c.03.41 0 .83 0 1.25h.5c0-1.98.9-3.11.9-4.89 0-.47.38-1.32.5-1.96.19-.99.87.93.27-1.09-.63-2.14.57-.52.72-1.71.13-1.01-.73-3.28.25-3.9.97-.61.07-2.69.65-3.48-.72-.69 1.1-4.74 1.1-6.35 0-2.39.57-7.59 1.9-10.07l.8.31c.1-3.72.95-8.91.45-12.05-.45-2.82 1.02-8.04.45-10.81.95-1.94.18-4.83.3-6.96.08-1.46 0-3.26 0-5.48 0-3.28.95-8.97 0-12.18.89-1.89.3-4.86.3-6.91 0-2.79-.21-5.58-.14-8.36.15-5.74.94-11.1.94-16.53.31.99.98 2.23 1.5 3.43 1.22-.51-.03-9.98-.3-9.98 1.14-.79 2.52 4.07 2.59 4.68 0-.01.64 1.27.8 1.66.72-.38.99-1.35.6-2.49.22 0 .27.46.3.52.17-.52-.21-1.78-.2-1.77-.43-.44-.46-6.32-.4-6.86.19 0 .63.88.6.83.19.6 0 1.73 0 2.29.4-.42.16 0 .4.21-.61-.1-1.28.04-1.89 0 .04.57.2.68.2 1.35l-.2-.21c1.18 3.01.16 6.2 1.5 9.46.03-.52.06-1.04.04-1.56zm-5.88-60.17v-.1.1zm-33.53 166.47c-.39.14-.84.68-1.2.93.41-.64 1-1.97 1.9-2.29.08.74-.31.82-.7 1.36zm-3.59 2.6h-.4c.07-.05.7-.52.7-.62v.31c.16-.17.29-.93.8-.93-.06.81-.49.6-1.1 1.24zm-17.96-6.23c0-1.94.68-3.18.9-5.09.52.72.5 2.08.5 2.91-.25.02-.34-.14-.6-.21-.2.61-.34 1.18.5.83-.29.83-.98.75-1.3 1.56zm-11.18-3.75c.19-1.01-.31-1.84-.1-3.01h.5v4.26l-.4-1.25zm-1.9-1.55c-.89 0-.23-5.11-.3-6.13h.3c.58 2.44 1.57 4.48 0 6.13zm-2.69.83v.21-.21zm7.78-3.85v.21-.21zm9.68 5.82c.12-1.03-.13-2.46.7-3.32.2 1.38.2 2.77.2 4.16-.11.09 0-.25-.3-.21-.32.66-.01.36-.7.73.04-.46.07-.91.1-1.36zm.8 1.25v.83-.83zm-26.54-223.93c-1.85-2.49-3.81-4.98-5.49-7.59 2.18 1.76 4.06 3.92 5.87 6.05.67.78 2.85 2.7 2.61 3.72-.16.65-.39.52-.4 1.45-.24-.36-3.13-3.97-3.02-4.03l.43.4c-1.7-2.29-.5-.63 0 0zm1.29 25.25c.26.54.13.74-.1 1.04.52.34.3 1.27.3 2.08-.12-.43-.98-2.72-.2-3.12.11.2-.39.2 0 0zm-1.99 33.35l.2-.62c.47.98.47.57 1.2 1.14-.19.4-.19.55-.5.83-.48-.33-.78-.78-.9-1.35 0-.2.1.63 0 0zm1.4 1.77l-.1-.52c1.45 1.52.37.05.7.83l-.6-.31zm-.2 62.24c-6.28-5.66-7.7-15.69-7.52-23.69.2-9.08 2.86-18.09 7.52-25.87.26.23-.15.17.2.42.73-.5 1.44-3.17 3-4.99 1.89 2.64-.27 9.45-.4 12.16-.11 2.33.18 4.74.27 7.08.04.99-.79 1.93.13 2.48-1.3 2.47-.94 9.07-.53 12.28.29 2.3-.53 5.13-.22 7.05.43 2.69-1.5 8.44-.45 10.5-.6.55-.38 2.84-.6 3.74-.52-.34-.98-.72-1.4-1.16zm3.99 91.34c.1-.78.2-2.59 1-3.01.1.7.01 1.99.4 2.39 0-1.48-.61-4.26.4-5.4-.08 1.62.75 3.52 1.2 5.3.5 2 1.19 3.56 1 6.44-1.15-1.34-1.31-3.3-1.9-4.88-.55.28.9 3.22.3 3.22-.79 0 .28-.48-.92.16-.7.37-.65-.95-.77-1.2-.35-.65-.71-2.43-.71-3.02zm1.89 2.19c.1 0 .1.1 0 0zm-2.39 6.44c-.46-.49-.4.46-.4-.52.28.09.21.31.4.52zm3.99 2.8l-.3.93c-.15 0-2.1-.72-2.1-.73-.09 0-.08-2.42.69-1.69 1.02.97 2.29-.53 1.61 1.58.33.11.27-.09.1-.09-.2.21.1 0 0 0zm7.68 9.98c-1.12 1.19-.56 3.77-2.61 1.26-1.14-1.4 2.47-3 1.41-1.88.66-.64 2.06-.26 1.2.62zm-.59-1.98zm.59.21c.5-.52.31-.9 1-.83 0 .21-.74 1.36-1 .83.1-.1.1.21 0 0zm15.87.94c-2.23 0-5.28-1.07-7.38-.62.07.13.17.23.3.31-1.35.7-4.71-2.75-5.09.21-.37-.2-2.91-.86-2.79-.73.04-.17.7-1.67.7-.73.28 0 .3-.91.3.1 3.19 0 .72-2.02.8-.42-.82 0-1.53-.63-1.7-.94l1 .21c-.24-.21-.98-.79-1.1-1.14.39.13.75.3 1.1.52 0-.34-2.48-1.53-2.79-1.56.24.78.06 2.64-.4 3.12-.55-.29-.06-2.68.3-3.43 0 0-.16-1.89-.8-1.56-.16-.31-1.74-2.22-1.6-1.66-.2-.75-1.43.97 0-1.25.05-.23.7-.59.7-1.04.42-.98.52-2.31.9-3.22.32.94.08 1.95 1 2.5.31-.82.3-1.72.3-2.91.19.05.25.3.4-.42-.18-.01-.31.06-.4.21.06-1 .39-1.9.5-2.91 1.11.58 1.38-.14 1.8 1.35-1.24.43-.43 1.94.1 2.29-.91 0-.05.06-.6.52.74-.07 2.14-2.49 1.4-2.49.64-.66 1.09-1.17.7-2.18h.3c.78 2.37.6 5.06.6 7.9h.3c-.04-.77.75-3.47 1.1-1.56h.5c.2-1.59.31-3.19.5-4.78v.62l.3-.21c0 .91.6 2.14.6 3.43 0 .78.28 3.18.6 4.36l.2-1.14h.3c.25 1.13 1.23-.09 2.2-.42-.05 1.64.66 3.74-1.16 3.74-.74 0-3.04-.2-3.73.62 1.23.21.28 1.45 2.11 1.45.74 0 .1.25.59.41.74 1.03 1.73.15 2.29 1.04 1.01 0 .93-1.64 1.1-2.18.29-.91 1.35-1.66 1.4-2.8-.71.47-1.2.82-1.5.21-.39.14-.88.86-1 1.04.17-1.33-.16-4.78 1.4-5.09-.17 1.19 1.32 1.56 1.23 3.35-.06 1.33-.23 2.77-.14 3.92 1.01-.28.98-3.77 1.9-2.49h.3c.14-1.44.46-2.79.8-4.16.29.48.46 1 .5 1.56-.09.02-.39-.18-.5-.21-.03-.06.5 1.7.5.42.16 1.28.41 3 0 4.26h.5c.1-1.5-.44-5.92 1.2-6.34-.55-.61-.6-1.61-.2-2.49h.5c-.08 1.2.12 2.19.2 3.43l.8-.31c.44.5-.19.3.5.62-.34.8-.08 1.03 0 2.18.46-.37.96-.68 1.5-.94-.09.83 0 1.43.3 1.87.64 0 .5-1 1.3-.93l.3.93c.2.03 2.48.12 1.8.83-.82 0-3.29 2.21-3.29 3.12-1.37 1.35-4.66 2.61-6.65 2.61zm4.99-.83c0 .1-.2.1-.3.1.1-.1.2-.1.3-.1zm-3.19 7.69c.71-.68-1.24-.42.8-.42l-.8.42zm6.98-4.16c-.28 1.8-1.64 1.2-2.7 2.29-.73-1.51-.58 0-.5 0-.55.57-1.75.9-2.49 1.14-.44-1.27-1.57-.14-1.4.21.1.37-.03.44-.4.21 0-1.49 1.3-2.9 1.3-4.26 1.14.25.57-2.51 2.2-3.22 0 3.34 3.99 1.61 3.99 3.63zm6.58-4.88c-1.12 1.17-2.22 3.54-3.84 4.11-2.57.89-1.75-.15-1.75-2.13.58 0 2.9-3.03 3.1-3.64.65 0 2.79-2.13 3.09-2.29.34 1.15.43 3.18-.6 3.95zm1.9-2.5c-.38.13-.84 1.01-1 1.35.2-.64.34-1.31.4-1.97l.5.31c-.11-.6.09-1.26 0-1.87h.5c-.16.49-.09 1.86-.4 2.18zm35.73-108.59zm-.21-.83c0 .1-.1.21.1.31.01-.1.01-.21-.1-.31zm.11.62c-.1 0-.1.11 0 .11v-.11z"/></svg>