<svg xmlns="http://www.w3.org/2000/svg" width="100" preserveAspectRatio="none" viewBox="0 121 100 270" enable-background="new 0 121 100 270"><path fill="#1D1D1B" d="M62.3 382.33c1.35 4.99 5.08 11.17 10.91 7.61 1.7-1.04 2.57-1.06 3.79-2.31 2.2-5.71 6.23-10.37 7.81-16.55.68-2.66 1.1-5.38 1.38-8.11.13-1.26.22-2.53.31-3.8.13-1.78.74-3.26.9-4.99.59.2.96.94 1.1 1.25.2-13.29-.4-25.87-.4-38.91 0-6.33-.25-12.57-.31-19.11l-.09-10.9c-.04-4.67-.69-9.81.3-14.39.66.68-.07 2.01.01 2.86.11 1.15-.01 1.44-.01 3.17-.09-.08-.13-.18-.1-.31 0 3.69-.62 7.38-.2 11.32.66-3.63.82-7.34 1.01-11.25.1-1.9-.28-4.34.29-6.1 0-1.69 1.35-9.08.4-10.07.61-1.26.43-3.83.52-5.22.17-2.81.21-5.61.46-8.4.43-4.87.93-9.81.93-14.53.05 0-.02-2.11 0-2.8 0-.72.56-4.44.2-4.57.16-1.75.6-3.57.6-5.36 0-1.12-.04-5.91.6-6.58.31.65.28 8.21.3 8.21 1.76-2.75-.51-8.49.45-11.48 1.4-4.39-1.1-9.8 1.05-14.28.06-.09.39-.22.1-1.04-.01.44.1.66.1.94-.18.19.06-2.33-.2-2.6.82-1.14-.43-3.99-.6-3.64-1.01-.7-.1-8.14-.1-9.05 0-4.88 1.36-10.99.3-15.67-.62 1.93-1.4-3.43-1.9-3.43-.8-3.33-2.4-2.15-2.4.31-.15-.28-.15-.56 0-.83-.18-.17-.35-.13-.5.1 0-2.33.39-8.32-1.1-9.35-.29-2-.6-3.35-.6-5.8 0-1.12-.42-3.43-1-4.48-.75-1.39-2.67-1.65-3.5-2.8-1.74.91-.2-.31-1.1 0v.31l-1.3-.62v.31c-1.47-.42-4.21-.85-5.2-1.95-1.47-1.64-2.15-2.31-3.5-3.04-.29-.16-2.33-1.36-2.4-1.56-.24-.76-2.55-1.98-3.25-2.58-1.02-.88-2.61.13-3.15-1.57-.89.23-3.2 2.04-3.2-.31-.41.03-1.18-1.37-1.7-1.97l-.3.21c.04-.21-.03-.6 0-.83-.56.44-.58.06-.8.1l-.3.52c-.44-.47-.81-.99-1.1-1.56-.4.84-.65 1.38-1 2.08l-.1-.62c-.12.25-.15.57-.38.69-.31.16.19-.5-.13-.38-.44.68-.73.4-1.3.52.33.34.67.02.2.52 0 .09.49.1.5.1-1.1.46-1.35.26-2 .93-.41-.05.01-.34-.6 0 .04-.92.65-1.04 1.2-1.45.34-.06.67.46.3-.52l-.6.42c-.02.04.08-.55.1-.62.4-.17.15-.19.4-.62-.62.64-.53.44-1.5.21 0-.3-.26-1.7-.9-1.04 0 .84.17-.07-.1.52-.87-1.64-1.63-2.9-2.7-4.57-.12 1.23 1.9 3.84 2.5 4.88-.49.24-.12.08-.5-.1-.27.32-.5.67-.7 1.04l-.5-.83c-.1.61-.85.25-1.2.52.55 1.44-.29 1.34-1.3 1.87 1.17 2.41-.47 4.03.8 6.13-1.38 0-2.51.18-3.1-.52.24-.49.8-.29.8-.62.45-.94-.23-1.04.2-1.77l-.2-.31-.6.42c-.19-.37-.23-.5-.3-.83.25-.06.18-.02.6-.21-.26-.25-.15-5.27-1.8-2.8 0 1.53 1.18 2.19 1.1 3.43-.8-1.66-.43-.16-.5.1-.25.09-.53.21-.8.21-.02-.27-.01-.86 0-1.04.51-.12.42-.35.6-.52-.99.16-1.22-.98-1.9-1.87-.75.65-3.1 1.97-3.1.1-1.62.56-1.39-.36-1.7-1.66-.07-.01-1.2.1-1.15 0-.43.9.22.67.85.73-.55.33-1.53 1.34-.5 1.87-.38.17-.61.25-1 .21-.06-.59-.13-.18-.5-.73l.4-.31-.2-.31c-.79 1.04-1.71-.1-2.5-.42-.64.67-.74.99-.3 1.56.64-.22.64-.33.8-.83.23.71.24.65.8 1.04-1.05.73-1.3.73-2.3.1.75 1.12.4 1.58 0 2.8-.26-.22-.43-.5-.5-.83l-.3.52-.1-.62c-.97-.26-1.39-.91-2.41-.03-.7.59-1.87 2.17-2.61 3.3-.56.84-.69 2.11-1.42 2.76-.43.38.22 1.77.15 2.39-.35.06-.68.16-1 .31 1.9 2.97-.05 2.92.59 5.38.51 1.96-.28 3.9-.49 6.15-.59 6.49-.68 12.82-1 19.12-.53 10.01-.48 21.49-.2 32.41-3.5-6.07-2.14 2.33-2.65 4.47-.38 1.58.37 3.73.65 5.3.4 2.95.62 5.92.79 8.89.05.96.96 5.07-.49 5.45-1.21 2.04-2.56 4.38-2.23 6.85.25 1.86 1.39 3.33 2.33 4.89 1.04.36-.5 5.47-.5 6.75-.08-.17-.8-1.35-1.2-1.35-.84 1.73 1.3 1.66 1.3 2.08.23 3.07 1.04 5.49 2.4 8.31-.72-.27-1.46-.51-2.2-.73.62-1.33-1-1.72-1-.21-1.65-.25-4.99-1.36-6.53-.22-2.95 2.18.87 8.11 2.37 10.02 1.23 1.57 3.56 4.69 2.86 6.3-.83 2.6-3.8 2.44-3.8 5.71.49-2.11 1.72-3.01 3.31-4.51.68-.64 1.25-1.63.94-2.61.23.73.5-3.33-.45-1.4-1.43-4.18-7.56-8.09-5.1-13.19.99-1.03 3.41-.31 4.57-.17.38.05 2.61.84 2.53.9 2.19-.99 3.2 2 4.3 3.64 0 .82-.9 1.7-1.07 2.99-.04.28-.41 3.68-.52 3.56.55.57 1.49 1.01 1.39 1.96-.26 2.35 1.01.74 1.41 2.66.29 1.39.22 2.56.12 4.09-.09 1.38-.32 3.28-.61 4.69-.1-.21-1.26-.73-1.49-.26-.73 1.53 1.32.92 1.39.78-.17 2.58-1.69 7.56-.8 9.24-.65 2.37-.6 6.32-.6 9.04 0 3.42-.6 7.11-.6 10.39 0 7.56-.8 14.06-.8 21.75 0 6.42 1 13.35 1 19.91 0 1.22.6 2.47.6 3.82 0 2.83-.06 5.85.15 8.84.22 3.12 1.17 6.42 2.05 9.45.35-.11.77-.15 1.1-.31.41.49 1.59.49 2 0 .3.27.81.34 1.1.62 2.56-.88 2.82 4.21 5.3 2.18.41.18 1.28-.06 1.7 1.25.86-.44 1.4-1.04 2.2-.62.25-1.37 1.13-4.66 2.9-4.05.13.37 1.26 2.18 1.64 2.18 1.9 0 1.1 1.86 1.62 3.5-.1-.31.84-.68.84-.23 0 .6.2 2.1.2 3.04 0 .79-.23 3.65.2 4.59.26-2.88 1.1-9.04 3.92-10.64 1.2-.68.62 2.91.61 3.36-.03 2.02.2 3.97.67 5.93 0 1.85-.81 4.05.9 5.09.12-.58.18-1.17.2-1.76 1.12 2.62 4.47 5.65 6.19 1.49.4-.96.61-7.82-.79-7.82-.5 0-.35 9.17-2.51 6.74-.75-.84-3.65-7.44-.93-6.77.45.11 1.35 5.4 1.92 3.76.42-1.19.96-5.86 2.31-3.74.07-.35.17-.7.3-1.04 1.44 1.32 2.58 3.02 4.18 4.29zm-38-126.71l.1.83c-.49-.09-1.19-.33-1.6-.62.46-.38.96-.45 1.5-.21zm68.2-41.96l.2-.1c.1.3-.2.3-.2.1zm.5-2.29c-.13-.21-.13-.42 0-.62v.62zm.1-.83c-.1 0-.2-.21-.1-.21l.1.21zm-74.6 3.12c-.35-2.95-2.32-9.94-.3-12.57 2.82 0 2.46 10.94 2.51 12.92.06 2.32.29 3.99.29 6.2 0 3.12.73 2.73-1.7 5.61.2-4.08-.4-8.13-.8-12.16-.3-2.5.4 4.04 0 0zm3 10.28c0 1.1-.14 2.5.1 3.12.18-.22.18-.39 0-.52.42 2.06.28 4.04.5 6.13.26 2.39-.17 2.32-1.8 4.57l-.51-6.38c-.27-3.26-.65-4.48 1.71-6.92zm-4.9 9.76c-.29-2.63 1.44-4.78 2.6-6.96.41 0 .57 6.05.6 6.65-1.05-1.08 0 1.89 0 .94.15 1.88.39 3.02-.4 4.67-1.24-1.64-2.62-3.14-2.8-5.3-.3-2.7.2 2.39 0 0zm3.4 5.09c0 .21-.2.1-.1.42-.2-.11-.1-.52.1-.42zm1.3 16.31c-2.32-1.35-3.03-7.5-3.05-10.22-.02-3.09 1.72-7.54 4.25-9.51 0 6.17 1.1 13.16 1.5 19.84l-2.7-.11zm-.2.41c.33-.07.63 0 .9.21-.34.19 0 .57 0 1.56-.34-.57-.64-1.16-.9-1.77.2-.31.3.52 0 0zm1.4.42c.48.1.95.42 1.4.62-.56.29-.78.86-1.2 1.14-.21-.57-.28-1.16-.2-1.76zm41.5 126.3c-1.1-3.19-1.52-6.72-1.7-10.08 2.83 2.75 4.86 6.51 7.1 9.76-1.73.91-3.6 1.17-5.4.32zm3 5.51c-1.19-1.13-1.95-2.63-2.5-4.16 1.88.59 3.81.28 5.5-.73 1.14 1.48 1.8 3.27 3.2 4.57-1.82 1.42-4.38 2.2-6.2.32-1.1-1.04 1.8 1.86 0 0zm9.8-4.47c-.62.93-1.69 2.79-2.7 3.32-.85-.77-1.42-1.79-2.1-2.7-1.15-1.99-.7-1.54.83-3.19 2.39-2.6 3.61-5.86 4.67-9.17-.22 3.86-.13 7.94-.7 11.74zm5.4-19.22c.13-1.02.76-1.71 1.7-2.08-.68 7.04-2.38 13.46-6.1 19.53.27-6.41-.61-14.52 2.2-19.63.98-.41 1.33 2.05 1.3 2.49.3-.1.6-.2.9-.31zm-8.5-3.63c2.7 2.85 1.8 5.39 1.8 9.25h.4c.12-1 .36-2.27.9-3.12.94 4.86-2.34 11.94-6.4 14.75-1.62-2.7-3.54-5.26-5.4-7.79 3.6 0 5.28-4.24 5.82-7.2.13-.71.03-7.87 2.88-5.89zm-10.7 10.18c.39-.4.35-.71.9-1.04v.94c.91-1.58 1.07-6.31 3.5-6.75-.03.25.04.46.2.62l1.4-3.99c.68-1.94 1.3 1.03 1.23 1.79-.22 2.38.47 4.61-.8 7.36-.56 1.22-1.39 2.4-2.57 3.09-2.21 1.26-2.73-.46-3.86-2.02zm-3.9 6.02c.09-.67.6-4.1 1.5-4.57.15 2.88.58 5.69 1.1 8.52-1.09-1.14-1.92-2.53-2.6-3.95zm-44.4-90.16c-.1 0-.1.21 0 .21 0-.1.1-.1 0-.21zm-2.6 10.81c-.1 0-.2.1-.1.21.1 0 .1-.11.1-.21zm.2-11.43c-.4 0-.3.62.1.62.1-.2 0-.51-.1-.62zm1.1 5.72c.31-.39.4.88.4-.52-.35-.02-.49.16-.4.52zm5.1-29.61c.23-.24-.02-1.32-.41-1.43-.99-.27-.14 1.43.41 1.43.1-.1-.2 0 0 0zm-7.9 14.44c0 .99.39-.41 0 0 0 .21.1-.1 0 0zm3.3 1.14c.82 0-.55-.57 0 0zm3.6 21.71zm1.9-30.95c-.08-.84-.91-1.48-1.6-.52.07.04-.49-.62-.4-.52-.54.19 1.19 2.71 2 1.04zm-.7-10.08c.4-.73-.3-1.35-.8-.83-.5.94.4 1.56.8.83zm-1.5 19.74c0 .23.33.3 0 0zm.7-23.16c-.1.31.3.31.2 0h-.2zm-3 56.29c-.35 0 0 .48 0 0-.1 0 0 .11 0 0zm1.8-44.25c-.06.03 1.49.33.42-.53-.36-.07-.5.11-.42.53zm2-7.68c-.87 0 .65.68 0 0-.1 0 .1.1 0 0zm-1.1-.52c-.49.5.83 0 0 0-.1.1.1 0 0 0zm0 50.89c-.04-.37-.24-.54-.6-.52-.3.93.27.87.6.52-.1-.31-.2.21 0 0zm-.9-53.28c-1.06-.24.36 2.21 0 0zm-.8 18.7c-.1.21.1.41.2.31.1-.21 0-.31-.2-.31zm.1-18.91c-.04.05.62.07.19-.29-.31-.25-.19.24-.19.29zm1.2-.31c-.34-.35-.49-.04-.5.21.25.15.5.18.5-.21-.1-.1 0 .21 0 0zm-1.3 2.08c0 .21.2.21.4.21.2-.32-.3-.52-.4-.21zm.6 7.48c.2 0 .3-.31.2-.63-.5-.31-.6.73-.2.63zm-3.1 12.98c-.84 0-.38 1.1.1.73l-.1-.73c-.2 0 .2.21 0 0zm-12.6-4.57c-.56 0-.96 1.04-.3 1.04.46-.23.56-.58.3-1.04-.1 0 .2.42 0 0zm-.8-3.64c0 .21.1.21.1.31.2.01 0-.31-.1-.31zm7.6-35.1l-.27-.56c-.57-.34-.74 1.16-.03.97l.3-.41c0-.52-.2.1 0 0zm-6.2 13.91c-.21-.43-.97-.11-.58.35.42.22.62.11.58-.35-.1-.2 0 .11 0 0zm.6 23.38c-.1.11-.1.52.2.42.1-.22 0-.63-.2-.42zm6.2-14.75c.58 0-.41.43 0 0 .2 0 .1-.11 0 0zm6.8-13.19c-.09.09.35.51 0 0zm-6.3 35.41c-.1 0-.2 0-.2.1.1.21.3.11.2-.1zm-5.7 5.51c-.12-.26-.24-.27-.36-.04 0 .33.12.34.36.04-.1-.11 0 .21 0 0zm11.1-39.89zm-.5-7.16c-.5 0-.5 1.14.2.73.1-.42 0-.73-.2-.73zm-4.3 38.95c-.3-.41-.7.42-.2.42.1-.01.2-.01.2-.42zm-1.7 1.76c-.1-.1-.2 0-.2.21.1 0 .3 0 .2-.21zm2.8-.21c0-1.02-.46.48 0 0 0-.1-.1.11 0 0zm-2.2-17.86c-.79.42-.91.95 0 0-.2.11-.1.11 0 0zm-.3 28.36c-.2 0-.31.39 0 0zm-4.9-21.82c-.8-.11-.4 1.04.1.62 0-.3 0-.51-.1-.62zm6.4 15.48c-.6-3.05-.92 2.81 0 0-.1-.52-.1.31 0 0zm-1.1 2.49c-.25 0-1.17.09-.56.8.36.43.8-.45.56-.8-.1 0 .5.73 0 0zm-4.8-28.87c0-1.7-1.75.12-.6.52.27-.09.47-.26.6-.52 0-.21-.2.21 0 0zm3.5 7.37c-.4 0-.3.83.3.62.1-.41 0-.62-.3-.62zm-2.5 16.72c.1-.52-.8-.42-.6.1.1.53.6.01.6-.1zm1.3 4.05v-.1c-.2-.1-.2.21 0 .1zm1.1-6.02c-.98 0 .6.62 0 0-.2 0 .1.1 0 0zm4.1 24.31c.05 0 1.21-.16.47-.47-.33-.03-.48.12-.47.47.1 0-.1-.52 0 0zm9.8-53.81c-.47-.49 0 .8 0 0-.1-.1 0 .21 0 0zm.9-6.23c-.1-.1-.2 0-.2.21.1 0 .2 0 .2-.21zm-2.1-9.97c-.56.15 0 .15 0 0zm4.3 20.46c.16-.17.13-.31-.1-.42-.09.14-.19.42.1.42zm-1.5-.1c-.37.48.11.11 0 0zm-.3-12.47c-.42-.23-.52-.15-.31.25.27.07.38-.01.31-.25zm-3 29.81c.76.79 0-.76 0 0 .1.11 0-.2 0 0zm-1.1-7.37c0 .1.2.1.4 0-.2-.73-.5-.21-.4 0zm.7 10.28c-.1 0-.1-.1-.1-.21-.9.11 0 1.25.1.21zm.3-3.94c-.3 0-.4.21-.3.52.4.41.6-.32.3-.52zm-.7 12.67c-.3.21-.2.52-.1 1.04.9.52 1.3-1.25.1-1.04zm.4.83c.1-.1.2-.21.2-.52.1.21.1.62-.2.52zm.2-22.44c.1.24-.36.28.1.42.16 0 .24-.59-.1-.42zm.3 13.71zm-2.4-22.12c-.31.22 0 .21 0 0zm5.9 20.25c-.1-.1-.1-.1-.1-.31-.4 0 0 .62.1.31zm-10.3-1.66c.13.53.04 0 0 0zm5.4-27.11c-.3 0-.2.52 0 .31 0 0 .1-.2 0-.31zm-.3-3.74c0-.31-.1-.52-.4-.52-.5.11.1 1.04.4.52zm5 33.86c-.09-.77-.15 0 0 0zm-.9 5.51c-.2-.1-.2.21-.1.31.1 0 .1-.11.1-.31zm2.1-28.46c-2.29-.88.44 1.84 0 0zm-2.1 34.69c-.1 0-.1 0-.1.1.1 0 .1 0 .1-.1zm-.2-3.63zm1.4-39.27c-.3.21 0 .73.3.52.1-.21 0-.62-.3-.52zm-4.4 36.25c.94-.98-.89 0 0 0 .1-.1-.2 0 0 0zm3-10.49c-.1 0-.1.1-.1.21.1 0 .2-.1.1-.21zm-1.9-3.32c.42.22.75-.58.5-.83-.45-.47-.91.4-.5.83.4.21-.1-.11 0 0zm.7 4.88c-.29-.34-.42-.27-.4.21.25.18.38.11.4-.21-.1-.1 0 .31 0 0zm-.5 13.61c-.1-.24-.23-.27-.4-.1-.36.74.61.1.4.1zm.2-15.69c.16-.37 0-.53 0 0zm1.2 14.65c.1-.1.1-.42-.1-.52-.3.1-.1.52.1.52zm-3.6-17.14c0-.21-.17-.27 0 0zm-.2-5.3c.1 0 .2-.1.2-.21-.1.01-.2.01-.2.21zm2.7-4.88c-.31-.22-.44-.12-.4.31.33.05.47-.05.4-.31zm1.1 17.55c1.15.4 1.1-2.72 1.1-3.32-1.03-1.44-1.11 1.21-1.27 1.43-.81 1.05-.28.49.17 1.89.3.11-.1-.31 0 0zm-1.8-12.15c.29-.16 1.38-1.06.9-1.56-.42-.57-1.54 1.56-.9 1.56zm1.8 8.31c-.19-1.19-1.18-.58-.7.42.31-.02.54-.16.7-.42-.1-.62-.2.11 0 0zm-.3 9.14c-.51-.54-.65.42-.5.42l.5-.42zm-.5 22.33zm.4-18.69c-.66.68.56 0 0 0zm-.3-.31c-.33-.34-.49.52 0 .52v-.52c-.1-.11.1.2 0 0zm.9-14.23c-.3 0-.27.52 0 0zm-.9 3.84l.1-.42c-.6-.62-.8.94-.1.42zm-.3 5.61c.62 0 .85-.73.1-.73-.19.22-.22.46-.1.73.1 0-.2-.31 0 0zm0-3.53c-.01.08.94-1.18 0-.94-.3.31-.3.62 0 .94zm.5 4.36c-.1-.1-.2 0-.2.11.1-.01.2-.01.2-.11zm-.6-4.16c-.1.42.2.42.4.42 0-.31-.1-.52-.4-.42zm.3 11.53c-.34.11-.15.32 0 0zm74.2-59.3v-.1c-.1-.01-.1.1 0 .1zm-.1.62c.1-.1.1-.1 0-.21 0 0-.1.1 0 .21zm0-.52c-.1 0 0 .1 0 .1 0 .11.1 0 0-.1zm.1-.31v-.1c-.1-.01-.1.1 0 .1zm-.3 3.01v.21c.1-.1.1-.31 0-.52v.31zm.1-1.45c.1-.21.1-.31 0-.52 0 .1-.1.31 0 .52zm0 .93c-.08.08 0-.93 0 0 .1-.1 0-.21 0 0zm2.7-27.94v.21c.1-.11.1-.11 0-.21zm2 2.08c.24-.24.25-.71.2-1.04-.14.35-.12.69-.2 1.04zm.2-1.56c.1 0 .1-.31 0-.31-.1.1-.1.21 0 .31zm.7 3.01c.1-.1.1-.1.1-.21-.1 0-.1.11-.1.21zm-5.7 25.87c.1 0 0-.1 0-.1-.1-.01 0 .1 0 .1zm-.9 18.69c.1 0 0-.1 0 0zm.3-1.66v-.1c-.1-.01-.1.1 0 .1zm-.3 2.59c-.1-.1 0 .11 0 0zm-.1-2.18zm0 1.04s.1.31.1.21l-.1-.21zm.2 0c-.27 1.12-.33 2.54-.1 3.74.19-.53.8-4.78.2-4.99l-.1 1.25c-.1.42 0-.31 0 0zm1-18.48c-.1-.11-.1 0 0 0zm-1.3 21.08v-.1.1zm0-.31v.1c.1 0 .1-.1 0-.1zm1.5-20.67c.1-.1 0-.21 0 0zm0 .21c.1 0 0-.11 0 0zm-.1.41c.1-.1 0-.1 0-.21v.21zm-.2-.21zm-.1 11.01c.1-.1.1-.1 0-.21 0 .01-.1.11 0 .21zm-1.4-15.89c.1 0 0-.1 0 0zm.1-.93c-.1.1-.1.21 0 .31.1-.1.1-.21 0-.31zm-.1.62c.1 0 0-.1 0 0zm.2-1.77c-.1.31-.1.73 0 1.04.1-.2.1-.62 0-1.04zm-.3 3.64h.1-.1zm.1-1.35v-.21c-.1.11-.1.21 0 .21zm0 .42zm2.1-17.25c0 .1-.1.31 0 .42 0-.21.1-.31 0-.42zm.2-12.88c.1 0 .1-.1 0-.21-.1.01-.1.11 0 .21zm-.5 13.71c0-.21.1-.31 0-.52v.52zm-1.7 9.46c-.03-.03.08-.57 0 0zm2-21.3c0-.1 0-.21-.1-.21 0 .01.1.11.1.21zm.2-2.07l.1-.1c-.1-.11-.2-.01-.1.1zm-.2 12.04c0-.1.1-.1 0-.21-.1.11-.1.11 0 .21zm-.1.21c-.1.1-.1.31-.1.52.2.11.3-.31.1-.52zm-6.9 77.07zm-.1-.21v-.21c0 .01-.1.21 0 .21zm.2-2.38c-.1.1-.1.1 0 .21 0-.11.1-.11 0-.21zm-.2 2.9c0 .1-.1.21 0 .31v-.31zm9.2-85.06c-.01.02.59-1.45.1-1.45.02.48-.01.97-.1 1.45zm-9.1 82.05c.1 0 .1-.1 0-.21v.21zm6.3-40.51zm-6.5 44.46zm7.2-89.95l.1.21c.1-.11 0-.21-.1-.21zm-.9 34.69c-.1 0-.1.1 0 .21.1 0 .1-.11 0-.21zm1.6-32.09c0 3.53-.01 7.82-.7 11.43-.01-.38-.07-.76-.1-1.14l-.2 1.35c-.6-1.25-.38 1.86-.3 2.49-.64 1.96-.2 6.08-.55 8.65-.52 3.79-.59 7.76-.85 11.55-.34 4.98-.4 9.92-.59 14.85-.13 3.54-.16 7.1-.31 10.65.02 1.18-.35 3.42.2 4.57.43-2.64.54-5.35.6-8 .49-2.03-.49-4.5.15-6.49.54-1.68 1.73-7.63.85-8.67-.33-.68.16-2.87.2-3.74.06-1.19 1.09-5.11.3-5.92 0 .76.08 2.91-.7 2.91.03.05.1 2.5 0 2.8.02-.14-.05-.21-.2-.21.15.38-.05 2.39-.2 2.7-.82-2.46.4-6.23.4-8.31 0-10.66 1.7-21.96 1.7-32.82-.62-.01.3 1.38.3 1.35zm-2.2 43c.1.1 0 .21 0 .21v-.42c.1.1 0 .1 0 .21.1.1 0-.11 0 0zm0-.42c0-.1.1 0 0 0zm0-.41c-.1-.21 0-.42 0-.62.1.3 0 .41 0 .62zm.1-.94c-.1-.21-.1-.31 0-.42.1.21 0 .32 0 .42zm0-.41c-.2-.21-.1-.62 0-.83.1.31.1.51 0 .83zm.3-2.5c.1.1 0 .21 0 .21-.1-.1 0-.1 0-.21zm.4-23.47c0-.1-.1-.21 0-.21v.21zm0-.31c-.1 0-.1-.21 0-.31v.31zm-.1 18.38c-.1 0 0 .11 0 0zm-6.3 54.22c-.1-.1-.1.1 0 .21.1-.11-.1-.21 0-.21zm-.2 1.66c0-.1-.1-.1 0 0zm6.4-54.84c-.1 0 0 .1 0 0zm-6.3 54.01v.21-.21z"/></svg>