<svg xmlns="http://www.w3.org/2000/svg" width="608" height="40" viewBox="-284 680 608 40" enable-background="new -284 680 608 40"><path d="M-230.01 705.84h.03l.19.02-.14-.15-.04.1-.04.03zm15.67-6.25c.78.24-.02-1.73 0 0zm-37.16.4c-.09-.09-.19-.15-.31-.19-.27-.08-.33.2.31.19zm17.66-9.74c-.04.06-.08.14-.09.26.15.03.14-.22.09-.26zm540.1 18.35c.14-.35-.27-.69 0 0zm-402.89-16.65c.19-.79.24-1.59.1-2.35-1.21-.5-.56 1.78-.1 2.35zm272.63 12.09l-.13-.03c-.01.08.1.06.13.03zm-252.69-14.69c-.02.86.04 1.64.14 2.38.38 1.4 1.34-2.95-.14-2.38zm246.79 10.06c-.08-.2-.25-.36-.47-.48-.08.03 0 .21.47.48zm50.66 9.91c.28.25.45-1.46 0 0zm-31.02-5.89l-.21.13c.13.02.42-.01.21-.13zm-38.24-3.87l.16.12c.01-.03-.01-.11-.05-.16l-.11.04zm81.07 13.92l.08-.04-.08.04zm-18.16-1.86c.06.34 1.05-.08 0 0zm18.52 4.89c3.18 2.22 9.26 2.59 7.17-3.32 4.07 1.65 11.42.65 15.77.4 3.32-.19 8.06-3.72 9.63-6.14.24-1.95-2.99-3.4-3.4-5.03-1.08-4.28 3.12-6.13 6.19-3.47 4.57 3.95 4.71 1.74 9.01-.66 4.09-2.28 8.58 3.47 4.74 6.29-.89.42-1.78.85-2.66 1.29-.47.43-1.75 4.61.3 4.02 1.22 4.47 5.37 3.37 6.79.07 1.5-3.47 6.05-2.91 3.48-6.9-3.29-5.1 3.48-5.26 6.26-5.09 2.48 2.27.34 4.78.44 7.76 1.11 1.43 5.33 3.91 7.09 3.59 2.61 1.39 3.85 3.21 8.42 3.01 5.13-.21 5.85.33 8.57-4.02 2.5-4.05-1.75-3.29-3.35-6.93-1.62-3.68 1.03-3.43 2.87-4.19h3.75v-17.19h-608v22.5c1.72-2.41 5.24-3.69 7.1-.41 2.15 3.8 6.61 3.85 7.82-1.39 5.25-1.3 5.01 3.03 8.61 4.2 3.03.98 6.01-1.6 4.09-3.48 1.9-2.55 15.92 4.75 13.88.43.36-.09.61.06.74.43-.39-2.15 3.36-3.24 5.32-2.02-.86.14-3.98-.2-4.14 1.15 5.25-3.08 4.45 3.64 6.5 5.02 2.87.46 3.82.09 4.1-.58l-.03-.01c-.75-.12-.33-.5.08-.13.3-1.11-.85-2.9 1.17-3.44.67.39-1.38 2.51 1.33-.15-.49.09-.98.09-1.48 0 1.15-1.2 2.22-1.4 3.84-1.57-1.04.5-2.12.88-3.25 1.14 1.68.81 3.46-1.19 5.67.28 3.08 2.04.15 4.34 1.13 7.18 2.23.56 6.45 4.07 6.89.07 2.83.8 5.35-3.35 7.92-3.99.87 6.47 13.08.79 17.3 3.14.53-3.52-1.73-18.43 3-18.49.78-.01 3.86-.54 4.47-.06 2.09 2.78.88 7.37-.71 10.08 3.55-1.27 7.65-2.61 7.8-7.1.1-2.89.44-2.88 3.4-3.36 4.02-.66 4 .43 4.89 3.73.64 2.35.91 3.9-1.42 5.17-1.88 1.02-4.29 3.78-6.08 1.05-2.14-3.26-2.88-1-5.7.72-2.72 1.66-5.69 2.52-8.89 2.38 4.46 5.38-2.81 10.16 7.37 7.97 3.08-.66 20.28-2.28 20.54-4.42.71-5.79-3.69-18.35 6.38-17.42.08 3.11-4.18 7.01-.71 8.88 2.7 1.45 5.78.48 8.63 1.09-.85-3.04-.45-7.17.71-10.07 1.6-1.37 5.71.05 6.43 1.69 1.4 3.16-1.3 6.97-1.93 10-4.27-.63-7.53.65-11.18 2.66 17.27 10.11 42.39 4.3 61.35 3.93 23.57-.46 47.14-.04 70.71-.56-.32-4.29.28-8.57.02-12.85-.24-3.95 3.63-2.76 6.43-1.36 2.68 1.34 4.96 2.11 8.01 1.45 2.68-.87-.39-3.83.08-5.39.79-2.57 5.25-.39 6.74-.57.74 2.69 2.71 8.21-1.82 8.61-10.39.92-1.09 3.96-2.21 9.9l21.83-.27c4.38-.05 6.98-1.25 5.99-6.98-.57-3.32-3.88-7.17-2.08-9.95 1.97-3.06 2.84-2.01 5.89-1.66 3 5.11-1.72 8.59-2.53 13.4-.95 5.61 2.8 4.98 7.02 5.05 4.31.07 8.63.29 12.93-.18 10.13-1.11 4.53-7.8 4.17-14.72-.28-5.46 3.99-3.94 7.75-3.07.45 1.78-1.22 6.57.98 7.54-4.03-.38-5.54 4.83-6.43 7.79-.84 2.8-2.45 4.22 1.36 5.23 2.64.7 5.41-.06 7.74-1.34.13 2.3-.56 4.94 2.85 4.04 2.21-.58 4.94-1.09 4.35-3.93-.47-2.26-1.08-3.6 1.04-5.01 2.21-1.47 3.99.53 5.67-.28-1.13-.26-2.21-.64-3.25-1.14 1.62.17 2.69.37 3.84 1.57-.49.09-.99.09-1.48 0 2.72 2.66.66.54 1.33.15 3.46.93-2.21 3.93 2.83 4.22 4.1.24 3.61-8.24 8.99-5.08-.16-1.36-3.28-1.01-4.14-1.15 1.96-1.22 5.72-.14 5.32 2.01.13-.38.38-.52.74-.43-2.05 4.3 11.98-2.96 13.88-.43-2.59 2.54 3.92 6 6.49 1.4 4.65-8.3 8.73 6.37 13.45 1.19.98-8.65 7.58-.4 10.16-.08 3.26.39 6.63-4.48 9.19-4.51-.36.9 3.22 1.29 4.14 1.87-3.71 1.9-.53 1.86-2.66 4.28-1.74 1.98-4.07.66-2.85 4.06 1.71 4.76 4.7 5.92 9.62 5.83 11.04-.19 22.77.28 33.54-.68 10.28-.92 21.38-.93 31.76-.64 2.85.08 5.71.16 8.57.07 1.88-.05 3.75-.19 5.61-.43.54 1.15 1.35 2.06 2.42 2.74zm70.53-7.77c-.05.2-.09-.01 0 0-.53.34-.73.24-.59-.28.12.11 1.14.34.59.28zm2.8-.14c-.43-.16-.87-.21-1.32-.15.65-.22 1.18-.4 1.63-.56.08.01.22 0 .43-.02-.13.36-.38.6-.74.73zm10.49-1.87c1.03-.2 1.87.14 2.51 1-1.86.1-3.26-.97-3.69 0-.2-.38 1.04-2.27 1.18-1zm-550.68-16.22c.02-.23.06-.28.09-.26.35-.49 1.5.53-.09.26zm11.82.86c.81-.09 0 .02 0 0 .09-.01.01.51 0 0zm-26.59 9.33c-.39.57-.83.43-1.33-.43.42.13.84.27 1.25.41-.11-.08-.08-.31.08.02zm-3.11-.91c.09.02.19.08.31.19-.9-.08-1.74.11-2.51.58-.14-.18-.19-.37-.15-.58.17.25 1.53-.49 2.35-.19zm37.47-.2c-.03-2.37.04-4.72.15-7.09.14-3.21 1.84-2.02 4.65-2.32.43 3.87.63 11.06-4.8 9.41zm19.48-8.76l.1 6.22c.04 2.19-7.65 3.68-9.44 3.13 1.6-2.02.77-5.63.68-7.94-.12-3.12 6.37-3.44 8.66-1.41zm-20.46-1.18c-.38.29-1 .34-1.18-.15.35.21 1.54.02 1.18.15zm-1.33-.15c-.03.01-.79 1.08-1.04.26-.06-.19.97-.28 1.04-.26zm-20.42-.26c-.16.43-.61-.03.04-.17-.39.09-.16.42-.04.17zm-1 .12c-.39 0-.87.09-.88-.28.32.3.81-.35.88.28zm161.51 2.38c-.1-.36-.16-1.09-.14-2.38 3.21-1.25 6.95-3.77 7.74 1.63.29 1.98 1.02 4.81-1.09 5.9-1.47.75-3.17 1.25-3.03 3.33-1.76-2.97-3.08-5.33-3.48-8.48zm-14.67 5.35c.58-3.09.09-8.62 3.82-9.08 3.54-.44 5.49 2.76 5.24 5.96-.31 4.02-5.96 3.23-9.06 3.12zm-5.3-7.49c.43 2.37.2 2.72-.1 2.35-1.07 4.59-6.75 8.9-7.61 3.13-.33-2.2-.37-4.99.79-6.99 1.72-2.94 5.09.75 6.92 1.51zm-18.15-2.29c2.83-.18 3.7 2.54 3.6 4.89-.16 3.57-.84 4.41-3.78 5.14-3.85.96-3.94-.13-4.02-4.31-.05-2.79 1.03-5.58 4.2-5.72zm-18.07 2.75c5.46-1.42 7.94-1.76 7.83 4.52-.08 4.28-5.26 2.27-6.8 6.37-2.47-2.4-.48-7.87-1.03-10.89zm72.68 13.35c-.74-3.88-2.3-7.55-2.7-11.5-.51-5.13 3.93-3.38 7.64-3.67 2.89 6.9-4.3 9.05-4.94 15.17zm12.02-3.51c1.19-3.65-2.67-11.11 1.64-12.59 4.57-1.57 6.18 2.29 6.14 6.04 0 .39-.02.85-.09 1.42-3.58.8-3.84 5.28-7.69 5.13zm19.64-12.83c5.43 4.04.14 11.77-5.89 9.3 2.15-3.92-2.47-10.54 5.89-9.3zm43.15.3c.61.93.69 1.26.54 1.3.96 3.59-.2 10.65-4.5 8.31-5.91-3.23-3.23-12.09 3.96-9.61zm62.8 18.43c-.33.26-1.26-.17.11-.21-.01.33-.08.3-.11.21zm18.57-4.81c.24-.26-.05-.1-.03-.03-.61-.46-.26-.69 1.06-.7-.34.25-.68.49-1.03.73zm5.17-1l-.04.08.13-.04c.19.13-.28.32-.13.04-.52.04-2.41-.07-2.62-.08.72-.72 2.46.27 2.66 0zm148.13 9.9c-.96-.67.81-.46 1.01-.43-.48.22-.98.41-1.01.43zm1.92-1.15c.08.06.08.09.04.11-.05.16-.48.39-.93.6.06-.21.46-.99.09-.73.64-.45.07.28.8.02zm-3.4.58l-.18-.08.18.08c.06-.23-.24-.2-.21-.11-.27-.25.03-.73.06-.9.36.28.41.61.15 1.01zm63.06-9.63c-.16.19-.08 1.41-.15 1.58-.46-.38-.76-.86-.88-1.44.32-.17.67-.22 1.03-.14zm-270.24-3.42c-5.9 0-6.27-8.4-1.88-10.04 6.35-.62 6.49 8.7 1.88 10.04zm269.21 3.14c-3.83.44.11 3.09.15 3.44.16 1.82-4.41-.04-5.17 1.44-6.82-6.24 5.62-9.27 5.02-4.88zm-94.81-2.01c.73-.07.08.42.44.57-.45.34-.34-.22-.44-.57zm39.05.97c-.82 0 .99 1.67.43.43 1.67 3.36.79 7.34-3.75 6.92-5.16-.43-2.41-8.4 3.32-7.35zm-12.23 3.91c.11 3.63-3.88 2.46-4.12 5.34-.07-.08-.1.12.04.98 2.49 1.28 1.44 1.93 2.06 4.45-2.54-.56-3.13-3.45-6.05-3.3 3.74-4.53-3.37-8.65 2.88-11.11 2.69-1.06 5.11.94 5.19 3.64zm-29.25 2.99c-5.72 3.07-7.94-5.32-4.22-6.01 1.21-2.68 10.17 2.81 4.22 6.01zm-33.61-4.7c.52-.98 3.92-2.33 5.54-1.68.15-.03.39.08.66.52-.63.11 4.38 9.53-5.02 7.33-.89-1.53-2.09-4.43-1.18-6.17zm-5.24 3.65c0 .23-.75-1.56-.4-1.63 1.97-.38 2.39 0 2.39 1.42.14-.01.15.01.13.03.29.27-2.12 2.27-2.12.18zm15.87-.79c1.62.92-.89 1.81-1.03 1.01.17-.4.46-.68.83-.88-.09-.02-.1-.06.2-.13zm2.96-1.01c1.06-4.21 5.11-3.64 6.87-1.08 3.81 5.52-7.82 8.26-6.87 1.08zm-23.07-3.49c.08-.03.32.1.47.48-1.37-.33-2.75-.38-4.14-.15.54-.64 2.67-.86 3.67-.33zm-18.13.63c.02-.11.07-.09.11-.04.29-.14.6-.19.92-.11-.34-.06-.38-.15-.13-.27.78.15-.2.84-.74.54-.02.02-.06.01-.16-.12zm4.43-.43c-1.03.15-2.06.2-3.1.14.71-.91 3.08-.39 3.25-.43.09.31 1.66.35.73 1.29-1.34-.34-.82-.64-.88-1zm-8.25 2.51c.19.04.25-.14.17-.21l-.34.13c.18-.18.29-.18.34-.13.59-.2 1.17-.12 1.73.28-.06.53-1.41.13-1.9-.07zm4.41 5.23c1.33-.09-1.02-.94-.22-.18-4.21-3.59 2.31-8.17 6.27-5.13 1.55.7 1.13 3.89 0 4.88-1.22 1.14-4.13.3-6.05.43zm13.14-2.15c-.17-1.54-.13-1.93-.04-1.82.37-3.92 4.24-1.71 6.25-2.78-.25 1.45 3.06 2.61.35 5.37-3.18 3.23-4.33.88-6.56-.77zm55.53 4.6c1.16-3.75-1.26-4.08-.69-6.94.71-3.6 4.9-4.58 7.63-2.54 1.06 2.59-.01 5.22-2.67 6.1-1.59.53-3.33 4.23-4.27 3.38zm-63.22.86c-.11-.49.55-.23.59-.58.25.08-.1.75-.59.58zm8.26.7c.02.15.25-.14.01-.12 1.61-.11-.51-.23-.59-.72.74-.13 1.48-.22 2.22-.28-.16.08-.3.17-.44.28.74.26 1.34.46 1.83.62l.09.11c-.5-.18-3.21 1.12-3.12.11zm50.53.59c-.29 2.07-1.56 2.15-1.92.14.63-.19 1.27-.24 1.92-.14zm-11.23 1.87c.07-.97.61-1.3 1.92-1.14-.32.21-.32.35 0 .43-.03.14-1.35.58-1.78.69.09.03.15.09-.14.02zm27.47.14c-.25-1.05.62-.51 1.03-.58l-.95.53c.14.01.38.11-.08.05zm-27.47-.14l.14-.02c-.07-.03-.14-.04-.14.02zm-39.91-10.44c-.05.5-.04 1.1.04 1.82.49.36.13-1.61-.04-1.82zm-205.56-8.13c.06-.46.09-.94.09-1.42-.03-4.53-4.55 2.42-.09 1.42zm11.96-7.7c-3.1-.46 1.79 1.33 0 0zm43.69 1.6c-.14-.52-.32-.96-.54-1.3-1.78-.61.15 1.38.54 1.3zm-75.35 14.74c.67-6.4-.91-4.77 0 0zm-72.68-13.35c.61 3.36 2.06-.54 0 0zm318.06 9.35c-.15-.24-.38-.4-.66-.52-.29.06-.23.67.66.52zm125.68.28c-.3.09-.3.36 0 0zm-1.03-.28c.1-.73-1.45.17 0 0zm-232.42 6.39c.06-.05.1-.12.11-.21-.12 0-.13.12-.11.21zm173.83 3.05l-.04-.11c-.33.12-.05.17.04.11z" fill="#fff"/></svg>