<?xml version="1.0" encoding="utf-8"?>
<!-- Generator: Adobe Illustrator 16.0.0, SVG Export Plug-In . SVG Version: 6.00 Build 0)  -->
<!DOCTYPE svg PUBLIC "-//W3C//DTD SVG 1.1//EN" "http://www.w3.org/Graphics/SVG/1.1/DTD/svg11.dtd">
<svg version="1.1" id="Layer_1" xmlns="http://www.w3.org/2000/svg" xmlns:xlink="http://www.w3.org/1999/xlink" x="0px" y="0px"
	 width="40px" height="608px" viewBox="0 396 40 608" enable-background="new 0 396 40 608" xml:space="preserve">
<g>
	<path fill="#FFFFFF" d="M25.84,950.01c0-0.01,0-0.02,0-0.03c0,0,0,0,0,0c0.01-0.04,0.02-0.09,0.02-0.19
		c-0.07,0.05-0.11,0.09-0.15,0.14c0.03,0.01,0.06,0.02,0.1,0.04C25.82,950.01,25.83,950.04,25.84,950.01z"/>
	<path fill="#FFFFFF" d="M19.59,934.34C19.83,933.56,17.86,934.36,19.59,934.34L19.59,934.34z"/>
	<path fill="#FFFFFF" d="M19.99,971.5c-0.09,0.09-0.15,0.19-0.19,0.31C19.72,972.08,20,972.14,19.99,971.5z"/>
	<path fill="#FFFFFF" d="M10.25,953.84c0.06,0.04,0.14,0.08,0.26,0.09C10.54,953.78,10.29,953.79,10.25,953.84z"/>
	<path fill="#FFFFFF" d="M28.6,413.74C28.25,413.6,27.91,414.01,28.6,413.74L28.6,413.74z"/>
	<path fill="#FFFFFF" d="M11.95,816.63c-0.79-0.19-1.59-0.24-2.35-0.1C9.1,817.74,11.38,817.09,11.95,816.63z"/>
	<path fill="#FFFFFF" d="M24.04,544.01c-0.02,0.03-0.04,0.06-0.03,0.13C24.09,544.14,24.07,544.03,24.04,544.01z"/>
	<path fill="#FFFFFF" d="M9.35,796.69c0.86,0.02,1.64-0.04,2.38-0.14C13.13,796.17,8.78,795.21,9.35,796.69z"/>
	<path fill="#FFFFFF" d="M19.41,549.9c-0.2,0.08-0.36,0.25-0.48,0.47C18.96,550.45,19.15,550.37,19.41,549.9z"/>
	<path fill="#FFFFFF" d="M29.32,499.24C29.57,498.96,27.86,498.79,29.32,499.24L29.32,499.24z"/>
	<path fill="#FFFFFF" d="M23.43,530.26c0.03,0.08,0.09,0.13,0.13,0.2C23.58,530.34,23.55,530.05,23.43,530.26z"/>
	<path fill="#FFFFFF" d="M19.56,568.5c0.06-0.04,0.09-0.1,0.12-0.16c-0.03-0.01-0.11,0.01-0.16,0.05
		C19.54,568.43,19.54,568.47,19.56,568.5z"/>
	<path fill="#FFFFFF" d="M33.48,487.43c-0.01-0.03-0.03-0.05-0.04-0.08C33.44,487.4,33.45,487.43,33.48,487.43z"/>
	<path fill="#FFFFFF" d="M31.62,505.59C31.96,505.53,31.54,504.54,31.62,505.59L31.62,505.59z"/>
	<path fill="#FFFFFF" d="M36.51,487.07c2.22-3.18,2.59-9.26-3.32-7.17c1.65-4.07,0.65-11.42,0.4-15.77
		c-0.19-3.31-3.72-8.06-6.14-9.63c-1.95-0.24-3.4,2.99-5.03,3.4c-4.28,1.08-6.13-3.12-3.47-6.19c3.95-4.57,1.74-4.71-0.66-9.01
		c-2.28-4.09,3.47-8.58,6.29-4.74c0.42,0.89,0.85,1.78,1.29,2.66c0.43,0.47,4.61,1.75,4.02-0.3c4.47-1.22,3.37-5.37,0.07-6.79
		c-3.47-1.5-2.91-6.05-6.9-3.48c-5.1,3.29-5.26-3.48-5.09-6.26c2.27-2.48,4.78-0.34,7.76-0.44c1.43-1.11,3.91-5.33,3.59-7.09
		c1.39-2.61,3.21-3.85,3.01-8.42c-0.21-5.13,0.33-5.85-4.02-8.57c-4.05-2.5-3.29,1.75-6.93,3.35c-3.68,1.62-3.43-1.03-4.19-2.87V396
		H4.51H0v10.87V1004h0.42c1.37,0,2.73,0,4.1,0c5.99,0,11.99,0,17.98,0c-2.41-1.72-3.69-5.24-0.41-7.1c3.8-2.15,3.85-6.61-1.39-7.82
		c-1.3-5.25,3.03-5.01,4.2-8.61c0.98-3.03-1.6-6.01-3.48-4.09c-2.55-1.9,4.75-15.92,0.43-13.88c-0.09-0.36,0.06-0.61,0.43-0.74
		c-2.15,0.39-3.24-3.36-2.02-5.32c0.14,0.86-0.2,3.98,1.15,4.14c-3.08-5.25,3.64-4.45,5.02-6.5c0.46-2.87,0.09-3.82-0.58-4.1
		c0,0.01-0.01,0.02-0.01,0.03c-0.12,0.75-0.5,0.33-0.13-0.08c-1.11-0.3-2.9,0.85-3.44-1.17c0.39-0.67,2.51,1.38-0.15-1.33
		c0.09,0.49,0.09,0.98,0,1.48c-1.2-1.15-1.4-2.22-1.57-3.84c0.5,1.04,0.88,2.12,1.14,3.25c0.81-1.68-1.19-3.46,0.28-5.67
		c2.04-3.08,4.34-0.15,7.18-1.13c0.56-2.23,4.07-6.45,0.07-6.89c0.8-2.83-3.35-5.35-3.99-7.92c6.47-0.87,0.79-13.08,3.14-17.3
		c-3.52-0.53-18.43,1.73-18.49-3c-0.01-0.78-0.54-3.86-0.06-4.47c2.78-2.09,7.37-0.88,10.08,0.71c-1.27-3.55-2.61-7.65-7.1-7.8
		c-2.89-0.1-2.88-0.44-3.36-3.4c-0.66-4.02,0.43-4,3.73-4.89c2.35-0.64,3.9-0.91,5.17,1.42c1.02,1.88,3.78,4.29,1.05,6.08
		c-3.27,2.14-1,2.88,0.72,5.7c1.66,2.72,2.52,5.69,2.38,8.89c5.38-4.46,10.16,2.81,7.97-7.37c-0.66-3.08-2.28-20.28-4.42-20.54
		c-5.79-0.71-18.35,3.69-17.42-6.38c3.11-0.08,7.01,4.18,8.88,0.71c1.45-2.7,0.48-5.78,1.09-8.63c-3.04,0.85-7.17,0.45-10.07-0.71
		c-1.37-1.6,0.05-5.71,1.69-6.43c3.16-1.4,6.97,1.3,10,1.93c-0.63,4.27,0.65,7.53,2.66,11.18c10.11-17.27,4.3-42.39,3.93-61.35
		c-0.46-23.57-0.04-47.14-0.56-70.71c-4.29,0.32-8.57-0.28-12.85-0.02c-3.95,0.24-2.76-3.63-1.36-6.43
		c1.34-2.68,2.11-4.96,1.45-8.01c-0.87-2.68-3.83,0.39-5.39-0.08c-2.57-0.79-0.39-5.25-0.57-6.74c2.69-0.74,8.21-2.71,8.61,1.82
		c0.92,10.39,3.96,1.09,9.9,2.21c-0.09-7.28-0.18-14.56-0.27-21.83c-0.05-4.38-1.25-6.98-6.98-5.99c-3.32,0.57-7.17,3.88-9.95,2.08
		c-3.06-1.97-2.01-2.84-1.66-5.89c5.1-3,8.59,1.72,13.4,2.53c5.61,0.95,4.98-2.8,5.05-7.02c0.07-4.31,0.29-8.63-0.18-12.93
		c-1.11-10.13-7.8-4.53-14.72-4.17c-5.46,0.28-3.94-3.99-3.07-7.75c1.78-0.45,6.57,1.22,7.54-0.98c-0.38,4.03,4.83,5.54,7.79,6.43
		c2.8,0.84,4.22,2.45,5.23-1.36c0.7-2.64-0.06-5.41-1.34-7.74c2.3-0.13,4.94,0.56,4.04-2.85c-0.58-2.21-1.09-4.94-3.93-4.35
		c-2.26,0.47-3.6,1.08-5.01-1.04c-1.47-2.21,0.53-3.99-0.28-5.67c-0.26,1.13-0.64,2.21-1.14,3.25c0.17-1.62,0.37-2.69,1.57-3.84
		c0.09,0.49,0.09,0.99,0,1.48c2.66-2.72,0.54-0.66,0.15-1.33c0.93-3.46,3.93,2.21,4.22-2.83c0.24-4.1-8.24-3.61-5.08-8.99
		c-1.36,0.16-1.01,3.28-1.15,4.14c-1.22-1.95-0.14-5.72,2.01-5.32c-0.38-0.13-0.52-0.38-0.43-0.74c4.3,2.05-2.96-11.98-0.43-13.88
		c2.54,2.59,6-3.92,1.4-6.49c-8.3-4.65,6.37-8.73,1.19-13.45c-8.65-0.98-0.4-7.58-0.08-10.16c0.39-3.26-4.48-6.63-4.51-9.19
		c0.9,0.36,1.29-3.22,1.87-4.14c1.9,3.71,1.86,0.53,4.28,2.66c1.98,1.74,0.66,4.07,4.06,2.85c4.76-1.71,5.92-4.7,5.83-9.62
		c-0.19-11.03,0.28-22.77-0.68-33.54c-0.92-10.27-0.93-21.38-0.64-31.76c0.08-2.85,0.16-5.71,0.07-8.57
		c-0.05-1.88-0.19-3.75-0.43-5.61C34.92,488.95,35.83,488.14,36.51,487.07z M28.74,416.54C28.94,416.59,28.73,416.63,28.74,416.54
		c0.34,0.53,0.24,0.73-0.28,0.59C28.57,417.01,28.8,415.99,28.74,416.54z M28.6,413.74c-0.16,0.43-0.21,0.87-0.15,1.32
		c-0.22-0.65-0.4-1.18-0.56-1.63c0.01-0.08,0-0.22-0.02-0.43C28.23,413.14,28.47,413.38,28.6,413.74z M26.73,403.25
		c-0.2-1.03,0.14-1.87,1-2.51c0.1,1.86-0.97,3.26,0,3.69C27.35,404.63,25.46,403.39,26.73,403.25z M10.51,953.93
		c-0.23-0.02-0.28-0.06-0.26-0.09C9.76,953.49,10.78,952.34,10.51,953.93z M11.37,942.11C11.28,941.3,11.39,942.11,11.37,942.11
		C11.36,942.02,11.88,942.1,11.37,942.11z M20.7,968.7c0.57,0.39,0.43,0.83-0.43,1.33c0.14-0.42,0.27-0.84,0.41-1.25
		C20.6,968.89,20.37,968.86,20.7,968.7z M19.8,971.81c0.02-0.09,0.08-0.19,0.19-0.31c-0.08,0.9,0.11,1.74,0.58,2.51
		c-0.18,0.14-0.37,0.19-0.58,0.15C20.23,973.99,19.49,972.63,19.8,971.81z M19.59,934.34c-2.37,0.03-4.72-0.04-7.09-0.15
		c-3.22-0.14-2.02-1.84-2.32-4.65C14.05,929.11,21.24,928.91,19.59,934.34z M10.83,914.86c2.07-0.03,4.15-0.07,6.22-0.1
		c2.19-0.04,3.68,7.65,3.13,9.44c-2.02-1.6-5.63-0.77-7.94-0.68C9.12,923.64,8.8,917.15,10.83,914.86z M9.65,935.32
		c0.29,0.38,0.34,1-0.15,1.18C9.71,936.15,9.52,934.96,9.65,935.32z M9.5,936.65c0.01,0.03,1.08,0.79,0.26,1.04
		C9.57,937.75,9.48,936.72,9.5,936.65z M9.24,957.07c0.44,0.16-0.03,0.61-0.17-0.04C9.16,957.42,9.49,957.19,9.24,957.07z
		 M9.36,958.07c0,0.39,0.09,0.87-0.28,0.88C9.38,958.63,8.73,958.14,9.36,958.07z M11.74,796.56c-0.36,0.1-1.09,0.16-2.38,0.14
		c-1.25-3.21-3.77-6.95,1.63-7.74c1.98-0.29,4.81-1.02,5.9,1.09c0.76,1.47,1.25,3.17,3.33,3.03
		C17.25,794.84,14.89,796.16,11.74,796.56z M17.09,811.23c-3.1-0.58-8.62-0.09-9.08-3.82c-0.44-3.54,2.77-5.49,5.96-5.24
		C17.99,802.48,17.2,808.13,17.09,811.23z M9.6,816.53c2.37-0.43,2.72-0.2,2.35,0.1c4.59,1.07,8.9,6.75,3.13,7.61
		c-2.2,0.33-4.99,0.37-6.99-0.79C5.15,821.73,8.84,818.36,9.6,816.53z M7.31,834.68c-0.18-2.83,2.54-3.7,4.89-3.6
		c3.57,0.16,4.41,0.84,5.14,3.78c0.96,3.85-0.13,3.94-4.31,4.02C10.24,838.93,7.45,837.85,7.31,834.68z M10.06,852.75
		c-1.42-5.46-1.76-7.94,4.52-7.83c4.28,0.08,2.27,5.26,6.37,6.8C18.55,854.19,13.08,852.2,10.06,852.75z M23.41,780.07
		c-3.88,0.74-7.55,2.3-11.5,2.7c-5.13,0.51-3.38-3.93-3.67-7.64C15.14,772.24,17.29,779.43,23.41,780.07z M19.9,768.05
		c-3.65-1.19-11.11,2.67-12.59-1.64c-1.57-4.57,2.29-6.18,6.04-6.14c0.39,0,0.85,0.02,1.42,0.09
		C15.57,763.94,20.05,764.2,19.9,768.05z M7.07,748.41c4.04-5.43,11.77-0.14,9.3,5.89C12.45,752.15,5.83,756.77,7.07,748.41z
		 M7.37,705.26c0.93-0.61,1.26-0.69,1.3-0.54c3.59-0.96,10.65,0.2,8.31,4.5C13.75,715.13,4.89,712.45,7.37,705.26z M25.8,642.46
		c0.26,0.33-0.17,1.26-0.21-0.11C25.92,642.36,25.89,642.44,25.8,642.46z M20.99,623.89c-0.26-0.24-0.1,0.05-0.03,0.03
		c-0.46,0.61-0.69,0.26-0.7-1.06C20.51,623.2,20.75,623.54,20.99,623.89z M19.99,618.72c0.03,0.02,0.05,0.03,0.08,0.04
		c-0.01-0.09-0.02-0.14-0.04-0.13c0.13-0.19,0.32,0.28,0.04,0.13c0.04,0.52-0.07,2.41-0.08,2.61
		C19.27,620.66,20.26,618.92,19.99,618.72z M29.89,470.59c-0.67,0.96-0.46-0.81-0.43-1.01C29.68,470.06,29.87,470.56,29.89,470.59z
		 M28.74,468.67c0.06-0.08,0.09-0.08,0.11-0.04c0.16,0.05,0.39,0.48,0.6,0.93c-0.21-0.06-0.99-0.46-0.73-0.09
		C28.27,468.83,29,469.4,28.74,468.67z M29.32,472.07c-0.03,0.1-0.06,0.15-0.08,0.18C29.27,472.2,29.29,472.14,29.32,472.07
		c-0.23-0.06-0.2,0.24-0.11,0.21c-0.25,0.27-0.73-0.03-0.9-0.06C28.59,471.86,28.92,471.81,29.32,472.07z M19.69,409.01
		c0.19,0.16,1.41,0.08,1.58,0.15c-0.38,0.47-0.85,0.76-1.44,0.88C19.66,409.72,19.61,409.37,19.69,409.01z M16.27,679.25
		c0,5.9-8.4,6.27-10.04,1.88C5.61,674.78,14.93,674.64,16.27,679.25z M19.41,410.04c0.44,3.83,3.09-0.11,3.44-0.15
		c1.82-0.16-0.04,4.41,1.44,5.17C18.05,421.88,15.02,409.44,19.41,410.04z M17.4,504.85c-0.07-0.73,0.42-0.08,0.57-0.44
		C18.31,504.86,17.75,504.75,17.4,504.85z M18.37,465.8c0,0.82,1.67-0.99,0.43-0.43c3.36-1.66,7.34-0.79,6.92,3.75
		C25.29,474.28,17.32,471.53,18.37,465.8z M22.28,478.03c3.63-0.11,2.46,3.88,5.34,4.11c-0.08,0.07,0.12,0.1,0.98-0.04
		c1.28-2.49,1.93-1.44,4.45-2.06c-0.56,2.54-3.45,3.13-3.3,6.05c-4.53-3.74-8.65,3.37-11.11-2.88
		C17.58,480.53,19.58,478.11,22.28,478.03z M25.27,507.28c3.07,5.72-5.32,7.94-6.01,4.22C16.58,510.29,22.07,501.33,25.27,507.28z
		 M20.57,540.89c-0.98-0.52-2.33-3.92-1.68-5.54c-0.03-0.15,0.08-0.39,0.52-0.66c0.11,0.63,9.53-4.38,7.33,5.02
		C25.21,540.6,22.31,541.8,20.57,540.89z M24.22,546.13c0.23,0-1.56,0.75-1.63,0.4c-0.38-1.97,0-2.39,1.42-2.39
		c-0.01-0.14,0.01-0.15,0.03-0.13C24.31,543.72,26.31,546.13,24.22,546.13z M23.43,530.26c0.92-1.62,1.81,0.89,1.01,1.03
		c-0.4-0.17-0.68-0.46-0.88-0.83C23.54,530.55,23.5,530.56,23.43,530.26z M22.42,527.3c-4.21-1.06-3.64-5.11-1.08-6.87
		C26.86,516.62,29.6,528.25,22.42,527.3z M18.93,550.37c-0.03-0.08,0.1-0.32,0.48-0.47c-0.33,1.37-0.38,2.75-0.15,4.14
		C18.62,553.5,18.4,551.37,18.93,550.37z M19.56,568.5c-0.11-0.02-0.09-0.07-0.04-0.11c-0.14-0.29-0.19-0.6-0.11-0.92
		c-0.06,0.34-0.15,0.38-0.27,0.13c0.15-0.78,0.84,0.2,0.54,0.74C19.7,568.36,19.69,568.4,19.56,568.5z M19.13,564.07
		c0.15,1.03,0.19,2.06,0.14,3.1c-0.91-0.71-0.39-3.08-0.43-3.25c0.31-0.09,0.35-1.66,1.29-0.73
		C19.79,564.53,19.49,564.01,19.13,564.07z M21.64,572.32c0.04-0.19-0.14-0.25-0.21-0.17c0.04,0.11,0.07,0.23,0.13,0.34
		c-0.18-0.18-0.18-0.29-0.13-0.34c-0.2-0.59-0.12-1.17,0.28-1.73C22.24,570.48,21.84,571.83,21.64,572.32z M26.87,567.91
		c-0.09-1.34-0.94,1.02-0.18,0.22c-3.59,4.21-8.17-2.31-5.13-6.27c0.7-1.55,3.89-1.13,4.88,0
		C27.58,563.08,26.74,565.99,26.87,567.91z M24.72,554.77c-1.54,0.17-1.93,0.13-1.82,0.04c-3.92-0.37-1.71-4.24-2.78-6.25
		c1.45,0.25,2.61-3.06,5.37-0.35C28.72,551.39,26.37,552.54,24.72,554.77z M29.32,499.24c-3.75-1.16-4.08,1.26-6.94,0.69
		c-3.6-0.71-4.58-4.9-2.54-7.63c2.59-1.06,5.22,0.01,6.1,2.67C26.47,496.56,30.17,498.3,29.32,499.24z M30.18,562.46
		c-0.49,0.11-0.23-0.55-0.58-0.59C29.68,561.62,30.35,561.97,30.18,562.46z M30.88,554.2c0.15-0.02-0.14-0.25-0.12-0.01
		c-0.11-1.61-0.23,0.51-0.72,0.59c-0.13-0.74-0.22-1.48-0.28-2.22c0.08,0.16,0.17,0.3,0.28,0.44c0.26-0.74,0.46-1.34,0.62-1.83
		c0.04-0.03,0.07-0.06,0.11-0.09C30.59,551.58,31.89,554.29,30.88,554.2z M31.47,503.67c2.07,0.29,2.15,1.56,0.14,1.92
		C31.42,504.96,31.37,504.32,31.47,503.67z M33.34,514.9c-0.97-0.07-1.3-0.61-1.14-1.92c0.21,0.31,0.35,0.31,0.43,0
		c0.14,0.03,0.58,1.35,0.69,1.78C33.35,514.67,33.41,514.61,33.34,514.9z M33.48,487.43c-1.05,0.25-0.51-0.62-0.58-1.03
		c0.18,0.32,0.36,0.64,0.53,0.95C33.44,487.21,33.54,486.97,33.48,487.43z"/>
	<path fill="#FFFFFF" d="M33.34,514.9c0-0.01-0.01-0.07-0.02-0.14C33.29,514.83,33.28,514.9,33.34,514.9z"/>
	<path fill="#FFFFFF" d="M22.9,554.81c0.5,0.05,1.1,0.04,1.82-0.04C25.08,554.28,23.11,554.64,22.9,554.81z"/>
	<path fill="#FFFFFF" d="M14.77,760.37c-0.46-0.06-0.94-0.09-1.42-0.09C8.82,760.31,15.77,764.83,14.77,760.37z"/>
	<path fill="#FFFFFF" d="M7.07,748.41C6.61,751.51,8.4,746.62,7.07,748.41L7.07,748.41z"/>
	<path fill="#FFFFFF" d="M8.67,704.72c-0.52,0.14-0.96,0.32-1.3,0.54C6.76,707.04,8.75,705.11,8.67,704.72z"/>
	<path fill="#FFFFFF" d="M23.41,780.07C17.01,779.4,18.64,780.98,23.41,780.07L23.41,780.07z"/>
	<path fill="#FFFFFF" d="M10.06,852.75C13.42,852.14,9.52,850.69,10.06,852.75L10.06,852.75z"/>
	<path fill="#FFFFFF" d="M19.41,534.69c-0.24,0.15-0.4,0.38-0.52,0.66C18.95,535.64,19.56,535.58,19.41,534.69z"/>
	<path fill="#FFFFFF" d="M19.69,409.01C19.78,409.31,20.05,409.31,19.69,409.01L19.69,409.01z"/>
	<path fill="#FFFFFF" d="M19.41,410.04C18.68,409.94,19.58,411.49,19.41,410.04L19.41,410.04z"/>
	<path fill="#FFFFFF" d="M25.8,642.46c-0.05-0.06-0.12-0.1-0.21-0.11C25.59,642.47,25.71,642.48,25.8,642.46z"/>
	<path fill="#FFFFFF" d="M28.85,468.63c-0.04-0.01-0.08,0-0.11,0.04C28.86,469.01,28.91,468.72,28.85,468.63z"/>
</g>
</svg>
